<?xml version="1.0" encoding="UTF-8" standalone="no"?>
<svg
   xmlns:osb="http://www.openswatchbook.org/uri/2009/osb"
   xmlns:dc="http://purl.org/dc/elements/1.1/"
   xmlns:cc="http://creativecommons.org/ns#"
   xmlns:rdf="http://www.w3.org/1999/02/22-rdf-syntax-ns#"
   xmlns:svg="http://www.w3.org/2000/svg"
   xmlns="http://www.w3.org/2000/svg"
   xmlns:xlink="http://www.w3.org/1999/xlink"
   xmlns:sodipodi="http://sodipodi.sourceforge.net/DTD/sodipodi-0.dtd"
   xmlns:inkscape="http://www.inkscape.org/namespaces/inkscape"
   version="1.0"
   width="373.90201"
   height="329.47992"
   viewBox="0 0 3739.0201 3294.7992"
   preserveAspectRatio="xMidYMid meet"
   id="svg113"
   sodipodi:docname="AFM spins.svg"
   inkscape:version="0.92.1 r15371">
  <metadata
     id="metadata119">
    <rdf:RDF>
      <cc:Work
         rdf:about="">
        <dc:format>image/svg+xml</dc:format>
        <dc:type
           rdf:resource="http://purl.org/dc/dcmitype/StillImage" />
        <dc:title></dc:title>
      </cc:Work>
    </rdf:RDF>
  </metadata>
  <defs
     id="defs117">
    <linearGradient
       inkscape:collect="always"
       id="linearGradient9290">
      <stop
         style="stop-color:#31cd31;stop-opacity:0.26068377"
         offset="0"
         id="stop9286" />
      <stop
         style="stop-color:#31cd31;stop-opacity:1"
         offset="1"
         id="stop9288" />
    </linearGradient>
    <linearGradient
       id="linearGradient9272"
       inkscape:collect="always">
      <stop
         id="stop9268"
         offset="0"
         style="stop-color:#1d8fff;stop-opacity:0.12941177" />
      <stop
         id="stop9270"
         offset="1"
         style="stop-color:#1d8fff;stop-opacity:1" />
    </linearGradient>
    <linearGradient
       id="linearGradient9238"
       osb:paint="solid">
      <stop
         style="stop-color:#ffffff;stop-opacity:1;"
         offset="0"
         id="stop9236" />
    </linearGradient>
    <linearGradient
       id="linearGradient9182"
       osb:paint="gradient">
      <stop
         style="stop-color:#6b0751;stop-opacity:1;"
         offset="0"
         id="stop9178" />
      <stop
         style="stop-color:#6b0751;stop-opacity:0;"
         offset="1"
         id="stop9180" />
    </linearGradient>
    <marker
       inkscape:stockid="Arrow2Mstart"
       orient="auto"
       refY="0"
       refX="0"
       id="marker8884"
       style="overflow:visible"
       inkscape:isstock="true">
      <path
         id="path8882"
         style="fill:#000000;fill-opacity:1;fill-rule:evenodd;stroke:#000000;stroke-width:0.625;stroke-linejoin:round;stroke-opacity:1"
         d="M 8.7185878,4.0337352 -2.2072895,0.01601326 8.7185884,-4.0017078 c -1.7454984,2.3720609 -1.7354408,5.6174519 -6e-7,8.035443 z"
         transform="scale(0.6)"
         inkscape:connector-curvature="0" />
    </marker>
    <marker
       inkscape:isstock="true"
       style="overflow:visible"
       id="marker8596"
       refX="0"
       refY="0"
       orient="auto"
       inkscape:stockid="Arrow2Mstart">
      <path
         transform="scale(0.6)"
         d="M 8.7185878,4.0337352 -2.2072895,0.01601326 8.7185884,-4.0017078 c -1.7454984,2.3720609 -1.7354408,5.6174519 -6e-7,8.035443 z"
         style="fill:#000000;fill-opacity:1;fill-rule:evenodd;stroke:#000000;stroke-width:0.625;stroke-linejoin:round;stroke-opacity:1"
         id="path8594"
         inkscape:connector-curvature="0" />
    </marker>
    <linearGradient
       id="linearGradient7430"
       osb:paint="solid">
      <stop
         style="stop-color:#6b0751;stop-opacity:1;"
         offset="0"
         id="stop7428" />
    </linearGradient>
    <marker
       inkscape:stockid="Arrow2Mstart"
       orient="auto"
       refY="0"
       refX="0"
       id="Arrow2Mstart"
       style="overflow:visible"
       inkscape:isstock="true"
       inkscape:collect="always">
      <path
         id="path4636"
         style="fill:#b90751;fill-opacity:1;fill-rule:evenodd;stroke:#ff0000;stroke-width:0.625;stroke-linejoin:round;stroke-opacity:1"
         d="M 8.7185878,4.0337352 -2.2072895,0.01601326 8.7185884,-4.0017078 c -1.7454984,2.3720609 -1.7354408,5.6174519 -6e-7,8.035443 z"
         transform="scale(0.6)"
         inkscape:connector-curvature="0" />
    </marker>
    <marker
       inkscape:stockid="Arrow1Mstart"
       orient="auto"
       refY="0"
       refX="0"
       id="Arrow1Mstart"
       style="overflow:visible"
       inkscape:isstock="true">
      <path
         id="path4618"
         d="M 0,0 5,-5 -12.5,0 5,5 Z"
         style="fill:#b90751;fill-opacity:1;fill-rule:evenodd;stroke:#ff0000;stroke-width:1.00000003pt;stroke-opacity:1"
         transform="matrix(0.4,0,0,0.4,4,0)"
         inkscape:connector-curvature="0" />
    </marker>
    <marker
       inkscape:stockid="Arrow2Lstart"
       orient="auto"
       refY="0"
       refX="0"
       id="Arrow2Lstart"
       style="overflow:visible"
       inkscape:isstock="true">
      <path
         id="path4630"
         style="fill:#b90751;fill-opacity:1;fill-rule:evenodd;stroke:#ff0000;stroke-width:0.625;stroke-linejoin:round;stroke-opacity:1"
         d="M 8.7185878,4.0337352 -2.2072895,0.01601326 8.7185884,-4.0017078 c -1.7454984,2.3720609 -1.7354408,5.6174519 -6e-7,8.035443 z"
         transform="matrix(1.1,0,0,1.1,1.1,0)"
         inkscape:connector-curvature="0" />
    </marker>
    <marker
       inkscape:stockid="Arrow1Lstart"
       orient="auto"
       refY="0"
       refX="0"
       id="Arrow1Lstart"
       style="overflow:visible"
       inkscape:isstock="true">
      <path
         id="path4612"
         d="M 0,0 5,-5 -12.5,0 5,5 Z"
         style="fill:#b90751;fill-opacity:1;fill-rule:evenodd;stroke:#ff0000;stroke-width:1.00000003pt;stroke-opacity:1"
         transform="matrix(0.8,0,0,0.8,10,0)"
         inkscape:connector-curvature="0" />
    </marker>
    <marker
       inkscape:stockid="Arrow2Mend"
       orient="auto"
       refY="0"
       refX="0"
       id="Arrow2Mend"
       style="overflow:visible"
       inkscape:isstock="true">
      <path
         id="path4639"
         style="fill:#b90751;fill-opacity:1;fill-rule:evenodd;stroke:#ff0000;stroke-width:0.625;stroke-linejoin:round;stroke-opacity:1"
         d="M 8.7185878,4.0337352 -2.2072895,0.01601326 8.7185884,-4.0017078 c -1.7454984,2.3720609 -1.7354408,5.6174519 -6e-7,8.035443 z"
         transform="scale(-0.6)"
         inkscape:connector-curvature="0" />
    </marker>
    <radialGradient
       inkscape:collect="always"
       xlink:href="#linearGradient9290"
       id="radialGradient7456"
       cx="3344.1614"
       cy="1594.8667"
       fx="3344.1614"
       fy="1594.8667"
       r="345.24762"
       gradientUnits="userSpaceOnUse" />
    <radialGradient
       inkscape:collect="always"
       xlink:href="#linearGradient9272"
       id="radialGradient9266"
       cx="5260.7739"
       cy="1584.1892"
       fx="5260.7739"
       fy="1584.1892"
       r="937.42285"
       gradientUnits="userSpaceOnUse" />
  </defs>
  <sodipodi:namedview
     pagecolor="#ffffff"
     bordercolor="#666666"
     borderopacity="1"
     objecttolerance="10"
     gridtolerance="10"
     guidetolerance="10"
     inkscape:pageopacity="0"
     inkscape:pageshadow="2"
     inkscape:window-width="1920"
     inkscape:window-height="1018"
     id="namedview115"
     showgrid="false"
     inkscape:zoom="1.2800001"
     inkscape:cx="32.990011"
     inkscape:cy="140.41084"
     inkscape:window-x="-8"
     inkscape:window-y="-8"
     inkscape:window-maximized="1"
     inkscape:current-layer="layer3" />
  <g
     inkscape:groupmode="layer"
     id="layer1"
     inkscape:label="spin1"
     style="display:none"
     transform="translate(-2642.7545,-239.41374)">
    <circle
       style="opacity:0.42900002;fill:none;fill-opacity:1;stroke:#00b51b;stroke-width:70;stroke-linecap:round;stroke-linejoin:round;stroke-miterlimit:4;stroke-dasharray:none;stroke-dashoffset:0;stroke-opacity:1;paint-order:normal"
       id="path4608"
       cx="952.6554"
       cy="1751.5321"
       r="419.09213" />
    <path
       style="fill:#b90751;fill-opacity:1;stroke:#ff0000;stroke-width:85;stroke-linecap:butt;stroke-linejoin:miter;stroke-miterlimit:4;stroke-dasharray:none;stroke-opacity:1;marker-start:url(#Arrow2Mstart)"
       d="M 954.49065,750.47102 V 2471.8019"
       id="path4610"
       inkscape:connector-curvature="0" />
    <path
       style="display:inline;fill:#000000;stroke-width:4.36363649"
       d="m 5242.4974,3387.7559 c -1.0801,-3 -10.0321,-34.9091 -19.8933,-70.9091 -9.8611,-36 -30.6458,-111.6 -46.1881,-168 -15.5422,-56.4 -37.0606,-134.9454 -47.8187,-174.5454 -10.7579,-39.6 -23.5295,-85.4385 -28.3811,-101.8632 -11.3756,-38.5109 -7.8382,-43.251 37.7674,-50.608 l 32.5698,-5.254 V 2664.687 2512.7978 l -51.2727,-5.1685 c -28.2,-2.8426 -66,-9.7742 -84,-15.4036 -18,-5.6294 -53.3455,-16.4417 -78.5455,-24.0273 -25.2,-7.5856 -49.8697,-15.1247 -54.8216,-16.7536 -4.9519,-1.6289 -44.2247,-21.9963 -87.2728,-45.2609 -68.0099,-36.7548 -87.3768,-49.8166 -147.7518,-99.6499 -68.4207,-56.4742 -73.9519,-62.3301 -158.9335,-168.263 -16.8218,-20.969 -43.0456,-63.6292 -66.8174,-108.6969 -35.0728,-66.493 -41.9765,-83.6799 -66.6055,-165.8182 -27.1733,-90.6234 -27.5631,-92.6734 -35.2624,-185.4546 -7.7167,-92.9918 -7.7029,-94.6444 1.5775,-187.6363 8.8685,-88.8639 10.7229,-98.3337 35.1169,-179.3278 23.2508,-77.1983 29.9043,-93.3155 68.4537,-165.8182 46.3937,-87.2562 97.7925,-157.22359 163.1769,-222.12679 46.5014,-46.1592 131.2314,-113.0583 172.4127,-136.1295 103.4343,-57.9474 126.3367,-68.06824 213.8745,-94.51338 78.1192,-23.5998 95.1464,-27.17929 161.4546,-33.94151 92.7378,-9.45756 125.3181,-9.45911 217.9603,-0.01 67.6164,6.89633 81.7661,9.95012 163.6364,35.31606 81.3151,25.19392 96.9943,31.74583 169.2024,70.70463 70.7291,38.1609 87.454,49.4914 150.3365,101.8468 59.6071,49.6284 79.1972,69.2209 124.3484,124.3636 53.5676,65.42169 75.7958,101.12259 127.6939,205.09099 30.3429,60.7864 67.8571,188.7344 74.2059,253.0909 13.6177,138.0391 13.492,131.1352 4.1325,226.9091 -9.2791,94.9522 -8.3998,90.998 -51.4269,231.2727 -9.2984,30.3142 -26.4217,67.6163 -56.0868,122.1818 -36.363,66.8856 -51.0461,88.7286 -98.911,147.1427 -48.2217,58.8496 -65.8511,76.5216 -124.0639,124.3636 -73.4481,60.3632 -74.4302,61.0591 -122.9022,87.0895 -102.245,54.9077 -119.2303,62.6757 -170.1818,77.8304 -30,8.923 -69.2183,20.9047 -87.1517,26.626 -17.9334,5.7214 -41.497,10.5504 -52.3636,10.7313 -10.8666,0.181 -36.4484,2.6355 -56.8484,5.4546 l -37.0909,5.1256 -1.1461,153.2487 -1.146,153.2487 22.9642,2.9155 c 48.9262,6.2115 57.7914,13.1962 50.361,39.678 -2.0202,7.2 -14.5109,52.3637 -27.7569,100.3637 -13.2461,48 -28.795,103.9636 -34.5532,124.3636 -5.7582,20.4 -23.3086,83.5083 -39.001,140.2407 -15.6924,56.7324 -29.4013,105.8233 -30.4644,109.0909 -1.063,3.2676 -5.0675,17.232 -8.8989,31.032 -6.6422,23.9243 -13.4302,31.4603 -17.6874,19.6364 z m 36.4818,-124.3982 c 25.6543,-95.9555 51.3581,-189.3552 77.147,-280.329 41.7573,-147.3042 41.3035,-141.1382 10.7908,-146.611 -8.4,-1.5066 -22.1454,-4.0775 -30.5454,-5.713 l -15.2727,-2.9736 -1.1465,-156.1929 -1.1464,-156.1929 -35.9445,2.6575 c -19.7695,1.4615 -50.9999,1.0674 -69.401,-0.876 l -33.4565,-3.5332 -1.8746,11.0811 c -1.0311,6.0946 -1.2447,74.319 -0.475,151.6097 1.5452,155.1022 1.7246,154.0169 -25.4522,154.0169 -22.5905,0 -47.1037,9.2497 -47.1037,17.7739 0,4.2159 14.8205,61.3414 32.9343,126.9457 51.8735,187.874 72.0034,260.6093 82.5255,298.1895 5.3758,19.2 13.4811,48.1636 18.0118,64.3636 4.5307,16.2 9.244,29.439 10.474,29.42 1.2299,-0.02 14.7006,-46.6554 29.9348,-103.6364 z M 5139.1898,2857.866 c 3.1499,-1.2605 6.9136,-1.1055 8.3636,0.344 1.45,1.45 -1.1273,2.4813 -5.7273,2.2918 -5.0834,-0.209 -6.1173,-1.2433 -2.6363,-2.6363 z m 51,-4.4944 c -4.8,-1.1545 -10.6909,-4.1257 -13.0909,-6.6026 -2.9904,-3.0861 -0.243,-3.4034 8.7272,-1.008 7.2,1.9224 31.7455,4.7977 54.5455,6.3895 l 41.4545,2.894 -41.4545,0.213 c -22.8,0.117 -45.3818,-0.731 -50.1818,-1.8861 z m 183.221,-356.7297 c 68.5168,-7.401 75.5897,-9.0001 175.3437,-39.6456 99.8896,-30.687 202.0305,-85.3425 286.5017,-153.3068 76.0418,-61.182 81.9965,-67.0699 143.9524,-142.3368 45.2582,-54.9819 59.5469,-76.3932 96.0974,-144 31.7959,-58.8126 46.7026,-91.8675 57.4597,-127.415 7.989,-26.4 19.718,-64.6909 26.0645,-85.0909 7.9655,-25.6043 14.6664,-65.3561 21.6375,-128.3603 10.0907,-91.1991 10.0924,-91.3253 2.2773,-163.6364 -4.3017,-39.8018 -8.6568,-81.2033 -9.6781,-92.0033 -1.5838,-16.7486 -28.5557,-111.6992 -49.2423,-173.3506 -3.4034,-10.1428 -18.5761,-41.561 -33.7172,-69.8182 -15.1411,-28.2572 -33.3439,-62.7494 -40.4507,-76.6494 -7.1068,-13.8999 -20.436,-34.5181 -29.6204,-45.8182 -76.8116,-94.50489 -107.5645,-129.33999 -130.8497,-148.21939 -121.6234,-98.6106 -108.1067,-89.4668 -212.4514,-143.7194 -45.5717,-23.6945 -83.2951,-39.7981 -115.6363,-49.3637 -26.4,-7.80837 -62.4618,-18.84232 -80.1373,-24.51989 -22.748,-7.30686 -59.36,-12.95172 -125.3127,-19.32075 l -93.1754,-8.9979 -90.6873,9.05381 c -96.811,9.66516 -110.3237,11.92321 -110.3237,18.43568 0,2.28182 -4.1732,2.82425 -9.2737,1.20539 -6.659,-2.11348 -8.3505,-1.44941 -5.999,2.35526 2.3785,3.84862 0.587,4.44569 -6.5455,2.18182 -7.1328,-2.26388 -8.924,-1.6668 -6.5455,2.18181 2.3515,3.80468 0.66,4.46874 -5.999,2.35526 -5.1219,-1.62564 -9.2737,-1.04105 -9.2737,1.30581 0,2.33704 -4.2343,3.14186 -9.4096,1.78849 -6.8515,-1.79169 -8.4824,-0.9604 -5.999,3.05783 2.5123,4.06508 0.968,4.7433 -5.8631,2.57514 -5.7369,-1.82081 -9.2737,-1.05484 -9.2737,2.00838 0,3.06323 -3.5369,3.8292 -9.2738,2.00839 -6.659,-2.11349 -8.3504,-1.44942 -5.999,2.35525 2.3786,3.84862 0.587,4.44569 -6.5454,2.18182 -7.3047,-2.31844 -8.9487,-1.70661 -6.4177,2.38854 2.1547,3.48646 1.6371,4.41426 -1.4116,2.53016 -7.2165,-4.4601 -43.5775,5.9302 -46.3886,13.2557 -1.3463,3.5083 -4.3185,5.2226 -6.6049,3.8095 -2.2864,-1.4131 -38.1367,15.7197 -79.6672,38.0729 -64.9296,34.9474 -85.2929,48.6823 -145.3282,98.0228 -60.1445,49.4302 -77.7925,67.0483 -127.3713,127.15519 -31.6542,38.376 -65.231,84.152 -74.6151,101.7244 -9.3841,17.5725 -28.405,53.2352 -42.2687,79.2505 -13.8637,26.0152 -30.8505,65.7789 -37.7485,88.3636 -6.898,22.5847 -18.4706,60.2085 -25.7168,83.6085 -7.2462,23.4 -15.0922,57.2728 -17.4354,75.2728 -8.7292,67.0548 -17.1017,168.3521 -15.1416,183.1958 1.1148,8.4422 5.1184,48.7314 8.8969,89.5314 4.5597,49.2352 10.3328,85.1877 17.1672,106.9091 5.6635,18 17.4973,56.2909 26.2973,85.0909 14.6815,48.0485 32.2406,85.717 86.0977,184.7007 21.5957,39.6906 121.0113,159.9399 152.3977,184.3344 10.3923,8.0772 40.4951,32.5994 66.8951,54.4936 38.6968,32.0923 62.3777,47.2647 122.1819,78.2816 40.8,21.1607 77.1272,40.1018 80.7272,42.0914 3.6,1.9896 43.646,14.6364 88.9912,28.1041 132.8455,39.4554 229.4213,47.0765 384.4117,30.3348 z m -437.4029,-225.4043 c -10.9011,-3.1476 -14.1818,-6.5071 -14.1818,-14.5223 0,-21.6646 3.6624,-24.6257 26.6809,-21.5722 24.8016,3.29 27.3933,0 6.779,-8.618 -16.6989,-6.9773 -33.4599,-26.2547 -33.4599,-38.4835 0,-31.4323 37.5414,-50.7727 77.684,-40.0208 8.4946,2.2752 9.8436,5.1327 8.7273,18.4858 l -1.3204,15.7948 -19.6363,-1.0728 c -18.2091,-0.995 -19.0207,-0.598 -11.166,5.4546 4.6587,3.59 10.866,6.5272 13.7939,6.5272 2.9279,0 10.4072,6.0416 16.6205,13.4258 32.8845,39.0809 -13.08,81.1869 -70.5212,64.6014 z m 49.0758,-14.4669 c 16.219,-6.7767 24.2489,-24.5054 16.7418,-36.9629 -2.3071,-3.8286 -13.3963,-11.4171 -24.6426,-16.8633 -13.9546,-6.7579 -20.4477,-12.5982 -20.4477,-18.3919 0,-10.2903 12.1679,-17.481 27.4974,-16.2498 14.1125,1.1334 15.8589,-6.9558 2.2147,-10.2586 -16.6528,-4.0309 -34.9283,1.9201 -44.2536,14.4103 -12.3195,16.5007 -4.8707,31.5414 21.3689,43.1484 17.2579,7.634 19.695,10.3275 18.5226,20.4718 -1.2758,11.039 -2.6095,11.6709 -24.2591,11.4949 -15.2131,-0.123 -22.9091,1.6011 -22.9091,5.1346 0,10.6222 28.8749,12.9628 50.1667,4.0665 z m 489.3636,-106.1915 c -1.1416,-1.8472 2.4997,-19.029 8.0917,-38.1818 18.5452,-63.518 31.7432,-108.4104 48.0821,-163.5506 8.8895,-30 18.4799,-62.4 21.3121,-72 l 5.1493,-17.4545 24.9173,-1.3087 c 23.0433,-1.2103 24.9172,-0.598 24.9172,8.1375 0,5.1954 -11.8253,48.9843 -26.2784,97.3087 -14.4532,48.3243 -32.2845,108.4806 -39.6251,133.6806 -7.3406,25.2 -14.1082,48.2728 -15.0391,51.2728 -1.8646,6.009 -47.9501,7.8837 -51.5271,2.096 z m 49.2703,-39.1869 c 5.3396,-18.6 13.3234,-45.6 17.7417,-60 21.7319,-70.8277 52.3668,-176.5647 52.3668,-180.7454 0,-6.5247 -19.8185,-5.9316 -24.9038,0.745 -2.2848,3 -17.4368,50.6181 -33.671,105.8181 -16.2342,55.2 -34.0825,115.5819 -39.6629,134.1819 l -10.1462,33.8181 h 14.2836 c 14.0719,0 14.4274,-0.501 23.9918,-33.8181 z m -767.0061,26.5661 c -9.7838,-2.0935 -10.0788,-3.296 -7.1399,-29.1022 1.6862,-14.8052 4.0563,-28.5794 5.267,-30.6093 1.2106,-2.03 10.4867,-2.4483 20.6136,-0.93 24.9448,3.7407 39.4963,-2.5692 45.4748,-19.7191 3.0171,-8.6548 4.8991,-49.006 4.8991,-105.0388 v -90.9852 h 34.826 c 33.3595,0 34.9394,0.452 37.5207,10.7369 1.4822,5.9052 2.0088,53.5234 1.1703,105.8182 -1.4361,89.5719 -2.1238,96.2989 -11.8676,116.0964 -6.4236,13.0518 -16.9162,25.3652 -27.6893,32.4944 -14.9455,9.8905 -22.5724,11.6137 -55.1077,12.4506 -20.7688,0.534 -42.3539,-0.01 -47.967,-1.2122 z m 86.7317,-16.832 c 18.8047,-9.7243 33.5687,-30.5232 38.7213,-54.5488 2.6139,-12.1882 4.7525,-61.3364 4.7525,-109.2183 v -87.058 h -24 -24 l -0.01,90.5455 c 0,77.4848 -1.1073,92.7397 -7.6364,105.7575 -9.8436,19.6263 -24.5931,27.1955 -47.5229,24.3879 -15.9085,-1.9479 -18.386,-1.0539 -20.6678,7.4571 -5.89,21.9707 -3.3922,28.6595 11.4702,30.715 21.1551,2.9257 55.4197,-1.0722 68.8899,-8.0379 z m 446.4036,14.9533 c -25.6482,-6.1034 -28.7916,-11.3313 -23.0133,-38.2743 2.6344,-12.2841 6.425,-23.3452 8.4235,-24.5803 1.9984,-1.2351 16.5554,0.751 32.3489,4.4138 50.6528,11.7472 85.9776,-7.7998 71.5038,-39.5665 -7.4783,-16.413 -28.8313,-23.7711 -68.984,-23.7711 h -35.836 l 2.7753,-18.5454 c 1.5264,-10.2 5.4789,-41.8132 8.7834,-70.2516 3.3045,-28.4384 7.8271,-53.5251 10.0501,-55.7481 2.2536,-2.2535 35.7543,-3.5099 75.7121,-2.8393 l 71.6701,1.2026 1.2869,29.3098 1.2871,29.3098 -49.2871,1.2357 -49.2869,1.2356 -1.3257,13.622 c -1.3156,13.5199 -1.1503,13.6366 22.055,15.5609 29.5864,2.4536 61.4294,17.7226 74.1493,35.5553 8.4008,11.7774 9.8487,19.361 9.8487,51.5841 0,35.7589 -0.724,38.6714 -13.5563,54.5259 -21.5906,26.6759 -48.248,37.9506 -92.7942,39.2471 -20.7073,0.603 -45.8221,-0.849 -55.8107,-3.226 z m 106.7473,-19.7639 c 60.6538,-29.4665 65.1435,-105.7443 7.985,-135.6603 -7.5141,-3.9327 -26.4257,-8.2804 -42.0257,-9.6614 l -28.3636,-2.5109 -1.4125,-14.7857 c -0.777,-8.1321 -0.249,-19.423 1.1741,-25.0909 2.522,-10.0486 3.7799,-10.3053 50.5033,-10.3053 h 47.9169 v -19.753 -19.753 l -64.2422,1.2076 -64.2423,1.2075 -5.1791,39.2728 c -2.8485,21.6 -6.3696,48.3173 -7.8247,59.3719 l -2.6457,20.0991 34.3061,2.3514 c 51.2424,3.5122 70.5552,16.3513 70.5552,46.9048 0,18.2596 -6.3562,29.0952 -21.7309,37.0458 -14.2648,7.3766 -51.7313,8.6907 -73.0949,2.5637 -13.5764,-3.8936 -14.1855,-3.503 -18.4127,11.8067 -5.006,18.13 -2.4256,21.1449 21.6021,25.2406 8.4,1.4319 17.2364,3.3794 19.6364,4.328 10.9295,4.3195 54.5365,-3.6974 75.4952,-13.8794 z m 219.0502,-1.9019 v -22.0694 l 49.9002,-47.9712 c 57.0685,-54.8624 72.2924,-78.7946 63.5499,-99.901 -8.6193,-20.8086 -41.0289,-24.9907 -68.421,-8.829 -8.2404,4.8619 -16.9037,8.8399 -19.2518,8.8399 -5.0845,0 -21.4136,-36.5818 -21.4136,-47.9725 0,-5.1738 7.2825,-11.5626 20.7272,-18.1837 17.7997,-8.7657 27.2958,-10.2075 67.2314,-10.2075 45.3612,0 46.9161,0.329 63.2727,13.4012 25.1459,20.0961 32.8021,37.8178 30.9716,71.6897 -1.9738,36.5222 -11.6214,55.8779 -46.034,92.3571 l -27.8046,29.4744 38.5451,1.2661 38.5451,1.2661 1.2903,29.4545 1.2903,29.4546 h -96.1994 -96.1994 z m 183.2728,-6.2944 v -19.6363 h -45.8182 c -56.4251,0 -57.349,-2.3677 -16.1068,-41.2735 44.8916,-42.3484 62.6502,-80.7134 53.3495,-115.2539 -9.3312,-34.653 -42.1459,-57.2908 -83.0462,-57.2908 -18.6958,0 -55.6409,10.3147 -67.1881,18.7582 -7.239,5.2933 -7.516,7.5821 -2.5726,21.253 l 5.5401,15.3208 16.6194,-8.0297 c 41.4203,-20.0121 82.4956,-4.473 82.4956,31.2086 0,32.0183 -16.9092,55.1318 -90.5455,123.7691 -21.3794,19.928 -27.2727,28.1644 -27.2727,38.116 v 12.6949 h 87.2727 87.2728 z m -772.111,-21.5136 c -2.8487,-3.4325 -4.5618,-13.7416 -3.807,-22.9091 l 1.3725,-16.6682 108,-1.1671 108,-1.1672 v 21.4276 c 0,15.5137 -1.905,22.1586 -6.9024,24.0762 -3.7963,1.4568 -50.6831,2.6487 -104.1929,2.6487 -79.0473,0 -98.2619,-1.1703 -102.4702,-6.2409 z m 200.4746,-19.9409 v -13.0909 h -96 -96 v 13.0909 13.0909 h 96 96 z m -203.1473,-67.0318 c -1.4438,-5.7525 -1.9809,-16.0964 -1.1935,-22.9864 l 1.4317,-12.5273 h 106.9091 106.9091 v 21.8182 21.8182 l -105.7157,1.1683 -105.7156,1.1682 z m 203.1473,-15.9624 v -13.176 l -94.9091,1.176 -94.9091,1.176 -1.3808,12 -1.3807,12 h 96.2898 96.2899 z m -246.5455,-325.1317 c -9.6,-3.4585 -17.9454,-6.3177 -18.5454,-6.3539 -3.1559,-0.19 0.117,-30.4823 4.7213,-43.702 5.8224,-16.716 6.2352,-16.7817 42.091,-6.6991 28.9492,8.1404 49.7102,5.0265 60.8421,-9.1255 16.8706,-21.4474 0.346,-39.0468 -41.5495,-44.2526 l -25.7413,-3.1984 -1.3087,-25.0895 -1.3087,-25.0895 h 17.0212 c 33.3507,0 57.1817,-15.1768 50.632,-32.245 -5.3117,-13.8419 -38.1439,-16.3633 -65.3039,-5.0151 -8.7625,3.6612 -17.6358,5.6036 -19.7185,4.3164 -2.0826,-1.2871 -6.7685,-12.3814 -10.4131,-24.6539 -4.9116,-16.539 -5.3702,-23.8271 -1.7723,-28.1624 13.1935,-15.8971 86.4182,-24.4548 122.7999,-14.3514 24.2041,6.7216 45.6074,30.0922 49.1413,53.6581 3.4512,23.0144 -8.9511,55.7828 -24.2022,63.9449 -9.5846,5.1296 -9.5719,5.1749 3.7161,13.2559 25.1545,15.2973 35.7795,45.3629 27.2392,77.079 -6.6565,24.7201 -20.1185,39.9852 -45.8146,51.9503 -18.5145,8.6212 -28.9853,10.2953 -63.6168,10.1709 -24.7375,-0.09 -48.4933,-2.6848 -58.9091,-6.4372 z m 114.1541,-14.9253 c 26.4845,-11.3933 41.2299,-29.833 44.0806,-55.1244 2.7655,-24.5349 -10.396,-46.5368 -34.0921,-56.9915 -18.4045,-8.12 -22.2604,-16.8311 -9.2745,-20.9527 4.3774,-1.3894 13.7047,-8.5233 20.7272,-15.8533 17.3658,-18.126 18.2408,-49.8306 1.8593,-67.3627 -22.3344,-23.903 -54.6898,-32.0328 -94.7121,-23.798 -38.7317,7.9692 -44.31,12.1491 -39.6322,29.6967 3.0559,11.4631 5.4601,13.8747 11.295,11.3298 4.0771,-1.7782 20.5422,-4.1278 36.5891,-5.2214 26.836,-1.8289 30.0736,-1.091 40.3636,9.1991 14.5884,14.5884 14.1391,26.7584 -1.5678,42.4652 -10.748,10.7481 -16.2414,12.7553 -34.9091,12.7553 h -22.1538 v 17.4545 17.4546 h 24.3356 c 21.0792,0 26.0426,1.7068 37.0909,12.7552 25.3866,25.3865 11.642,61.6248 -25.6996,67.7584 -9.2484,1.5191 -26.8505,-0.193 -41.3944,-4.0262 -13.917,-3.6681 -26.1008,-6.6692 -27.075,-6.6692 -3.0893,0 -7.6925,30.8377 -5.0045,33.5258 1.4154,1.4154 12.9421,5.1998 25.6148,8.4099 30.1075,7.6265 66.0971,5.0088 93.559,-6.8051 z m 130.0236,13.4675 c -32.1933,-19.6321 -45.5966,-48.0469 -45.5652,-96.5981 0.02,-35.7956 13.9483,-67.7862 37.2397,-85.5514 13.857,-10.5692 21.3556,-12.7789 47.9174,-14.1202 18.3566,-0.927 35.3597,0.481 40.7691,3.376 9.203,4.9253 9.2795,4.5692 9.2795,-43.1873 v -48.1535 h 34.3319 34.3319 l 2.0723,142.9091 c 1.4591,100.6253 0.662,143.8576 -2.6955,146.115 -5.782,3.8878 -42.808,4.3758 -52.411,0.691 -3.7963,-1.4567 -6.9023,-6.5061 -6.9023,-11.2207 0,-7.9769 -0.502,-8.0706 -7.2226,-1.3495 -10.9857,10.9857 -25.7667,15.2205 -53.0615,15.2026 -16.4593,-0.01 -29.2745,-2.7407 -38.0837,-8.1128 z m 64.6898,-6.5413 c 7.7228,-3.2688 17.7823,-10.1416 22.3543,-15.2728 11.9079,-13.3646 20.0509,-11.837 20.0509,3.7614 0,12.8 0.485,13.0909 21.8182,13.0909 h 21.8182 v -135.2727 -135.2727 h -24 -24 v 49.9242 c 0,29.4633 -1.8374,51.0599 -4.4831,52.6951 -2.4658,1.5239 -13.3835,-1.5378 -24.2616,-6.8038 -53.7261,-26.0084 -109.0997,18.6831 -108.3612,87.4572 0.458,42.6524 16.7822,70.3347 49.963,84.7267 19.0436,8.2599 31.2994,8.5012 49.1013,0.967 z m -34.806,-43.8609 c -11.4354,-9.8363 -12.2433,-12.7393 -12.2433,-43.9943 0,-32.2779 0.505,-33.9139 14.2507,-46.196 26.7517,-23.9027 62.2311,-11.4369 68.9195,24.215 4.4767,23.8628 -1.1097,54.8886 -11.963,66.4415 -13.3142,14.1723 -42.2112,13.9438 -58.9639,-0.466 z m 54.2378,-16.1058 c 8.6958,-16.8646 6.875,-49.0074 -3.5251,-62.2289 -25.0346,-31.8264 -63.7435,6.1554 -51.7325,50.7608 7.7837,28.9065 42.546,36.121 55.2576,11.4681 z m 129.0065,69.8109 c -18.0711,-5.2261 -20.243,-9.3492 -16.8485,-31.9853 4.649,-31.0019 8.7286,-33.6767 39.2683,-25.7471 18.1699,4.7178 31.0687,5.6157 43.189,3.0064 21.5154,-4.632 35.8609,-21.8804 31.7664,-38.1945 -4.7001,-18.7265 -21.3047,-25.9582 -64.3251,-28.0151 l -38.7195,-1.8512 0.291,-18.0116 c 0.16,-9.9065 3.5965,-41.5754 7.6364,-70.3754 l 7.3453,-52.3636 h 76.3637 76.3636 l 1.2878,24.3932 c 0.872,16.5165 -0.618,25.9752 -4.6156,29.2926 -3.2868,2.7278 -26.1004,5.4548 -51.4697,6.1523 l -45.5661,1.2528 -1.3808,12 c -1.2672,11.0133 -0.158,12 13.4883,12 41.191,0 80.9069,23.2686 92.7799,54.3575 19.5118,51.0911 -10.3345,109.8725 -63.2525,124.5735 -19.0667,5.297 -84.6714,4.9901 -103.6019,-0.484 z m 93.9637,-10.6338 c 53.3704,-15.8493 81.1565,-68.6301 59.1685,-112.393 -13.4021,-26.6744 -32.5916,-37.2103 -75.8925,-41.6682 l -28.3637,-2.9201 0.897,-19.217 c 1.4766,-31.6454 0.163,-30.8871 53.5119,-30.8871 h 48.1369 v -19.6364 -19.6363 h -65.2568 -65.2568 l -2.381,14.1818 c -3.7878,22.5611 -11.1054,87.1797 -11.1054,98.0673 0,8.6584 2.2117,9.9327 17.2398,9.9327 27.3821,0 60.8401,8.7369 72.5979,18.9576 6.3104,5.4855 11.8987,16.1783 13.4072,25.6538 2.2871,14.3659 0.844,17.9905 -12.4577,31.2922 -19.1222,19.1222 -39.3565,23.2086 -73.5529,14.8545 l -25.8537,-6.316 -2.7826,14.8322 c -3.3363,17.7842 -0.326,21.3735 22.3864,26.69 26.5006,6.2032 50.5661,5.6337 75.5578,-1.788 z m -736.7479,-478.7218 c -0.03,-27.8667 13.2915,-248.99489 15.3853,-255.27269 1.2945,-3.8815 14.4748,-5.4546 45.7005,-5.4546 42.3965,0 44.0171,0.3571 47.8935,10.5528 8.04,21.1467 34.8094,118.69259 37.7741,137.64599 l 3.0456,19.4714 10.0445,-36.926 c 5.5245,-20.3093 16.5759,-57.54419 24.5587,-82.74419 l 14.5143,-45.8182 40.8897,-1.2639 c 22.4894,-0.6952 42.7914,0.6376 45.1155,2.9618 3.8754,3.8754 13.1767,131.79749 16.8511,231.75669 l 1.5238,41.4545 h -34.9091 -34.9091 l -3.8512,-82.5582 -3.8512,-82.5583 -25.1346,80.3765 -25.1345,80.3764 h -29.7625 -29.7625 l -20.6169,-76.3636 c -11.3392,-42 -20.7666,-75.3819 -20.9497,-74.1819 -0.183,1.2 -2.252,35.2331 -4.5976,75.6291 -2.3456,40.3959 -5.3792,75.2505 -6.7413,77.4545 -1.3622,2.204 -16.1063,4.0074 -32.7646,4.0074 h -30.2879 l -0.02,-18.5455 z m 58.6092,-80.7273 c 1.5464,-47.4 3.7968,-92.47429 5.0009,-100.16509 3.3652,-21.4942 13.6917,-13.2872 19.4429,15.45249 5.6199,28.0827 22.5851,93.4236 35.5908,137.0763 l 8.7755,29.4545 h 18.9815 18.9814 l 19.4916,-62.1818 c 10.7204,-34.2 24.1471,-77.8773 29.8372,-97.0606 7.1723,-24.18039 12.641,-35.32079 17.8292,-36.31989 6.7447,-1.299 7.4837,3.9092 7.4837,52.74529 0,29.8027 1.2802,75.1103 2.8449,100.6837 l 2.8449,46.497 h 23.2893 23.2893 l -2.2346,-38.1819 c -3.8686,-66.0989 -10.7611,-198.65169 -10.7611,-206.95159 0,-7.0398 -4.0383,-7.9575 -35.0171,-7.9575 -33.9819,0 -35.1488,0.3465 -39.4727,11.7191 -5.4303,14.2827 -37.2314,122.94339 -43.503,148.64459 -6.2951,25.7977 -15.4291,23.9312 -21.3533,-4.3637 -2.638,-12.6 -13.1099,-52.8433 -23.2707,-89.42949 l -18.4741,-66.5205 -35.6527,-0.026 -35.6527,-0.026 -2.4007,27.2728 c -1.3204,15 -4.5192,65.56359 -7.1084,112.36359 -2.5893,46.8 -5.811,91.4727 -7.1595,99.2727 l -2.4518,14.1819 h 24.0089 24.0088 l 2.8116,-86.1819 z m 280.0129,95.5829 c -1.7095,-2.766 -3.8821,-153.6079 -2.7595,-191.58289 0.253,-8.5399 59.5351,-7.496 62.8361,1.1065 2.1563,5.61899 4.5725,5.30819 16.8305,-2.1655 18.7942,-11.4588 56.7289,-11.7953 77.6537,-0.6888 27.5543,14.62529 33.9545,33.28819 36.1403,105.38419 1.055,34.8 0.96,69.7329 -0.211,77.6287 l -2.1296,14.356 -33.2974,-1.265 -33.2975,-1.2652 -2.1818,-63.7083 c -2.3284,-67.9887 -5.4671,-78.1099 -24.2226,-78.1099 -12.5988,0 -23.7111,10.7558 -23.9906,23.2208 -1.1007,49.092 -3.0975,114.8766 -3.5666,117.5065 -0.809,4.5342 -64.9878,4.1393 -67.8038,-0.4172 z m 58.4927,-69.8548 c 0,-58.122 0.413,-60.899 10.7007,-72 14.4616,-15.6043 36.2094,-15.7295 50.7205,-0.2919 9.9688,10.6052 10.6658,14.7569 12.0882,72 l 1.5093,60.7457 h 24.0388 24.0387 l -1.6048,-68.7273 c -1.3719,-58.7465 -2.8502,-70.8003 -10.1801,-83.0018 -8.9701,-14.9319 -37.366,-31.54369 -53.9201,-31.54369 -13.0808,0 -36.4029,10.10879 -43.7437,18.96049 -9.4242,11.3637 -22.3748,9.2293 -22.3748,-3.6877 0,-10.22269 -1.4125,-10.90909 -22.4492,-10.90909 h -22.4492 l 2.7819,29.45449 c 1.5299,16.2 2.7957,56.4546 2.8128,89.4546 l 0.03,60 h 24 24 z m 164.1353,66.726 c -1.4744,-3.8423 -2.6808,-13.7002 -2.6808,-21.9063 0,-12.8247 4.137,-18.7404 29.4546,-42.1193 71.8401,-66.3389 88.3195,-87.1065 88.3473,-111.3376 0.02,-18.99589 -13.1174,-31.63629 -32.8848,-31.63629 -8.4956,0 -23.1446,3.9272 -32.5534,8.7272 -24.3357,12.4152 -28.9056,11.1313 -37.1415,-10.4341 -10.1648,-26.6161 -7.5528,-33.7777 16.7058,-45.8057 43.1317,-21.3858 108.9372,-15.7228 135.1359,11.6292 40.4884,42.2709 31.1426,99.33979 -25.9536,158.48109 l -29.0875,30.1296 h 42.3698 42.3698 l -1.2903,29.4545 -1.2902,29.4545 -94.4102,1.1746 c -83.2337,1.0356 -94.7274,0.3478 -97.0909,-5.8114 z m 180.592,-25.9086 v -19.6364 h -45.8182 c -30.2765,0 -45.8182,-1.6202 -45.8182,-4.7765 0,-2.627 14.5795,-18.3921 32.399,-35.0335 64.9836,-60.6875 73.7113,-120.70019 23.016,-158.26059 -22.8923,-16.961 -89.5203,-14.5025 -119.6883,4.4165 -9.4337,5.9161 -9.5117,6.5537 -2.5815,21.0865 6.7881,14.2348 7.7131,14.6994 18.4551,9.2691 43.1981,-21.8378 87.6724,-5.397 87.6724,32.40969 0,23.8464 -17.5669,49.1686 -68.2041,98.3141 -39.2368,38.081 -49.6141,50.6306 -49.6141,60 v 11.8475 h 85.091 85.0909 z m 120.9233,30.0142 c -1.7079,-1.7078 -3.1051,-21.4324 -3.1051,-43.8324 v -40.7273 h -38.8059 c -41.4412,0 -44.1032,-1.4486 -44.1032,-24 0,-22.5513 2.662,-24 44.1032,-24 h 38.8059 v -38.7384 c 0,-45.01449 3.1014,-49.73999 31.3138,-47.71009 l 18.868,1.3576 1.247,42.38379 1.2469,42.3837 40.2076,1.2527 40.2076,1.2525 v 21.8182 21.8182 l -40.2076,1.2526 -40.2076,1.2526 -1.2469,42.3838 -1.247,42.3837 -21.9858,1.287 c -12.0922,0.7078 -23.3831,-0.1104 -25.0909,-1.8182 z m 37.0947,-50.7415 1.2547,-40.3636 40.3636,-1.2547 40.3637,-1.2546 v -12.9272 -12.9272 h -36.2182 c -22.3515,0 -38.223,-2.0048 -41.4546,-5.2363 -3.2793,-3.2794 -5.2363,-19.5879 -5.2363,-43.6364 v -38.39999 h -12.9329 -12.9329 l -1.2489,42.54549 -1.249,42.5454 -40.3636,1.2547 c -39.6418,1.2322 -40.3636,1.4468 -40.3636,12 0,9.7265 1.7583,10.7489 18.5454,10.7832 10.2,0.022 28.8546,1.2762 41.4546,2.7897 l 22.9091,2.7517 v 40.8467 40.8468 h 12.9271 12.9272 z m -2686.9845,1736.587 c -1.1809,-3.0773 -1.6101,-41.8591 -0.954,-86.1819 l 1.193,-80.5869 22.9091,-1.3189 22.9091,-1.319 v 28.7452 c 0,27.0674 0.4927,28.4816 8.4404,24.2281 15.7433,-8.4256 35.1034,-5.2811 48.2158,7.8313 13.9164,13.9165 19.1513,40.7536 16.7427,85.8333 l -1.3989,26.1819 -22.9091,1.3189 -22.9091,1.319 v -36.485 c 0,-41.2649 -6.6468,-57.6606 -19.1642,-47.2721 -5.4834,4.5508 -7.0176,14.2933 -7.0176,44.5625 v 38.7385 h -21.9552 c -13.8325,0 -22.7494,-2.07 -24.1021,-5.5949 z m 32.9663,-37.7574 c 0,-16.6438 1.9581,-35.4115 4.3513,-41.7061 3.8794,-10.2037 6.3446,-11.2991 22.7352,-10.1022 21.7009,1.5846 24.1657,6.8049 24.8422,52.6151 0.4255,28.8121 0.6861,29.4546 11.9493,29.4546 h 11.5144 l -2.1923,-38.4481 c -1.2057,-21.1465 -4.4802,-42.7233 -7.2766,-47.9485 -7.3006,-13.6413 -25.0334,-16.8227 -42.2097,-7.5726 -7.834,4.2188 -16.3744,6.3537 -18.9787,4.7442 -2.6685,-1.6492 -4.7351,-16.1454 -4.7351,-33.2144 0,-29.398 -0.3205,-30.2879 -10.9091,-30.2879 h -10.9091 v 76.3636 76.3637 h 10.9091 c 10.5877,0 10.9091,-0.892 10.9091,-30.2614 z m 551.5161,-76.3353 c -1.4124,-3.6809 8.6129,-44.5297 22.2786,-90.7752 13.6656,-46.2455 29.7313,-100.7736 35.7014,-121.1736 5.9701,-20.4 14.1446,-46.9091 18.1656,-58.9091 l 7.3108,-21.8182 22.9262,-1.3206 c 16.1008,-0.928 23.5935,0.418 25.1674,4.5196 1.2326,3.2122 -7.6735,39.1519 -19.7914,79.8661 -12.1178,40.7142 -28.042,94.644 -35.3871,119.844 -7.3451,25.2 -16.779,56.6182 -20.9642,69.8182 l -7.6094,24 -22.6148,1.3207 c -17.1627,1.0022 -23.2341,-0.293 -25.1831,-5.3719 z m 59.9096,-81.0397 c 11.8273,-39.6 27.5078,-92.6182 34.8456,-117.8182 7.3378,-25.2 16.0094,-54.1636 19.2702,-64.3636 l 5.9288,-18.5455 -13.9169,0.02 -13.917,0.02 -14.3041,49.0726 c -7.8672,26.9917 -20.1683,68.7107 -27.3358,92.7107 -7.1674,24 -17.8553,60.5089 -23.7509,81.1308 -5.8956,20.622 -12.0235,40.8935 -13.6177,45.0478 -2.4365,6.3495 -0.6521,7.3283 11.1975,6.1419 l 14.096,-1.4114 z m -815.9935,66.0823 c -4.4884,-3.0009 -5.2587,-9.429 -3.0242,-25.2362 5.209,-36.8495 4.5313,-36.0924 29.9617,-33.4703 18.5706,1.9148 24.714,0.73 33.6303,-6.4863 l 10.9091,-8.829 2.1818,-99.6666 2.1818,-99.6666 h 34.9091 34.9091 v 104.7272 c 0,97.676 -0.6261,106.0813 -9.2996,124.837 -5.1148,11.0603 -16.737,25.7876 -25.8271,32.7273 -15.3483,11.7173 -19.6664,12.7058 -60.5186,13.8538 -24.1951,0.68 -46.7011,-0.576 -50.0134,-2.7903 z m 93.8292,-17.5501 c 35.4575,-18.7352 40.9204,-40.1489 40.9204,-160.4005 v -84.4953 h -24 -24 v 89.8859 c 0,72.6443 -1.3142,92.6556 -6.8516,104.3247 -8.1832,17.2449 -25.7557,25.5235 -49.3924,23.2694 -16.0471,-1.5304 -17.4264,-0.764 -19.7758,10.9829 -1.3891,6.9454 -2.5256,15.1975 -2.5256,18.3381 0,13.1058 59.7313,11.7767 85.625,-1.9052 z m 471.2832,15.1103 c -24.9582,-9.243 -26.3297,-11.8243 -19.8061,-37.2779 7.5343,-29.397 11.8299,-32.4899 32.8367,-23.6426 24.1824,10.1848 59.8143,10.0495 71.2176,-0.271 9.1827,-8.3102 11.6019,-22.1871 5.5329,-31.7369 -5.4642,-8.5982 -34.165,-18.7146 -53.0946,-18.7146 h -17.5947 v -26.1818 -26.1818 l 14.1818,-0.03 c 39.8302,-0.07 64.8517,-18.8816 47.7963,-35.937 -10.6939,-10.6938 -36.2815,-11.2359 -60.1245,-1.2737 -9.1657,3.8297 -18.8664,6.1183 -21.557,5.0858 -2.6907,-1.0325 -7.4101,-13.1288 -10.4877,-26.8808 -6.4417,-28.7848 -6.4219,-28.8127 27.7104,-39.1683 25.7325,-7.8072 71.2788,-8.4923 94.8611,-1.4269 9.8364,2.9471 23.4129,12.1681 32.1426,21.8308 13.7006,15.1668 15.1134,19.1755 15.1134,42.8872 0,23.7291 -1.4075,27.7146 -15.166,42.9436 l -15.1659,16.7868 10.9514,5.8611 c 16.8578,9.022 29.079,32.3025 29.4376,56.0769 0.4386,29.0761 -12.4971,52.0187 -38.3989,68.1035 -19.4,12.0473 -24.5412,13.1349 -67.2412,14.2252 -31.9974,0.817 -51.4425,-0.748 -63.1452,-5.0819 z m 111.9337,-14.8963 c 23.143,-10.407 38.1648,-26.5253 42.1144,-45.1884 6.3406,-29.9613 -7.8114,-57.9192 -35.0237,-69.1909 -16.7995,-6.9586 -15.9695,-14.4612 2.8268,-25.5513 21.1394,-12.4726 30.7586,-35.6277 24.072,-57.9457 -12.266,-40.9402 -75.2584,-57.7499 -132.2534,-35.2923 -14.4854,5.7076 -16.0246,7.739 -13.6185,17.9741 3.908,16.6236 7.4204,18.9685 20.7958,13.8832 17.9972,-6.8425 55.9155,-5.5612 67.0919,2.2671 7.1816,5.0301 9.6983,11.1759 9.6983,23.6832 0,23.0904 -15.0306,34.9784 -44.2249,34.9784 h -21.2297 v 16.9301 16.9301 l 26.8401,1.9414 c 22.5245,1.6293 28.4883,3.8576 37.0909,13.8588 22.2934,25.9175 6.1888,60.7443 -30.4983,65.9537 -10.548,1.4978 -28.2174,-0.09 -42.1541,-3.7963 -13.1967,-3.5062 -24.5483,-5.8209 -25.2255,-5.1435 -0.6773,0.677 -2.9985,7.3927 -5.1582,14.9231 -3.2602,11.3676 -2.5408,14.4335 4.2376,18.0613 27.2735,14.5963 82.9868,14.9482 114.6185,0.724 z m 217.8491,15.8356 c -2.88,-2.88 -5.2364,-12.7514 -5.2364,-21.9364 0,-15.6084 3.3973,-19.9869 51.9683,-66.9784 28.5826,-27.6531 55.0917,-56.8602 58.9091,-64.9049 14.8636,-31.3225 3.2874,-54.7621 -27.0457,-54.7621 -9.0925,0 -24.2349,3.9273 -33.6499,8.7273 -23.5196,11.9909 -26.4058,11.2521 -34.4353,-8.8156 -11.847,-29.6087 -9.7448,-37.0637 13.708,-48.6133 27.866,-13.723 94.4519,-14.7679 120.3895,-1.8891 24.0968,11.9647 39.0481,36.7594 41.3492,68.5719 2.5869,35.7631 -14.6953,70.7439 -53.2337,107.7504 l -28.1132,26.9957 h 43.2587 43.2586 v 27.8967 c 0,21.4128 -1.6042,28.5124 -6.9023,30.5455 -13.7081,5.2603 -178.6944,2.9428 -184.2249,-2.5877 z m 178.0363,-27.4909 v -19.6364 h -45.8181 c -31.4155,0 -45.8182,-1.5653 -45.8182,-4.9797 0,-2.7388 15.2957,-19.9207 33.9906,-38.1818 36.039,-35.2031 48.915,-56.3877 52.2487,-85.9639 7.6025,-67.4489 -68.8794,-104.9678 -140.1394,-68.7468 -7.5549,3.8402 -14.4229,7.5826 -15.2621,8.3166 -0.839,0.734 0.704,8.0912 3.4295,16.3493 l 4.9553,15.0148 16.0386,-8.177 c 9.1707,-4.6754 25.13,-8.1769 37.2698,-8.1769 27.6179,0 46.7417,16.8944 46.7417,41.2927 0,26.609 -16.0032,50.2452 -68.0908,100.5678 -39.6085,38.2663 -49.7274,50.4755 -49.7274,60 v 11.9577 h 85.0909 85.0909 z m -765.091,-18.1818 c -1.6,-1.6 -2.909,-12.4 -2.909,-24 v -21.0909 h 106.909 106.9091 v 24 24 h -103.9999 c -57.2001,0 -105.3092,-1.3091 -106.9092,-2.9091 z m 202.1819,-21.0909 v -10.9091 h -96 -96 v 10.9091 10.9091 h 96 96 z m -204.2281,-81.8182 1.319,-22.9091 105.8182,-1.1685 105.8181,-1.1685 v 24.0776 24.0776 h -107.1371 -107.1371 z m 204.2281,-1.0909 v -10.9091 h -96 -96 v 10.9091 10.9091 h 96 96 z m 4.341,-339.0892 c -0.012,-53.501 -1.2904,-116.4199 -2.8399,-139.8199 l -2.8174,-42.5455 h 33.3854 c 31.693,0 33.3888,0.498 33.4522,9.8182 0.039,5.6853 1.4164,7.7784 3.2728,4.9725 7.0163,-10.6051 32.038,-19.1543 56.0603,-19.1543 33.6735,0 56.976,13.6991 72.8198,42.8093 10.1462,18.6419 11.7803,26.7309 11.7803,58.3112 0,29.3653 -1.9551,40.5312 -9.8181,56.0739 -20.2677,40.0626 -65.4852,60.1083 -105.7135,46.8646 l -19.4407,-6.4002 -1.2411,41.8979 -1.2411,41.8978 -33.8182,1.2745 -33.8182,1.2745 -0.022,-97.2745 z m 56.7499,37.9983 c 0,-32.3893 1.5146,-45.8182 5.1678,-45.8182 2.8422,0 13.7176,4.1389 24.1674,9.1976 53.168,25.7382 108.3466,-19.0489 107.9579,-87.6266 -0.2588,-45.6538 -21.0788,-76.6189 -59.1949,-88.0387 -13.7973,-4.1338 -20.0843,-3.7247 -35.9656,2.3404 -10.5851,4.0425 -22.7359,11.2067 -27.0018,15.9205 -11.0069,12.1624 -18.3483,10.6314 -21.6763,-4.5205 -2.6658,-12.1376 -4.2799,-13.0909 -22.1649,-13.0909 h -19.2896 v 128.7273 128.7272 h 24 24 z m 16.4064,-73.5133 c -20.7182,-19.2011 -20.9824,-75.8398 -0.4437,-95.1349 14.8341,-13.9359 40.742,-13.721 55.8404,0.463 23.314,21.9024 24.3538,70.5177 1.9867,92.8848 -15.8491,15.849 -41.3532,16.6432 -57.3834,1.787 z m 48.5794,-12.0798 c 28.6301,-30.7308 2.9511,-93.2919 -31.7946,-77.4607 -13.3569,6.0858 -20.1003,21.1333 -20.1003,44.8524 0,35.755 30.8839,55.161 51.8949,32.6083 z m -685.8922,124.3231 c -1.7015,-1.7015 -3.0936,-27.2744 -3.0936,-56.8287 v -53.7351 l 11.4265,-2.8679 c 19.5679,-4.9112 32.5336,-40.6496 35.921,-99.0119 l 2.8343,-48.8319 h 80.7273 80.7272 l 1.1944,72.6438 1.1944,72.6439 11.4477,2.8732 11.4477,2.8732 -2.8013,42.3011 c -1.5408,23.2656 -2.8115,48.683 -2.8239,56.483 l -0.023,14.1818 h -28.3637 -28.3636 v -30.5454 -30.5455 h -56.5279 -56.5279 l -1.2899,29.4545 -1.2903,29.4546 -26.3608,1.2754 c -14.4985,0.701 -27.7531,-0.117 -29.4546,-1.8181 z m 44.9064,-34.0095 c 0,-39.2433 -3.3429,-37.4478 69.7212,-37.4478 h 64.4238 l 3.0099,30.5454 3.0099,30.5455 h 17.1903 17.1903 v -45.5147 c 0,-43.8781 -0.353,-45.5648 -9.8182,-46.9091 -9.68,-1.3747 -9.835,-2.4231 -11.0146,-74.4853 l -1.1964,-73.0909 h -69.086 -69.086 l -2.3312,45.6772 c -1.9858,38.9083 -4.308,49.9014 -15.6702,74.1819 -10.0639,21.5062 -15.5378,28.5045 -22.2954,28.5045 -8.4643,0 -8.9565,2.5182 -8.9565,45.8182 v 45.8182 h 17.4545 17.4546 z m 34.9091,-76.0111 c 0,-4.604 3.1999,-15.9744 7.111,-25.2675 3.9111,-9.293 8.3293,-31.6238 9.8182,-49.6238 l 2.7071,-32.7272 17.0386,-1.3946 c 9.3712,-0.767 21.7022,-0.224 27.4022,1.2065 10.3131,2.5885 10.3577,2.8721 9.1433,58.1219 l -1.2204,55.5207 -36,1.2674 c -33.0204,1.1625 -36,0.575 -36,-7.1034 z m 61.0909,-50.8913 v -45.8181 h -14.6702 -14.6701 l -2.9483,28.7769 c -1.6215,15.8273 -5.5903,36.4455 -8.8195,45.8182 l -5.8711,17.0412 h 23.4896 23.4896 z m 126.5454,103.3611 -15.2727,-2.9974 -1.1733,-99.4506 -1.1733,-99.4505 36.0824,1.2687 36.0824,1.2687 1.3087,25.091 1.3086,25.0909 29.2368,0.1 c 35.6365,0.117 60.8216,10.4702 75.4867,31.032 8.3443,11.6996 10.4774,20.1775 10.4774,41.6431 0,33.7535 -8.7244,46.9926 -42.0421,63.7978 -20.8073,10.495 -30.562,12.4434 -69.6232,13.9064 -24.9841,0.936 -52.2984,0.352 -60.6984,-1.2961 z m 113.4546,-18.7006 c 35.8386,-12.7587 52.3622,-38.2215 46.1818,-71.1659 -5.707,-30.421 -34.0057,-47.2103 -80.9823,-48.046 l -32.8359,-0.584 -1.2991,-27.1596 -1.2992,-27.1595 h -23.7917 -23.7918 v 89.1511 c 0,88.898 0.028,89.1572 9.8182,91.3304 16.9124,3.7541 92.006,-0.673 108,-6.3665 z m -68.9109,-55.2059 1.2745,-33.8182 24.7358,0.09 c 31.158,0.117 42.9006,9.1482 42.9006,32.9935 0,23.3427 -15.1125,34.5495 -46.5902,34.5495 h -23.5951 z m 47.3796,16.2101 c 5.3961,-2.8879 8.4404,-9.128 8.4404,-17.301 0,-14.6769 -9.904,-21.8182 -30.2586,-21.8182 -13.1443,0 -13.3778,0.381 -13.3778,21.8182 0,21.4373 0.2335,21.8182 13.3778,21.8182 7.3578,0 17.1759,-2.0327 21.8182,-4.5172 z m 672.6115,51.9625 c -33.1184,-16.3933 -44.928,-56.0969 -27.0875,-91.0673 12.1347,-23.786 39.7744,-39.162 77.3514,-43.0307 27.6328,-2.845 28.8816,-3.4249 19.1079,-8.8729 -10.1465,-5.6559 -23.7327,-5.2261 -62.531,1.9783 -14.868,2.7608 -16.6435,2.0132 -20.7273,-8.728 -2.4565,-6.4611 -4.4664,-17.4556 -4.4664,-24.4323 0,-11.6472 1.9977,-13.2657 24.4164,-19.783 34.5024,-10.0302 92.6557,-7.3978 109.1791,4.942 31.139,23.2549 36.3402,41.7243 36.4822,129.5486 l 0.104,64.3636 h -30.6823 c -22.4532,0 -31.319,-1.6589 -33.0559,-6.185 -1.9811,-5.1628 -5.3842,-4.818 -20.5903,2.086 -23.8632,10.8346 -44.4617,10.5845 -67.5004,-0.819 z m 67.0894,-14.6998 c 25.9219,-13.151 26.7004,-13.2077 30.1941,-2.2001 2.2211,6.9981 6.6023,8.7273 22.1122,8.7273 h 19.3423 v -62.3481 c 0,-56.0543 -0.991,-64.2881 -9.8181,-81.5654 -12.5667,-24.5969 -35.2833,-36.8536 -68.6527,-37.0417 -31.6835,-0.179 -65.5506,9.6391 -65.4624,18.9768 0.144,15.1736 5.4022,17.241 32.1142,12.6255 32.125,-5.5507 57.2126,0.669 60.9918,15.1204 3.3716,12.8929 1.3299,14.1181 -33.8348,20.3041 -50.0871,8.8112 -72.0687,25.7361 -75.3553,58.0203 -2.3723,23.3038 9.7766,44.8867 30.2851,53.8022 20.4334,8.883 33.8766,7.8597 58.0836,-4.4213 z m -34.5841,-27.6346 c -10.0841,-11.1427 -9.1839,-33.4885 1.7597,-43.684 4.9399,-4.6022 16.2308,-9.5661 25.0909,-11.0311 31.0237,-5.1293 31.3821,-4.9094 31.3821,19.257 0,17.5574 -2.1693,24.1859 -10.7107,32.7273 -13.116,13.1161 -36.8874,14.482 -47.522,2.7308 z m 37.5801,-12.7473 c 3.785,-4.2 8.3057,-13.3402 10.0461,-20.3116 3.1435,-12.5917 3.057,-12.6578 -13.1403,-10.0293 -8.9676,1.4552 -19.0749,4.9449 -22.4607,7.7549 -6.3605,5.2788 -8.3709,22.1894 -3.247,27.3133 5.5574,5.5574 21.9596,2.8653 28.8019,-4.7273 z m -648.2709,57.2584 c -1.6921,-1.6922 -3.0765,-47.0105 -3.0765,-100.7076 v -97.631 l 36,1.2674 36,1.2673 v 98.1819 98.1818 l -32.9235,1.2583 c -18.1079,0.692 -34.3079,-0.126 -36,-1.8181 z m 58.0144,-99.8039 v -89.4545 h -24 -24 v 89.4545 89.4546 h 24 24 z m 286.5455,99.6364 c -1.6001,-1.6 -2.9091,-46.843 -2.9091,-100.5401 v -97.631 l 36,1.2674 36,1.2673 2.1818,29.3219 2.1818,29.3218 19.6364,-30.3661 19.6363,-30.3661 40.3637,-0.05 c 29.4593,-0.03 40.3368,1.4269 40.2641,5.4079 -0.05,3 -13.9187,20.8815 -30.8089,39.7365 l -30.7095,34.282 15.258,15.258 c 14.3305,14.3306 46.3599,83.0605 46.3599,99.481 0,5.2266 -6.7991,6.5153 -34.3748,6.5153 -38.3298,0 -39.0272,-0.439 -50.8184,-31.9574 -9.2458,-24.7151 -22.0011,-42.2244 -30.7599,-42.2244 -4.7957,0 -6.2287,6.9456 -6.2287,30.1885 0,44.06 0.056,43.9933 -36.8305,43.9933 -17.3432,0 -32.8423,-1.3091 -34.4422,-2.9091 z m 58.1818,-47.2727 c 0,-36.908 0.055,-37.0909 11.1959,-37.0909 24.1397,0 36.062,11.6576 50.2059,49.0909 l 9.4804,25.0909 h 23.9411 c 23.5791,0 23.8981,-0.171 21.1048,-11.3003 -6.7946,-27.0719 -31.2481,-69.6829 -44.851,-78.1543 -7.7075,-4.8 -14.0893,-11.4126 -14.1818,-14.6946 -0.093,-3.2821 13.7855,-21.4457 30.8398,-40.3636 l 31.0077,-34.3963 h -26.6175 -26.6175 l -24.4276,37.0909 c -16.4988,25.0517 -27.1303,37.0909 -32.754,37.0909 -7.5395,0 -8.3262,-3.5045 -8.3262,-37.0909 v -37.0909 h -24 -24 v 89.4545 89.4546 h 24 24 z m -349.091,-294.2359 c -138.2537,-25.6491 -243.2646,-117.7996 -281.7266,-247.2243 -15.533,-52.2683 -16.5563,-122.5709 -2.522,-173.2663 30.2593,-109.3047 113.2392,-193.1945 225.3395,-227.8105 l 30.5455,-9.4322 v -90.6933 -90.6933 l -32.2218,-8.1828 c -36.9887,-9.3934 -44.1418,-14.0044 -44.1418,-28.4545 0,-5.7084 17.865,-70.75889 39.7001,-144.55659 21.835,-73.7977 42.1441,-143.014 45.1313,-153.814 2.9873,-10.8 19.9768,-69.24465 37.7545,-129.87702 24.7968,-84.57153 33.8472,-109.96366 38.8686,-109.05105 6.1818,1.12351 14.0076,24.75893 44.4346,134.2008 5.0043,18 13.5255,48.43637 18.9358,67.63637 12.9922,46.1056 50.4552,179.7555 67.2737,240 7.3701,26.4 16.3242,57.81819 19.8981,69.81819 12.6816,42.5815 12.852,48.7109 1.5587,56.0975 -5.6555,3.699 -23.5372,8.0797 -39.7372,9.7347 l -29.4546,3.0093 v 92.2485 92.2485 l 25.0909,7.4532 c 30.7888,9.1459 83.3368,39.5104 111.6424,64.5119 48.8891,43.1824 88.8692,106.1842 107.8599,169.9691 13.5471,45.5011 13.7152,118.9295 0.3827,167.0902 -39.5659,142.9222 -160.439,235.4218 -314.7941,240.8997 -27.6,0.979 -59.0182,0.141 -69.8182,-1.8621 z m 144,-20.8229 c 111.3595,-29.8578 193.5188,-107.7167 227.0048,-215.1231 14.759,-47.3398 14.8415,-128.5792 0.175,-172.3636 -21.6196,-64.541 -59.7572,-121.3861 -109.6808,-163.4824 -27.5617,-23.2403 -77.0616,-50.6667 -107.3211,-59.4634 -12.709,-3.6946 -24.0994,-8.3228 -25.3121,-10.2849 -3.2571,-5.27 -42.6729,-9.3368 -92.1984,-9.5127 -138.4327,-0.4917 -264.6697,92.2937 -308.4664,226.7258 -13.8647,42.557 -13.6525,129.7056 0.4215,173.1085 12.5231,38.6202 36.8094,85.9154 57.1156,111.2273 8.6442,10.775 17.6803,22.0901 20.0803,25.1448 11.51,14.6497 60.3251,49.862 91.6364,66.1011 82.6508,42.8656 158.6928,51.4778 246.5454,27.9226 z m -16.4487,-724.5776 1.176,-94.9091 21.8182,-3.8103 c 48.6917,-8.5035 55.6153,-11.3031 53.3469,-21.5708 -1.1578,-5.2404 -19.2527,-70.40069 -40.211,-144.80069 -20.9582,-74.4 -46.8307,-166.6909 -57.4944,-205.09094 -10.6638,-38.4 -24.3393,-87.49091 -30.3901,-109.09091 -6.0508,-21.6 -12.0639,-43.69091 -13.3624,-49.09091 -3.9775,-16.5407 -8.4049,-11.17482 -18.0021,21.81818 -21.041,72.33391 -67.4247,231.03928 -79.3894,271.63638 -63.7717,216.38319 -60.8179,204.79159 -53.6062,210.36339 3.7534,2.8999 17.852,7.6377 31.3302,10.5284 43.0942,9.2424 39.7785,0.3622 39.7785,106.5344 v 93.6647 l 57.8182,0.3068 c 31.8,0.1684 61.7454,1.9943 66.5454,4.0569 19.5533,8.4024 19.4083,9.0383 20.6422,-90.5454 z"
       id="path5050"
       inkscape:connector-curvature="0" />
  </g>
  <g
     inkscape:groupmode="layer"
     id="layer2"
     inkscape:label="base"
     style="display:none"
     transform="translate(-2642.7545,-239.41374)">
    <g
       id="layer101"
       style="fill:#010101;stroke:none"
       transform="translate(1190.1711,763.65112)">
      <path
         d="M 0,1040 V 0 H 1970 3940 V 1040 2080 H 1970 0 Z"
         id="path2"
         inkscape:connector-curvature="0" />
    </g>
    <g
       id="layer102"
       style="fill:#a19462;stroke:none"
       transform="translate(1190.1711,763.65112)">
      <path
         d="m 0,1550 v -530 h 329 328 l 11,66 c 31,186 165,330 352,377 l 55,14 3,197 2,196 h 45 45 v -198 -198 l 58,-12 c 84,-17 157,-57 222,-121 64,-63 116,-158 125,-229 3,-26 8,-57 11,-70 l 4,-22 538,2 537,3 7,60 c 10,82 66,192 130,255 57,56 143,103 223,121 l 55,12 v 90 c 0,50 -3,87 -7,83 -4,-4 -24,-35 -43,-69 -25,-43 -43,-63 -59,-65 -27,-4 -51,14 -51,40 0,10 46,98 102,194 80,138 104,172 113,162 7,-7 56,-89 110,-182 86,-149 96,-171 86,-192 -7,-17 -19,-24 -39,-24 -24,0 -33,9 -66,65 -21,36 -42,68 -47,71 -5,3 -9,-33 -9,-83 v -88 l 57,-14 c 185,-43 324,-190 355,-373 l 11,-66 173,1 174,2 v 528 527 H 1970 0 Z"
         id="path5"
         inkscape:connector-curvature="0" />
      <path
         d="m 1013,1376 c -100,-33 -182,-102 -230,-196 -25,-49 -28,-65 -28,-155 0,-91 3,-105 29,-158 36,-71 108,-140 184,-175 50,-24 69,-27 157,-27 87,0 107,3 157,27 79,37 142,98 181,177 29,59 32,74 32,156 0,82 -3,97 -32,156 -64,130 -176,201 -323,206 -53,2 -101,-2 -127,-11 z"
         id="path7"
         inkscape:connector-curvature="0" />
      <path
         d="m 3025,1377 c -113,-38 -193,-105 -241,-203 -26,-52 -29,-70 -29,-149 0,-82 3,-97 32,-156 39,-79 102,-140 181,-177 50,-24 69,-27 162,-27 96,0 110,2 162,29 75,38 140,103 175,174 25,51 28,68 28,157 0,91 -3,105 -30,158 -38,75 -118,149 -193,178 -70,27 -190,34 -247,16 z"
         id="path9"
         inkscape:connector-curvature="0" />
      <path
         d="M 0,498 V 0 h 1970 1970 v 498 497 l -175,-3 -175,-3 -6,-27 C 3558,842 3515,764 3437,694 3375,639 3309,604 3232,586 l -57,-13 -3,-186 -2,-187 h -45 -45 v 190 190 h -23 c -45,0 -149,43 -207,86 -95,69 -158,172 -176,284 l -7,40 h -542 -542 l -7,-49 C 1555,783 1398,624 1227,588 l -57,-12 v -80 c 0,-44 3,-76 7,-72 4,4 24,35 43,69 25,43 43,63 59,65 28,4 51,-14 51,-42 0,-11 -47,-101 -104,-199 L 1122,139 1020,314 c -56,96 -104,184 -107,194 -5,22 21,52 46,52 22,0 40,-20 77,-87 16,-29 33,-53 37,-53 4,0 7,34 5,76 l -3,76 -76,22 c -90,26 -164,71 -221,135 -50,56 -99,157 -106,217 l -5,43 -333,3 -334,3 z"
         id="path11"
         inkscape:connector-curvature="0" />
    </g>
    <g
       id="layer103"
       style="fill:#ffd01e;stroke:none"
       transform="translate(1190.1711,763.65112)">
      <path
         d="m 0,1551 v -528 h 329 l 329,1 10,64 c 31,184 166,328 352,375 l 55,14 v 197 196 h 48 47 v -198 -198 l 58,-12 c 84,-17 157,-57 222,-121 64,-63 116,-158 125,-229 3,-26 8,-56 10,-68 l 5,-21 537,1 538,1 7,60 c 10,82 66,192 130,255 57,56 143,103 223,121 l 55,12 v 90 c 0,50 -3,87 -7,83 -4,-4 -24,-35 -43,-69 -25,-43 -43,-63 -59,-65 -27,-4 -51,14 -51,40 0,10 46,98 102,194 80,138 104,172 113,162 7,-7 56,-89 110,-182 86,-149 96,-171 86,-192 -7,-17 -19,-24 -39,-24 -24,0 -33,9 -66,65 -21,36 -42,68 -47,71 -5,3 -9,-33 -9,-83 v -88 l 57,-14 c 185,-43 324,-190 355,-373 l 11,-66 173,1 174,2 v 528 527 H 1970 0 Z"
         id="path14"
         inkscape:connector-curvature="0" />
      <path
         d="m 1013,1376 c -100,-33 -182,-102 -230,-196 -25,-49 -28,-65 -28,-155 0,-91 3,-105 29,-158 36,-71 108,-140 184,-175 50,-24 69,-27 157,-27 87,0 107,3 157,27 79,37 142,98 181,177 29,59 32,74 32,156 0,82 -3,97 -32,156 -64,130 -176,201 -323,206 -53,2 -101,-2 -127,-11 z"
         id="path16"
         inkscape:connector-curvature="0" />
      <path
         d="m 3025,1377 c -113,-38 -193,-105 -241,-203 -26,-52 -29,-70 -29,-149 0,-82 3,-97 32,-156 39,-79 102,-140 181,-177 50,-24 69,-27 162,-27 96,0 110,2 162,29 75,38 140,103 175,174 25,51 28,68 28,157 0,91 -3,105 -30,158 -38,75 -118,149 -193,178 -70,27 -190,34 -247,16 z"
         id="path18"
         inkscape:connector-curvature="0" />
      <path
         d="M 0,498 V 0 h 1970 1970 v 498 497 l -175,-3 -175,-3 -6,-27 C 3558,842 3515,764 3437,694 3375,639 3309,604 3232,586 l -57,-13 -3,-186 -2,-187 h -45 -45 v 190 190 h -23 c -45,0 -149,43 -207,86 -95,69 -158,172 -176,284 l -7,40 h -542 -542 l -7,-49 C 1555,783 1398,624 1227,588 l -57,-12 v -80 c 0,-44 3,-76 7,-72 4,4 24,35 43,69 37,64 66,81 96,57 24,-21 16,-52 -41,-149 -30,-51 -55,-95 -55,-96 0,-2 -22,-40 -49,-84 l -49,-80 -34,57 c -19,31 -68,114 -107,184 -77,134 -83,162 -35,174 32,8 47,-6 86,-77 18,-33 36,-59 41,-59 4,0 7,34 5,76 l -3,76 -76,22 c -90,26 -164,71 -221,135 -50,56 -99,157 -106,217 l -5,43 -333,3 -334,3 z"
         id="path20"
         inkscape:connector-curvature="0" />
    </g>
    <g
       id="layer104"
       style="fill:#ffdb51;stroke:none"
       transform="translate(1190.1711,763.65112)">
      <path
         d="m 0,1549 v -530 l 236,5 c 130,3 240,8 244,11 8,5 13,35 26,142 4,32 14,59 25,69 11,9 19,27 19,38 0,31 204,236 234,236 13,0 31,9 41,20 10,11 28,20 40,20 12,0 25,3 29,7 13,14 82,35 131,42 l 50,6 v 128 127 h 48 47 v -130 c 0,-108 3,-130 15,-130 13,0 65,-20 107,-41 10,-5 26,-9 36,-9 11,0 27,-9 37,-20 10,-11 28,-20 39,-20 31,0 202,-171 211,-209 3,-16 12,-35 20,-41 8,-6 17,-25 20,-41 4,-16 11,-31 16,-34 5,-4 9,-25 9,-48 0,-23 7,-60 14,-82 l 14,-40 h 479 478 l 7,60 c 10,82 66,192 130,255 57,56 143,103 223,121 l 55,12 v 90 c 0,50 -3,87 -7,83 -4,-4 -24,-35 -43,-69 -25,-43 -43,-63 -59,-65 -27,-4 -51,14 -51,40 0,10 46,98 102,194 80,138 104,172 113,162 7,-7 56,-89 110,-182 86,-149 96,-171 86,-192 -7,-17 -19,-24 -39,-24 -24,0 -33,9 -66,65 -21,36 -42,68 -47,71 -5,3 -9,-33 -9,-83 v -88 l 57,-14 c 185,-43 324,-190 355,-375 l 11,-69 81,7 c 45,3 123,6 174,6 h 92 v 525 525 H 1970 0 Z"
         id="path23"
         inkscape:connector-curvature="0" />
      <path
         d="m 1013,1376 c -100,-33 -182,-102 -230,-196 -25,-49 -28,-65 -28,-155 0,-91 3,-105 29,-158 36,-71 108,-140 184,-175 50,-24 69,-27 157,-27 87,0 107,3 157,27 79,37 142,98 181,177 29,59 32,74 32,156 0,82 -3,97 -32,156 -64,130 -176,201 -323,206 -53,2 -101,-2 -127,-11 z"
         id="path25"
         inkscape:connector-curvature="0" />
      <path
         d="m 3025,1377 c -113,-38 -193,-105 -241,-203 -26,-52 -29,-70 -29,-149 0,-82 3,-97 32,-156 39,-79 102,-140 181,-177 50,-24 69,-27 162,-27 96,0 110,2 162,29 75,38 140,103 175,174 25,51 28,68 28,157 0,91 -3,105 -30,158 -38,75 -118,149 -193,178 -70,27 -190,34 -247,16 z"
         id="path27"
         inkscape:connector-curvature="0" />
      <path
         d="M 0,495 V 0 h 1970 1970 v 495 495 h -175 -175 l -6,-27 C 3558,842 3515,764 3437,694 3375,639 3309,604 3232,586 l -57,-13 -3,-186 -2,-187 h -45 -45 v 190 190 h -23 c -45,0 -149,43 -207,86 -95,69 -158,172 -176,284 l -7,40 h -483 -484 v -41 c 0,-45 -14,-104 -36,-156 -8,-17 -14,-35 -14,-41 0,-5 -6,-15 -14,-21 -7,-6 -16,-24 -19,-39 -8,-38 -181,-212 -212,-212 -12,0 -30,-9 -40,-20 -10,-11 -28,-20 -39,-20 -16,0 -34,-19 -64,-64 -23,-35 -42,-67 -42,-69 0,-3 -22,-42 -49,-86 l -49,-81 -43,73 c -23,39 -58,98 -77,130 -20,35 -45,63 -61,69 -14,6 -35,14 -46,18 -11,5 -41,14 -67,20 -40,11 -64,29 -163,127 -79,79 -115,122 -115,137 0,13 -9,31 -20,41 -15,13 -20,31 -20,66 0,26 -4,51 -10,54 -6,3 -10,23 -10,43 -1,72 1,72 -259,72 H 0 Z"
         id="path29"
         inkscape:connector-curvature="0" />
    </g>
    <g
       id="layer105"
       style="fill:#bababa;stroke:none"
       transform="translate(1190.1711,763.65112)">
      <path
         d="m 0,1549 v -532 l 212,7 c 144,5 215,11 220,19 4,7 5,26 2,43 -4,21 3,52 20,96 14,35 26,71 26,80 0,8 9,23 20,33 11,10 20,28 20,39 0,14 38,59 108,127 116,116 200,166 297,181 28,4 73,11 100,15 l 50,8 v 103 102 h 48 47 v -103 -103 l 33,-12 c 18,-7 49,-12 69,-12 22,0 41,-7 53,-20 10,-11 28,-20 40,-20 12,0 30,-9 40,-20 10,-11 28,-20 39,-20 26,0 201,-174 211,-210 4,-14 17,-36 30,-50 13,-15 25,-44 29,-73 3,-26 15,-66 26,-89 12,-24 17,-50 14,-65 -13,-48 -15,-48 463,-48 h 448 l 7,60 c 10,82 66,192 130,255 57,56 143,103 223,121 l 55,12 v 90 c 0,50 -3,87 -7,83 -4,-4 -24,-35 -43,-69 -25,-43 -43,-63 -59,-65 -27,-4 -51,14 -51,40 0,10 46,98 102,194 80,138 104,172 113,162 7,-7 56,-89 110,-182 86,-149 96,-171 86,-192 -7,-17 -19,-24 -39,-24 -24,0 -33,9 -66,65 -21,36 -42,68 -47,71 -5,3 -9,-33 -9,-83 v -88 l 57,-14 c 185,-43 324,-190 355,-375 l 11,-69 81,7 c 45,3 123,6 174,6 h 92 v 525 525 H 1970 0 Z"
         id="path32"
         inkscape:connector-curvature="0" />
      <path
         d="m 1013,1376 c -100,-33 -182,-102 -230,-196 -25,-49 -28,-65 -28,-155 0,-91 3,-105 29,-158 36,-71 108,-140 184,-175 50,-24 69,-27 157,-27 87,0 107,3 157,27 79,37 142,98 181,177 29,59 32,74 32,156 0,82 -3,97 -32,156 -64,130 -176,201 -323,206 -53,2 -101,-2 -127,-11 z"
         id="path34"
         inkscape:connector-curvature="0" />
      <path
         d="m 3025,1377 c -113,-38 -193,-105 -241,-203 -26,-52 -29,-70 -29,-149 0,-82 3,-97 32,-156 39,-79 102,-140 181,-177 50,-24 69,-27 162,-27 96,0 110,2 162,29 75,38 140,103 175,174 25,51 28,68 28,157 0,91 -3,105 -30,158 -38,75 -118,149 -193,178 -70,27 -190,34 -247,16 z"
         id="path36"
         inkscape:connector-curvature="0" />
      <path
         d="M 0,495 V 0 h 1970 1970 v 495 495 h -175 -175 l -6,-27 C 3558,842 3515,764 3437,694 3375,639 3309,604 3232,586 l -57,-13 -3,-186 -2,-187 h -45 -45 v 190 190 h -23 c -45,0 -149,43 -207,86 -95,69 -158,172 -176,284 l -7,40 h -460 -460 l 6,-46 c 3,-33 -1,-56 -16,-87 -11,-23 -22,-63 -25,-89 -3,-29 -12,-54 -23,-64 -11,-9 -19,-27 -19,-38 0,-14 -38,-59 -107,-127 -111,-109 -199,-165 -281,-178 -27,-5 -39,-15 -59,-51 -14,-25 -42,-73 -63,-108 l -38,-63 -44,77 c -62,112 -96,144 -148,144 -27,0 -68,13 -118,36 -63,30 -96,56 -184,143 -70,68 -108,113 -108,127 0,11 -9,29 -20,39 -11,10 -20,26 -20,36 0,10 -12,43 -26,74 -19,39 -25,65 -21,88 3,18 3,45 0,60 l -5,27 H 214 0 Z"
         id="path38"
         inkscape:connector-curvature="0" />
    </g>
    <g
       id="layer106"
       style="fill:#c1c0c0;stroke:none"
       transform="translate(1190.1711,763.65112)">
      <path
         d="m 0,1555 v -525 l 88,-2 c 167,-3 337,4 344,16 4,6 5,25 2,42 -4,21 3,52 20,96 14,35 26,71 26,80 0,8 9,23 20,33 11,10 20,28 20,39 0,14 38,59 108,127 116,116 200,166 297,181 28,4 73,11 100,15 l 50,8 v 103 102 h 48 47 v -103 -103 l 33,-12 c 18,-7 49,-12 69,-12 22,0 41,-7 53,-20 10,-11 28,-20 40,-20 12,0 30,-9 40,-20 10,-11 28,-20 39,-20 26,0 201,-174 211,-210 4,-14 17,-36 30,-50 13,-15 25,-44 29,-73 3,-26 15,-66 26,-89 12,-24 17,-50 14,-65 -13,-48 -15,-48 462,-48 h 447 l 4,37 c 19,187 158,349 341,394 l 72,18 v 90 c 0,49 -3,86 -6,83 -8,-8 -19,-26 -52,-85 -31,-57 -53,-67 -86,-41 -28,22 -28,47 -1,79 7,8 23,35 37,60 13,25 31,56 40,70 18,28 57,96 88,153 23,43 32,41 61,-11 54,-99 86,-153 97,-164 7,-7 12,-15 12,-19 0,-5 16,-35 36,-69 37,-64 38,-92 4,-110 -10,-5 -25,-8 -32,-5 -13,5 -65,81 -80,116 -19,46 -28,27 -28,-59 v -90 l 48,-7 c 63,-9 168,-61 219,-108 80,-73 132,-176 149,-291 l 7,-49 81,7 c 44,3 123,6 174,6 h 92 v 525 525 H 1970 0 Z"
         id="path41"
         inkscape:connector-curvature="0" />
      <path
         d="m 1000,1328 c -74,-29 -150,-105 -178,-181 -64,-171 18,-365 181,-425 221,-83 447,71 447,303 0,233 -230,387 -450,303 z"
         id="path43"
         inkscape:connector-curvature="0" />
      <path
         d="m 3000,1328 c -74,-29 -150,-105 -178,-181 -83,-221 71,-447 303,-447 184,0 325,141 325,325 0,233 -230,387 -450,303 z"
         id="path45"
         inkscape:connector-curvature="0" />
      <path
         d="M 0,495 V 0 h 1970 1970 v 495 495 h -172 -173 l -23,-78 C 3519,736 3401,624 3228,585 l -53,-11 -3,-187 -2,-187 h -45 -45 v 184 184 l -72,22 c -122,36 -197,88 -260,178 -37,53 -78,156 -78,194 v 28 h -461 -462 l 6,-46 c 3,-33 -1,-56 -16,-87 -11,-23 -22,-63 -25,-89 -3,-29 -12,-54 -23,-64 -11,-9 -19,-27 -19,-38 0,-14 -38,-59 -107,-127 -111,-109 -199,-165 -281,-178 -27,-5 -39,-15 -59,-51 -14,-25 -42,-73 -63,-108 l -38,-63 -44,77 c -62,112 -96,144 -148,144 -27,0 -68,13 -118,36 -63,30 -96,56 -184,143 -70,68 -108,113 -108,127 0,11 -9,29 -20,39 -11,10 -20,26 -20,36 0,10 -12,43 -26,74 -19,39 -25,65 -21,88 3,18 3,45 0,60 l -5,27 H 214 0 Z"
         id="path47"
         inkscape:connector-curvature="0" />
    </g>
    <g
       id="layer107"
       style="fill:#ffe16f;stroke:none"
       transform="translate(1190.1711,763.65112)">
      <path
         d="m 0,1555 v -525 l 88,-2 c 167,-3 337,4 344,16 4,6 5,25 2,42 -4,21 3,52 20,96 14,35 26,71 26,80 0,8 9,23 20,33 11,10 20,28 20,39 0,14 38,59 108,127 116,116 200,166 297,181 28,4 73,11 100,15 l 50,8 v 103 102 h 48 47 v -103 -103 l 33,-12 c 18,-7 49,-12 69,-12 22,0 41,-7 53,-20 10,-11 28,-20 40,-20 12,0 30,-9 40,-20 10,-11 28,-20 39,-20 26,0 201,-174 211,-210 4,-14 17,-36 30,-50 13,-15 25,-44 29,-73 3,-26 15,-66 26,-89 12,-24 17,-50 14,-65 -13,-48 -15,-48 462,-48 h 447 l 4,49 c 6,67 63,191 114,248 23,25 63,60 88,76 48,32 156,72 191,72 19,0 20,6 20,92 0,50 -3,88 -6,85 -9,-9 -31,-46 -49,-84 -8,-18 -27,-40 -41,-49 -24,-17 -26,-16 -51,9 -29,29 -30,26 22,112 14,22 29,49 35,60 6,11 22,38 35,60 14,22 29,49 35,60 37,69 57,100 65,100 9,0 45,-56 90,-140 15,-27 33,-57 39,-65 6,-8 22,-35 35,-60 13,-25 31,-53 39,-62 18,-22 9,-64 -18,-78 -27,-15 -56,2 -75,43 -55,114 -65,116 -65,10 v -91 l 48,-7 c 26,-4 80,-23 119,-42 137,-68 232,-202 250,-353 2,-25 6,-46 7,-47 1,-1 79,1 174,4 l 172,6 v 524 523 H 1970 0 Z"
         id="path50"
         inkscape:connector-curvature="0" />
      <path
         d="m 1034,1277 c -116,-45 -180,-147 -172,-270 5,-73 26,-122 75,-170 56,-56 97,-72 188,-72 91,0 132,16 188,72 56,56 72,97 72,188 0,57 -5,90 -18,116 -24,47 -79,103 -126,125 -44,22 -164,28 -207,11 z"
         id="path52"
         inkscape:connector-curvature="0" />
      <path
         d="m 3034,1277 c -116,-45 -180,-147 -172,-270 5,-73 26,-122 75,-170 56,-56 97,-72 188,-72 91,0 132,16 188,72 56,56 72,97 72,188 0,57 -5,90 -18,116 -24,47 -79,103 -126,125 -44,22 -164,28 -207,11 z"
         id="path54"
         inkscape:connector-curvature="0" />
      <path
         d="M 0,495 V 0 h 1970 1970 v 495 495 h -173 -173 l -13,-52 C 3535,747 3395,613 3203,575 l -33,-7 V 384 200 h -45 -45 v 184 184 l -72,22 c -128,38 -215,102 -275,200 -25,40 -60,133 -65,170 l -3,25 -459,3 -459,2 6,-45 c 3,-34 -1,-57 -16,-88 -11,-23 -22,-63 -25,-89 -3,-29 -12,-54 -23,-64 -11,-9 -19,-27 -19,-38 0,-14 -38,-59 -107,-127 -111,-109 -199,-165 -281,-178 -27,-5 -39,-15 -59,-51 -14,-25 -42,-73 -63,-108 l -38,-63 -44,77 c -62,112 -96,144 -148,144 -27,0 -68,13 -118,36 -63,30 -96,56 -184,143 -70,68 -108,113 -108,127 0,11 -9,29 -20,39 -11,10 -20,26 -20,36 0,10 -12,43 -26,74 -19,39 -25,65 -21,88 3,18 3,45 0,60 l -5,27 H 214 0 Z"
         id="path56"
         inkscape:connector-curvature="0" />
    </g>
    <path
       style="fill:#cfcece;stroke:none"
       inkscape:connector-curvature="0"
       id="path59"
       d="m 1190.1711,2319.6511 v -523 l 108,-5 c 59,-3 137,-3 173,0 l 66,4 10,87 c 5,48 17,102 26,121 10,18 17,41 17,50 0,9 11,27 24,40 14,12 28,35 31,49 8,39 212,248 250,257 17,4 41,15 54,26 13,10 32,18 41,18 10,0 23,6 29,14 6,8 33,17 59,21 26,4 52,10 57,15 6,4 34,10 63,13 29,3 57,9 63,13 7,4 10,28 7,60 l -5,54 h 49 48 v -65 -65 h 34 c 19,0 37,-4 40,-9 3,-4 25,-11 48,-15 43,-7 120,-39 148,-61 8,-7 29,-15 45,-19 39,-9 241,-216 250,-256 3,-16 12,-34 19,-39 8,-6 19,-33 26,-59 6,-26 18,-59 26,-73 7,-15 18,-60 24,-100 6,-40 13,-75 15,-78 3,-2 188,-5 412,-5 l 406,-1 4,49 c 6,67 63,191 114,248 23,25 63,60 88,76 48,32 156,72 191,72 19,0 20,6 20,92 0,50 -3,88 -6,85 -9,-9 -31,-46 -49,-84 -8,-18 -27,-40 -41,-49 -24,-17 -26,-16 -51,9 -29,29 -30,26 22,112 14,22 29,49 35,60 6,11 22,38 35,60 14,22 29,49 35,60 37,69 57,100 65,100 9,0 45,-56 90,-140 15,-27 33,-57 39,-65 6,-8 22,-35 35,-60 13,-25 31,-53 39,-62 18,-22 9,-64 -18,-78 -27,-15 -56,2 -75,43 -55,114 -65,116 -65,10 v -91 l 48,-7 c 26,-4 80,-23 119,-42 137,-68 232,-202 250,-353 2,-25 6,-46 7,-47 1,-1 79,1 174,4 l 172,6 v 524 523 h -1970 -1970 z" />
    <path
       style="fill:#cfcece;stroke:none"
       inkscape:connector-curvature="0"
       id="path61"
       d="m 2224.1711,2040.6511 c -116,-45 -180,-147 -172,-270 5,-73 26,-122 75,-170 56,-56 97,-72 188,-72 91,0 132,16 188,72 56,56 72,97 72,188 0,57 -5,90 -18,116 -24,47 -79,103 -126,125 -44,22 -164,28 -207,11 z" />
    <path
       style="fill:#cfcece;stroke:none"
       inkscape:connector-curvature="0"
       id="path63"
       d="m 4224.1711,2040.6511 c -116,-45 -180,-147 -172,-270 5,-73 26,-122 75,-170 56,-56 97,-72 188,-72 91,0 132,16 188,72 56,56 72,97 72,188 0,57 -5,90 -18,116 -24,47 -79,103 -126,125 -44,22 -164,28 -207,11 z" />
    <path
       style="fill:#cfcece;stroke:none"
       inkscape:connector-curvature="0"
       id="path65"
       d="M 1190.1711,1258.6511 V 763.65112 h 1970 1970 v 494.99998 495 h -173 -173 l -13,-52 c -46,-191 -186,-325 -378,-363 l -33,-7 v -184 -183.99998 h -45 -45 v 183.99998 184 l -72,22 c -128,38 -215,102 -275,200 -25,40 -60,133 -65,170 l -3,25 -411,3 -411,2 -12,-82 c -7,-46 -18,-96 -26,-113 -7,-16 -18,-50 -25,-75 -7,-24 -21,-55 -31,-69 -10,-13 -19,-32 -19,-42 0,-27 -210,-236 -245,-245 -16,-4 -38,-16 -49,-26 -11,-10 -27,-18 -36,-18 -8,0 -24,-6 -35,-14 -11,-7 -40,-17 -65,-21 -24,-4 -53,-12 -65,-18 -11,-5 -27,-13 -35,-17 -8,-4 -29,-29.99998 -46,-57.99998 l -31,-52 -31,50 c -32,51.99998 -62,69.99998 -112,69.99998 -16,0 -31,4 -34,9 -3,5 -27,12 -53,16 -26,4 -56,13 -67,21 -11,8 -28,14 -36,14 -9,0 -25,8 -36,18 -11,10 -32,22 -48,26 -40,10 -256,229 -256,259 0,13 -11,33 -25,45 -14,12 -25,30 -25,40 0,11 -8,34 -17,53 -9,19 -22,78 -27,132 l -10,97 h -173 -173 z" />
    <g
       id="layer109"
       style="fill:#ffe991;stroke:none"
       transform="translate(1190.1711,763.65112)">
      <path
         d="m 0,1556 v -523 l 108,-5 c 59,-3 137,-3 173,0 l 66,4 10,87 c 5,48 17,102 26,121 10,18 17,41 17,50 0,9 11,27 24,40 14,12 28,35 31,49 8,39 212,248 250,257 17,4 41,15 54,26 13,10 32,18 41,18 10,0 23,6 29,14 6,8 33,17 59,21 26,4 52,10 57,15 6,4 34,10 63,13 29,3 57,9 63,13 7,4 10,28 7,60 l -5,54 h 49 48 v -65 -65 h 34 c 19,0 37,-4 40,-9 3,-4 25,-11 48,-15 43,-7 120,-39 148,-61 8,-7 29,-15 45,-19 39,-9 241,-216 250,-256 3,-16 12,-34 19,-39 8,-6 19,-33 26,-59 6,-26 18,-59 26,-73 7,-15 18,-60 24,-100 6,-40 13,-75 15,-78 3,-2 188,-5 411,-5 l 406,-1 4,45 c 6,70 63,195 114,251 49,53 144,119 172,119 9,0 20,4 23,10 3,5 28,12 55,16 l 50,7 v 88 c 0,49 -2,89 -5,89 -3,0 -12,-15 -20,-32 -32,-67 -47,-89 -71,-105 -24,-16 -26,-15 -52,10 -26,26 -26,27 -9,59 10,18 26,47 37,63 11,17 26,44 35,60 8,17 24,44 35,60 10,17 26,44 35,60 15,28 29,54 48,83 11,17 33,0 53,-42 7,-17 23,-44 34,-61 10,-16 26,-43 35,-60 8,-16 24,-43 35,-60 11,-16 25,-41 31,-55 6,-14 17,-33 26,-42 33,-37 -13,-101 -56,-78 -20,10 -35,33 -65,97 -28,58 -36,49 -36,-45 v -90 l 48,-7 c 26,-4 80,-23 119,-42 137,-68 232,-202 250,-353 2,-25 6,-46 7,-47 1,-1 79,1 174,4 l 172,6 v 524 523 H 1970 0 Z"
         id="path68"
         inkscape:connector-curvature="0" />
      <path
         d="m 1054,1181 c -155,-70 -124,-295 44,-327 78,-15 168,43 192,123 24,80 -13,162 -90,201 -54,27 -92,28 -146,3 z"
         id="path70"
         inkscape:connector-curvature="0" />
      <path
         d="m 3054,1181 c -155,-70 -124,-295 44,-327 78,-15 168,43 192,123 24,80 -13,162 -90,201 -54,27 -92,28 -146,3 z"
         id="path72"
         inkscape:connector-curvature="0" />
      <path
         d="M 0,495 V 0 h 1970 1970 v 495 495 h -174 -174 l -7,-42 C 3573,875 3512,760 3456,705 3393,644 3293,593 3203,575 l -33,-7 V 384 200 h -45 -45 v 184 183 l -47,12 c -27,7 -56,17 -65,22 -10,5 -23,9 -29,9 -19,0 -111,65 -145,102 -47,50 -94,120 -94,138 0,9 -4,20 -9,25 -6,6 -14,33 -18,60 l -8,50 -411,3 -411,2 -12,-82 c -7,-46 -18,-96 -26,-113 -7,-16 -18,-50 -25,-75 -7,-24 -21,-55 -31,-69 -10,-13 -19,-32 -19,-42 0,-27 -210,-236 -245,-245 -16,-4 -38,-16 -49,-26 -11,-10 -27,-18 -36,-18 -8,0 -24,-6 -35,-14 -11,-7 -40,-17 -65,-21 -24,-4 -53,-12 -65,-18 -11,-5 -27,-13 -35,-17 -8,-4 -29,-30 -46,-58 l -31,-52 -31,50 c -32,52 -62,70 -112,70 -16,0 -31,4 -34,9 -3,5 -27,12 -53,16 -26,4 -56,13 -67,21 -11,8 -28,14 -36,14 -9,0 -25,8 -36,18 -11,10 -32,22 -48,26 -40,10 -256,229 -256,259 0,13 -11,33 -25,45 -14,12 -25,30 -25,40 0,11 -8,34 -17,53 -9,19 -22,78 -27,132 l -10,97 H 173 0 Z"
         id="path74"
         inkscape:connector-curvature="0" />
    </g>
    <g
       id="layer110"
       style="fill:#ffefb1;stroke:none"
       transform="translate(1190.1711,763.65112)">
      <path
         d="m 0,1556 v -523 l 113,-5 c 61,-3 127,-3 145,-1 31,5 32,6 32,59 0,29 6,68 14,86 7,18 23,65 36,103 13,39 31,82 41,96 10,14 21,37 24,51 9,34 236,258 262,258 11,0 30,11 43,24 31,34 195,87 290,95 l 75,6 -1,33 c -2,32 -2,32 46,32 h 49 l 3,-37 3,-36 55,-2 c 30,-1 69,-9 87,-18 18,-9 38,-17 45,-17 7,0 24,-9 38,-20 14,-11 32,-20 41,-20 9,0 28,-9 42,-20 14,-11 33,-20 43,-20 26,0 223,-198 244,-245 10,-22 27,-49 37,-60 11,-12 22,-32 26,-45 3,-14 12,-43 21,-65 8,-22 15,-56 16,-75 0,-19 7,-46 15,-60 8,-14 14,-41 15,-62 v -36 l 113,-7 c 61,-3 233,-5 381,-3 l 268,3 4,45 c 6,70 63,195 114,251 49,53 144,119 172,119 9,0 20,4 23,10 3,5 28,12 55,16 l 50,7 v 88 c 0,49 -2,89 -5,89 -3,0 -12,-15 -20,-32 -32,-67 -47,-89 -71,-105 -24,-16 -26,-15 -52,10 -26,26 -26,27 -9,59 10,18 26,47 37,63 11,17 26,44 35,60 8,17 24,44 35,60 10,17 26,44 35,60 15,28 29,54 48,83 11,17 33,0 53,-42 7,-17 23,-44 34,-61 10,-16 26,-43 35,-60 8,-16 24,-43 35,-60 11,-16 25,-41 31,-55 6,-14 17,-33 26,-42 33,-37 -13,-101 -56,-78 -20,10 -35,33 -65,97 -28,58 -36,49 -36,-45 v -90 l 48,-7 c 26,-4 80,-23 119,-42 137,-68 232,-202 250,-353 2,-25 6,-46 7,-47 1,-1 79,1 174,4 l 172,6 v 524 523 H 1970 0 Z"
         id="path77"
         inkscape:connector-curvature="0" />
      <path
         d="m 1054,1181 c -155,-70 -124,-295 44,-327 78,-15 168,43 192,123 24,80 -13,162 -90,201 -54,27 -92,28 -146,3 z"
         id="path79"
         inkscape:connector-curvature="0" />
      <path
         d="m 3054,1181 c -155,-70 -124,-295 44,-327 78,-15 168,43 192,123 24,80 -13,162 -90,201 -54,27 -92,28 -146,3 z"
         id="path81"
         inkscape:connector-curvature="0" />
      <path
         d="M 0,495 V 0 h 1970 1970 v 495 495 h -174 -174 l -7,-42 C 3573,875 3512,760 3456,705 3393,644 3293,593 3203,575 l -33,-7 V 384 200 h -45 -45 v 184 183 l -47,12 c -27,7 -56,17 -65,22 -10,5 -23,9 -29,9 -19,0 -111,65 -145,102 -47,50 -94,120 -94,138 0,9 -4,20 -9,25 -6,6 -14,33 -18,60 l -8,50 -383,3 -382,2 v -47 c -1,-27 -7,-59 -15,-73 -8,-14 -15,-43 -15,-65 0,-22 -9,-60 -20,-84 -11,-24 -20,-51 -20,-60 0,-10 -11,-28 -24,-41 -14,-12 -28,-35 -31,-49 -8,-37 -210,-235 -254,-250 -19,-6 -40,-20 -48,-31 -8,-11 -42,-28 -76,-39 -34,-11 -80,-27 -102,-35 -22,-8 -63,-15 -91,-16 -48,0 -52,-2 -65,-31 -12,-30 -13,-30 -25,-13 -29,41 -35,44 -101,44 -63,0 -229,43 -273,71 -8,5 -31,16 -50,25 -48,22 -290,263 -290,289 0,12 -8,30 -18,41 -11,11 -22,31 -25,44 -3,14 -19,63 -36,110 -17,47 -31,106 -31,132 0,81 5,78 -151,78 H 0 Z"
         id="path83"
         inkscape:connector-curvature="0" />
    </g>
    <g
       id="layer111"
       style="fill:#e1e0e0;stroke:none"
       transform="translate(1190.1711,763.65112)">
      <path
         d="m 0,1555 v -525 l 85,-2 c 47,-1 97,-2 113,-2 26,-1 27,1 34,64 10,105 20,160 29,166 5,3 9,16 9,30 0,13 9,32 20,41 11,10 20,29 20,44 0,14 9,34 20,44 11,10 20,28 20,39 0,28 255,282 292,291 15,4 32,13 39,21 6,7 37,21 69,30 32,9 67,24 77,33 12,11 38,17 78,19 33,1 72,7 86,13 50,20 331,-7 376,-36 12,-8 31,-15 42,-15 11,0 23,-4 26,-10 3,-5 14,-10 25,-10 10,0 37,-16 60,-35 23,-19 50,-35 59,-35 23,0 241,-222 241,-245 0,-11 11,-30 24,-44 23,-25 62,-117 73,-171 3,-14 12,-41 21,-60 9,-19 18,-65 20,-102 l 4,-67 52,-6 c 28,-3 185,-5 350,-3 l 298,3 4,45 c 6,70 63,195 114,251 49,53 144,119 172,119 9,0 20,4 23,10 3,5 28,12 55,16 l 50,7 v 88 c 0,49 -2,89 -5,89 -3,0 -12,-15 -20,-32 -32,-67 -47,-89 -71,-105 -24,-16 -26,-15 -52,10 -26,26 -26,27 -9,59 10,18 26,47 37,63 11,17 26,44 35,60 8,17 24,44 35,60 10,17 26,44 35,60 15,28 29,54 48,83 11,17 33,0 53,-42 7,-17 23,-44 34,-61 10,-16 26,-43 35,-60 8,-16 24,-43 35,-60 11,-16 25,-41 31,-55 6,-14 17,-33 26,-42 33,-37 -13,-101 -56,-78 -20,10 -35,33 -65,97 -28,58 -36,49 -36,-45 v -90 l 48,-7 c 26,-4 80,-23 119,-42 137,-68 232,-202 250,-353 2,-25 6,-46 7,-47 1,-1 79,1 174,4 l 172,6 v 524 523 H 1970 0 Z"
         id="path86"
         inkscape:connector-curvature="0" />
      <path
         d="m 1054,1181 c -155,-70 -124,-295 44,-327 78,-15 168,43 192,123 24,80 -13,162 -90,201 -54,27 -92,28 -146,3 z"
         id="path88"
         inkscape:connector-curvature="0" />
      <path
         d="m 3054,1181 c -155,-70 -124,-295 44,-327 78,-15 168,43 192,123 24,80 -13,162 -90,201 -54,27 -92,28 -146,3 z"
         id="path90"
         inkscape:connector-curvature="0" />
      <path
         d="M 0,495 V 0 h 1970 1970 v 495 495 h -174 -174 l -7,-42 C 3573,875 3512,760 3456,705 3393,644 3293,593 3203,575 l -33,-7 V 384 200 h -45 -45 v 184 183 l -47,12 c -27,7 -56,17 -65,22 -10,5 -23,9 -29,9 -19,0 -111,65 -145,102 -47,50 -94,120 -94,138 0,9 -4,20 -9,25 -6,6 -14,33 -18,60 l -8,50 -352,3 -351,2 -4,-77 c -2,-47 -10,-91 -21,-112 -9,-19 -17,-53 -17,-77 0,-33 -5,-46 -20,-54 -13,-7 -20,-21 -20,-39 0,-16 -10,-37 -25,-51 -14,-13 -23,-31 -20,-40 6,-19 -248,-274 -285,-285 -13,-4 -36,-16 -50,-25 -14,-10 -47,-24 -75,-31 -27,-7 -57,-20 -65,-30 -11,-12 -38,-19 -90,-23 -156,-14 -305,-17 -324,-8 -12,5 -50,15 -86,21 -36,7 -77,21 -92,32 -15,10 -34,19 -41,19 -8,0 -25,9 -39,19 -13,11 -36,23 -50,26 -35,9 -288,266 -288,292 0,11 -7,26 -15,33 -8,7 -19,29 -25,50 -6,21 -17,41 -25,44 -8,3 -15,16 -15,29 0,13 -8,39 -17,58 -13,24 -19,64 -21,132 l -4,97 H 114 0 Z"
         id="path92"
         inkscape:connector-curvature="0" />
    </g>
    <path
       style="fill:#fff6d1;stroke:none"
       inkscape:connector-curvature="0"
       id="path95"
       d="m 1190.1711,2318.6511 v -525 l 85,-2 c 47,-1 97,-2 113,-2 26,-1 27,1 34,64 10,105 20,160 29,166 5,3 9,16 9,30 0,13 9,32 20,41 11,10 20,29 20,44 0,14 9,34 20,44 11,10 20,28 20,39 0,28 255,282 292,291 15,4 32,13 39,21 6,7 37,21 69,30 32,9 67,24 77,33 12,11 38,17 78,19 33,1 72,7 86,13 50,20 331,-7 376,-36 12,-8 31,-15 42,-15 11,0 23,-4 26,-10 3,-5 14,-10 25,-10 10,0 37,-16 60,-35 23,-19 50,-35 59,-35 23,0 241,-222 241,-245 0,-11 11,-30 24,-44 23,-25 62,-117 73,-171 3,-14 12,-41 21,-60 9,-19 18,-65 20,-102 l 4,-67 52,-6 c 28,-3 186,-5 351,-3 249,2 299,5 297,17 -3,16 17,117 28,140 4,9 16,34 26,56 48,101 201,214 312,231 24,4 46,12 48,19 3,6 4,45 2,86 l -3,74 -25,-40 c -13,-22 -30,-52 -36,-67 -18,-40 -51,-46 -82,-14 -26,25 -26,26 -9,58 36,68 80,144 93,159 8,8 14,20 14,25 0,5 15,32 32,59 18,28 39,63 46,79 10,23 15,26 27,16 8,-6 17,-21 20,-31 4,-11 22,-43 41,-72 19,-28 34,-55 34,-58 0,-4 16,-31 35,-60 19,-30 35,-57 35,-62 0,-5 9,-20 20,-34 25,-32 25,-54 1,-84 -16,-20 -22,-22 -45,-11 -14,6 -39,36 -57,67 -17,30 -35,52 -40,49 -5,-3 -9,-39 -9,-80 v -74 h 28 c 40,0 131,-33 182,-65 105,-66 193,-204 205,-320 4,-33 8,-61 9,-62 1,-1 79,1 174,4 l 172,6 v 524 523 h -1970 -1970 z" />
    <path
       style="fill:#fff6d1;stroke:none"
       inkscape:connector-curvature="0"
       id="path97"
       d="m 2290.1711,1809.6511 c -27,-33 18,-72 48,-42 13,13 14,20 6,34 -15,23 -38,26 -54,8 z" />
    <path
       style="fill:#fff6d1;stroke:none"
       inkscape:connector-curvature="0"
       id="path99"
       d="m 4290.1711,1809.6511 c -27,-33 18,-72 48,-42 13,13 14,20 6,34 -15,23 -38,26 -54,8 z" />
    <path
       style="fill:#fff6d1;stroke:none"
       inkscape:connector-curvature="0"
       id="path101"
       d="M 1190.1711,1258.6511 V 763.65112 h 1970 1970 v 494.99998 495 h -173 -173 l -12,-58 c -34,-166 -149,-284 -335,-346 -26,-9 -54,-16 -63,-16 -13,0 -15,-27 -13,-187 l 1,-187.99998 -46,-3 -46,-3 v 189.99998 190 l -55,11 c -116,24 -230,104 -296,207 -27,44 -50,106 -64,176 l -5,27 h -349 -349 l -4,-77 c -2,-47 -10,-91 -21,-112 -9,-19 -17,-53 -17,-77 0,-33 -5,-46 -20,-54 -13,-7 -20,-21 -20,-39 0,-16 -10,-37 -25,-51 -14,-13 -23,-31 -20,-40 6,-19 -248,-274 -285,-285 -13,-4 -36,-16 -50,-24.99998 -14,-10 -47,-24 -75,-31 -27,-7 -57,-20 -65,-30 -11,-12 -38,-19 -90,-23 -156,-14 -305,-17 -324,-8 -12,5 -50,15 -86,21 -36,7 -77,21 -92,32 -15,10 -34,19 -41,19 -8,0 -25,9 -39,19 -13,10.99998 -36,22.99998 -50,25.99998 -35,9 -288,266 -288,292 0,11 -7,26 -15,33 -8,7 -19,29 -25,50 -6,21 -17,41 -25,44 -8,3 -15,16 -15,29 0,13 -8,39 -17,58 -13,24 -19,64 -21,132 l -4,97 h -114 -114 z" />
    <g
       id="layer113"
       style="fill:#fffefe;stroke:none"
       transform="translate(1190.1711,763.65112)">
      <path
         d="m 0,1555 v -525 h 80 c 91,0 80,-14 100,129 15,109 59,242 110,333 47,83 248,294 290,305 14,3 41,20 61,38 20,18 53,35 75,39 21,4 53,14 69,21 53,23 97,35 131,35 18,0 35,4 38,9 9,14 157,22 219,11 193,-34 203,-36 289,-79 34,-17 67,-31 73,-31 7,0 20,-9 30,-20 10,-11 28,-20 40,-20 26,0 279,-252 290,-290 4,-14 16,-36 26,-49 11,-13 19,-32 19,-43 0,-11 6,-26 14,-33 19,-19 54,-156 69,-267 l 13,-93 h 314 c 263,0 315,2 312,14 -3,16 17,117 28,140 4,9 16,34 26,56 48,101 201,214 312,231 24,4 46,12 48,19 3,6 4,45 2,86 l -3,74 -25,-40 c -13,-22 -30,-52 -36,-67 -18,-40 -51,-46 -82,-14 -26,25 -26,26 -9,58 36,68 80,144 93,159 8,8 14,20 14,25 0,5 15,32 32,59 18,28 39,63 46,79 10,23 15,26 27,16 8,-6 17,-21 20,-31 4,-11 22,-43 41,-72 19,-28 34,-55 34,-58 0,-4 16,-31 35,-60 19,-30 35,-57 35,-62 0,-5 9,-20 20,-34 25,-32 25,-54 1,-84 -16,-20 -22,-22 -45,-11 -14,6 -39,36 -57,67 -17,30 -35,52 -40,49 -5,-3 -9,-39 -9,-80 v -74 h 28 c 40,0 131,-33 182,-65 105,-66 193,-204 205,-320 4,-33 8,-61 9,-62 1,-1 79,1 174,4 l 172,6 v 524 523 H 1970 0 Z"
         id="path104"
         inkscape:connector-curvature="0" />
      <path
         d="m 1100,1046 c -27,-33 18,-72 48,-42 13,13 14,20 6,34 -15,23 -38,26 -54,8 z"
         id="path106"
         inkscape:connector-curvature="0" />
      <path
         d="m 3100,1046 c -27,-33 18,-72 48,-42 13,13 14,20 6,34 -15,23 -38,26 -54,8 z"
         id="path108"
         inkscape:connector-curvature="0" />
      <path
         d="M 0,495 V 0 h 1970 1970 v 495 495 h -173 -173 l -12,-58 c -34,-166 -149,-284 -335,-346 -26,-9 -54,-16 -63,-16 -13,0 -15,-27 -13,-187 l 1,-188 -46,-3 -46,-3 v 190 190 l -55,11 c -116,24 -230,104 -296,207 -27,44 -50,106 -64,176 l -5,27 h -315 -315 v -37 c 0,-110 -42,-266 -107,-403 -41,-87 -56,-106 -171,-222 -78,-79 -134,-128 -146,-128 -11,0 -34,-13 -51,-29 -17,-17 -55,-36 -90,-46 -33,-9 -64,-20 -70,-24 -5,-5 -32,-14 -60,-21 -27,-7 -56,-17 -63,-23 -19,-15 -336,-15 -354,0 -8,7 -37,16 -64,19 -27,4 -56,13 -65,20 -9,8 -40,21 -70,30 -29,9 -64,25 -78,35 -13,10 -31,19 -41,19 -9,0 -76,60 -149,134 -124,127 -134,141 -180,238 -51,107 -86,224 -96,318 -3,30 -8,70 -11,88 l -5,32 H 80 0 Z"
         id="path110"
         inkscape:connector-curvature="0" />
    </g>
  </g>
  <g
     inkscape:groupmode="layer"
     id="layer4"
     inkscape:label="arrows"
     style="display:inline"
     transform="translate(-2642.7545,-239.41374)">
    <path
       inkscape:connector-curvature="0"
       id="path7464"
       d="M 3352.4806,953.42638 V 2101.3743"
       style="display:inline;fill:none;fill-opacity:1;stroke:#000000;stroke-width:120;stroke-linecap:butt;stroke-linejoin:miter;stroke-miterlimit:4;stroke-dasharray:none;stroke-opacity:1" />
    <path
       style="display:inline;fill:none;fill-opacity:1;stroke:#000000;stroke-width:120;stroke-linecap:butt;stroke-linejoin:miter;stroke-miterlimit:4;stroke-dasharray:none;stroke-opacity:1"
       d="M 5248.3302,2975.0328 V 463.81508"
       id="path8358"
       inkscape:connector-curvature="0" />
    <path
       inkscape:connector-curvature="0"
       id="path8592"
       d="M 5248.3302,3237.4 V 2822.6546"
       style="display:inline;fill:none;fill-opacity:1;stroke:#000000;stroke-width:77;stroke-linecap:butt;stroke-linejoin:miter;stroke-miterlimit:4;stroke-dasharray:none;stroke-opacity:1;marker-start:url(#marker8596)" />
    <path
       style="display:inline;fill:none;fill-opacity:1;stroke:#000000;stroke-width:77;stroke-linecap:butt;stroke-linejoin:miter;stroke-miterlimit:4;stroke-dasharray:none;stroke-opacity:1;marker-start:url(#marker8884)"
       d="M 3352.4806,689.17157 V 1187.6198"
       id="path8880"
       inkscape:connector-curvature="0" />
  </g>
  <g
     inkscape:groupmode="layer"
     id="layer6"
     inkscape:label="circles_back"
     transform="translate(-2642.7545,-239.41374)">
    <circle
       style="display:inline;opacity:1;fill:#ffffff;fill-opacity:1;stroke:none;stroke-width:50;stroke-linecap:round;stroke-linejoin:round;stroke-miterlimit:4;stroke-dasharray:none;stroke-dashoffset:0;stroke-opacity:1;paint-order:normal"
       id="circle9186"
       cx="3344.1614"
       cy="1594.8667"
       r="330.24762" />
    <circle
       r="912.42285"
       cy="1584.1892"
       cx="5260.7739"
       id="circle9188"
       style="display:inline;opacity:1;fill:#ffffff;fill-opacity:1;stroke:none;stroke-width:50;stroke-linecap:round;stroke-linejoin:round;stroke-miterlimit:4;stroke-dasharray:none;stroke-dashoffset:0;stroke-opacity:1;paint-order:normal" />
  </g>
  <g
     inkscape:groupmode="layer"
     id="layer3"
     inkscape:label="circles"
     style="display:inline"
     transform="translate(-2642.7545,-239.41374)">
    <circle
       r="330.24762"
       cy="1594.8667"
       cx="3344.1614"
       id="circle5218"
       style="display:inline;opacity:1;fill:url(#radialGradient7456);fill-opacity:1;stroke:#000000;stroke-width:50;stroke-linecap:round;stroke-linejoin:round;stroke-miterlimit:4;stroke-dasharray:none;stroke-dashoffset:0;stroke-opacity:1;paint-order:normal" />
    <circle
       style="display:inline;opacity:1;fill:url(#radialGradient9266);fill-opacity:1;fill-rule:nonzero;stroke:#000000;stroke-width:50;stroke-linecap:round;stroke-linejoin:round;stroke-miterlimit:4;stroke-dasharray:none;stroke-dashoffset:0;stroke-opacity:1;paint-order:normal"
       id="circle9108"
       cx="5260.7739"
       cy="1584.1892"
       r="912.42285" />
  </g>
  <g
     inkscape:groupmode="layer"
     id="layer5"
     inkscape:label="captions"
     style="display:inline"
     transform="translate(-2642.7545,-239.41374)">
    <text
       xml:space="preserve"
       style="font-style:normal;font-variant:normal;font-weight:normal;font-stretch:normal;font-size:360px;line-height:1.14999998;font-family:'Times New Roman';-inkscape-font-specification:'Times New Roman, ';letter-spacing:0px;word-spacing:0px;display:inline;fill:#000000;fill-opacity:1;stroke:none;stroke-width:10"
       x="3361.5771"
       y="2418.7649"
       id="text9123"><tspan
         sodipodi:role="line"
         id="tspan9121"
         x="3361.5771"
         y="2418.7649"
         style="font-style:normal;font-variant:normal;font-weight:normal;font-stretch:normal;font-size:360px;line-height:1.14999998;font-family:Arial;-inkscape-font-specification:Arial;text-align:center;text-anchor:middle;stroke-width:10"></tspan><tspan
         sodipodi:role="line"
         x="3361.5771"
         y="2837.4929"
         style="font-style:normal;font-variant:normal;font-weight:normal;font-stretch:normal;font-size:360px;line-height:1.14999998;font-family:Arial;-inkscape-font-specification:Arial;text-align:center;text-anchor:middle;stroke-width:10"
         id="tspan9125"
         dx="0 0 0"
         dy="0 0 -59">J<tspan
   style="font-style:normal;font-variant:normal;font-weight:normal;font-stretch:normal;font-size:220px;line-height:1.14999998;font-family:Arial;-inkscape-font-specification:Arial;text-align:center;baseline-shift:sub;text-anchor:middle"
   id="tspan9127"
   dx="0"
   dy="59">h</tspan>=3/2</tspan></text>
    <text
       id="text9147"
       y="1228.8265"
       x="5300.145"
       style="font-style:normal;font-variant:normal;font-weight:normal;font-stretch:normal;font-size:360px;line-height:1.25;font-family:'Times New Roman';-inkscape-font-specification:'Times New Roman, ';text-align:center;letter-spacing:0px;word-spacing:0px;text-anchor:middle;display:inline;fill:#000000;fill-opacity:1;stroke:none;stroke-width:10;stroke-miterlimit:4;stroke-dasharray:none;stroke-opacity:1"
       xml:space="preserve"><tspan
         style="font-style:normal;font-variant:normal;font-weight:bold;font-stretch:normal;font-size:360px;font-family:Arial;-inkscape-font-specification:'Arial Bold';text-align:center;text-anchor:middle;fill:#000000;fill-opacity:1;stroke:none;stroke-width:10;stroke-miterlimit:4;stroke-dasharray:none;stroke-opacity:1"
         y="1228.8265"
         x="5300.145"
         id="tspan9141"
         sodipodi:role="line">Mn<tspan
   style="font-size:220px;baseline-shift:super"
   id="tspan4638"
   dy="-20">2+</tspan></tspan><tspan
         style="font-style:normal;font-variant:normal;font-weight:bold;font-stretch:normal;font-size:360px;font-family:Arial;-inkscape-font-specification:'Arial Bold';text-align:center;text-anchor:middle;fill:#000000;fill-opacity:1;stroke:none;stroke-width:10;stroke-miterlimit:4;stroke-dasharray:none;stroke-opacity:1"
         y="1683.5547"
         x="5300.145"
         sodipodi:role="line"
         id="tspan9149">3d<tspan
   style="font-size:220px;baseline-shift:super"
   id="tspan4639"
   dy="-20">5</tspan></tspan><tspan
         dy="0 0 -59"
         dx="0 0 0"
         id="tspan9145"
         style="font-style:normal;font-variant:normal;font-weight:bold;font-stretch:normal;font-size:360px;font-family:Arial;-inkscape-font-specification:'Arial Bold';text-align:center;text-anchor:middle;fill:#000000;fill-opacity:1;stroke:none;stroke-width:10;stroke-miterlimit:4;stroke-dasharray:none;stroke-opacity:1"
         y="2138.2827"
         x="5300.145"
         sodipodi:role="line">J<tspan
   id="tspan9143"
   style="font-style:normal;font-variant:normal;font-weight:bold;font-stretch:normal;font-size:220px;font-family:Arial;-inkscape-font-specification:'Arial Bold';text-align:center;baseline-shift:sub;text-anchor:middle;fill:#000000;fill-opacity:1;stroke:none;stroke-width:10;stroke-miterlimit:4;stroke-dasharray:none;stroke-opacity:1">s</tspan>=5/2</tspan></text>
  </g>
</svg>
