<?xml version="1.0" encoding="UTF-8" standalone="no"?>
<!-- Created with Inkscape (http://www.inkscape.org/) -->

<svg
   xmlns:dc="http://purl.org/dc/elements/1.1/"
   xmlns:cc="http://creativecommons.org/ns#"
   xmlns:rdf="http://www.w3.org/1999/02/22-rdf-syntax-ns#"
   xmlns:svg="http://www.w3.org/2000/svg"
   xmlns="http://www.w3.org/2000/svg"
   xmlns:sodipodi="http://sodipodi.sourceforge.net/DTD/sodipodi-0.dtd"
   xmlns:inkscape="http://www.inkscape.org/namespaces/inkscape"
   width="84.657143mm"
   height="58.149067mm"
   viewBox="0 0 84.657143 58.149067"
   version="1.1"
   id="svg17828"
   inkscape:version="0.92.1 r15371"
   sodipodi:docname="Chapter4-img006.svg">
  <defs
     id="defs17822">
    <clipPath
       clipPathUnits="userSpaceOnUse"
       id="clipPath16123">
      <path
         d="M 38.268,735.064 H 278.241 V 570.233 H 38.268 Z"
         id="path16121"
         inkscape:connector-curvature="0" />
    </clipPath>
    <clipPath
       clipPathUnits="userSpaceOnUse"
       id="clipPath16195">
      <path
         d="M 38.268,735.064 H 278.241 V 570.233 H 38.268 Z"
         id="path16193"
         inkscape:connector-curvature="0" />
    </clipPath>
    <clipPath
       clipPathUnits="userSpaceOnUse"
       id="clipPath16499">
      <path
         d="M 38.268,735.064 H 278.241 V 570.233 H 38.268 Z"
         id="path16497"
         inkscape:connector-curvature="0" />
    </clipPath>
  </defs>
  <sodipodi:namedview
     id="base"
     pagecolor="#ffffff"
     bordercolor="#666666"
     borderopacity="1.0"
     inkscape:pageopacity="0.0"
     inkscape:pageshadow="2"
     inkscape:zoom="0.98994949"
     inkscape:cx="415.94094"
     inkscape:cy="-39.211672"
     inkscape:document-units="mm"
     inkscape:current-layer="layer1"
     showgrid="false"
     inkscape:window-width="1920"
     inkscape:window-height="1137"
     inkscape:window-x="-8"
     inkscape:window-y="-8"
     inkscape:window-maximized="1" />
  <metadata
     id="metadata17825">
    <rdf:RDF>
      <cc:Work
         rdf:about="">
        <dc:format>image/svg+xml</dc:format>
        <dc:type
           rdf:resource="http://purl.org/dc/dcmitype/StillImage" />
        <dc:title></dc:title>
      </cc:Work>
    </rdf:RDF>
  </metadata>
  <g
     inkscape:label="Layer 1"
     inkscape:groupmode="layer"
     id="layer1"
     transform="translate(-63.504764,-119.7588)">
    <g
       transform="matrix(0.35277777,0,0,-0.35277777,50.004664,379.07304)"
       id="g17354">
      <g
         transform="translate(77.308,595.629)"
         id="g16089">
        <path
           inkscape:connector-curvature="0"
           id="path16091"
           style="fill:none;stroke:#000000;stroke-width:0.5;stroke-linecap:round;stroke-linejoin:round;stroke-miterlimit:10;stroke-dasharray:none;stroke-opacity:1"
           d="M 0,0 V 2.538" />
        <g
           transform="translate(28.669)"
           id="g16093">
          <path
             inkscape:connector-curvature="0"
             id="path16095"
             style="fill:none;stroke:#000000;stroke-width:0.5;stroke-linecap:round;stroke-linejoin:round;stroke-miterlimit:10;stroke-dasharray:none;stroke-opacity:1"
             d="M 0,0 V 1.301" />
          <g
             transform="translate(28.669)"
             id="g16097">
            <path
               inkscape:connector-curvature="0"
               id="path16099"
               style="fill:none;stroke:#000000;stroke-width:0.5;stroke-linecap:round;stroke-linejoin:round;stroke-miterlimit:10;stroke-dasharray:none;stroke-opacity:1"
               d="M 0,0 V 2.538" />
            <g
               transform="translate(28.669)"
               id="g16101">
              <path
                 inkscape:connector-curvature="0"
                 id="path16103"
                 style="fill:none;stroke:#000000;stroke-width:0.5;stroke-linecap:round;stroke-linejoin:round;stroke-miterlimit:10;stroke-dasharray:none;stroke-opacity:1"
                 d="M 0,0 V 1.301" />
              <g
                 transform="translate(28.669)"
                 id="g16105">
                <path
                   inkscape:connector-curvature="0"
                   id="path16107"
                   style="fill:none;stroke:#000000;stroke-width:0.5;stroke-linecap:round;stroke-linejoin:round;stroke-miterlimit:10;stroke-dasharray:none;stroke-opacity:1"
                   d="M 0,0 V 2.538" />
                <g
                   transform="translate(28.671)"
                   id="g16109">
                  <path
                     inkscape:connector-curvature="0"
                     id="path16111"
                     style="fill:none;stroke:#000000;stroke-width:0.5;stroke-linecap:round;stroke-linejoin:round;stroke-miterlimit:10;stroke-dasharray:none;stroke-opacity:1"
                     d="M 0,0 V 1.301" />
                  <g
                     transform="translate(28.668)"
                     id="g16113">
                    <path
                       inkscape:connector-curvature="0"
                       id="path16115"
                       style="fill:none;stroke:#000000;stroke-width:0.5;stroke-linecap:round;stroke-linejoin:round;stroke-miterlimit:10;stroke-dasharray:none;stroke-opacity:1"
                       d="M 0,0 V 2.538" />
                  </g>
                </g>
              </g>
            </g>
          </g>
        </g>
      </g>
      <g
         id="g16117">
        <g
           clip-path="url(#clipPath16123)"
           id="g16119">
          <g
             transform="translate(277.991,595.629)"
             id="g16125">
            <path
               inkscape:connector-curvature="0"
               id="path16127"
               style="fill:none;stroke:#000000;stroke-width:0.5;stroke-linecap:round;stroke-linejoin:round;stroke-miterlimit:10;stroke-dasharray:none;stroke-opacity:1"
               d="M 0,0 V 1.301" />
            <g
               transform="translate(-200.683)"
               id="g16129">
              <path
                 inkscape:connector-curvature="0"
                 id="path16131"
                 style="fill:none;stroke:#000000;stroke-width:0.5;stroke-linecap:round;stroke-linejoin:round;stroke-miterlimit:10;stroke-dasharray:none;stroke-opacity:1"
                 d="M 0,0 H 200.683" />
            </g>
          </g>
        </g>
      </g>
      <g
         transform="translate(77.308,595.629)"
         id="g16133">
        <path
           inkscape:connector-curvature="0"
           id="path16135"
           style="fill:none;stroke:#000000;stroke-width:0.5;stroke-linecap:round;stroke-linejoin:round;stroke-miterlimit:10;stroke-dasharray:none;stroke-opacity:1"
           d="M 0,0 H 2.538" />
        <g
           transform="translate(0,22.725)"
           id="g16137">
          <path
             inkscape:connector-curvature="0"
             id="path16139"
             style="fill:none;stroke:#000000;stroke-width:0.5;stroke-linecap:round;stroke-linejoin:round;stroke-miterlimit:10;stroke-dasharray:none;stroke-opacity:1"
             d="M 0,0 H 1.3" />
          <g
             transform="translate(0,22.724)"
             id="g16141">
            <path
               inkscape:connector-curvature="0"
               id="path16143"
               style="fill:none;stroke:#000000;stroke-width:0.5;stroke-linecap:round;stroke-linejoin:round;stroke-miterlimit:10;stroke-dasharray:none;stroke-opacity:1"
               d="M 0,0 H 2.538" />
            <g
               transform="translate(0,22.662)"
               id="g16145">
              <path
                 inkscape:connector-curvature="0"
                 id="path16147"
                 style="fill:none;stroke:#000000;stroke-width:0.5;stroke-linecap:round;stroke-linejoin:round;stroke-miterlimit:10;stroke-dasharray:none;stroke-opacity:1"
                 d="M 0,0 H 1.3" />
              <g
                 transform="translate(0,22.724)"
                 id="g16149">
                <path
                   inkscape:connector-curvature="0"
                   id="path16151"
                   style="fill:none;stroke:#000000;stroke-width:0.5;stroke-linecap:round;stroke-linejoin:round;stroke-miterlimit:10;stroke-dasharray:none;stroke-opacity:1"
                   d="M 0,0 H 2.538" />
                <g
                   transform="translate(0,22.726)"
                   id="g16153">
                  <path
                     inkscape:connector-curvature="0"
                     id="path16155"
                     style="fill:none;stroke:#000000;stroke-width:0.5;stroke-linecap:round;stroke-linejoin:round;stroke-miterlimit:10;stroke-dasharray:none;stroke-opacity:1"
                     d="M 0,0 H 1.3" />
                  <g
                     transform="translate(0,22.724)"
                     id="g16157">
                    <path
                       inkscape:connector-curvature="0"
                       id="path16159"
                       style="fill:none;stroke:#000000;stroke-width:0.5;stroke-linecap:round;stroke-linejoin:round;stroke-miterlimit:10;stroke-dasharray:none;stroke-opacity:1"
                       d="M 0,0 H 2.538" />
                    <g
                       transform="translate(0,-136.286)"
                       id="g16161">
                      <path
                         inkscape:connector-curvature="0"
                         id="path16163"
                         style="fill:none;stroke:#000000;stroke-width:0.5;stroke-linecap:round;stroke-linejoin:round;stroke-miterlimit:10;stroke-dasharray:none;stroke-opacity:1"
                         d="m 0,0 v 136.286 0" />
                      <g
                         transform="translate(28.669,136.286)"
                         id="g16165">
                        <path
                           inkscape:connector-curvature="0"
                           id="path16167"
                           style="fill:none;stroke:#000000;stroke-width:0.5;stroke-linecap:round;stroke-linejoin:round;stroke-miterlimit:10;stroke-dasharray:none;stroke-opacity:1"
                           d="M 0,0 V 0" />
                        <g
                           transform="translate(28.669)"
                           id="g16169">
                          <path
                             inkscape:connector-curvature="0"
                             id="path16171"
                             style="fill:none;stroke:#000000;stroke-width:0.5;stroke-linecap:round;stroke-linejoin:round;stroke-miterlimit:10;stroke-dasharray:none;stroke-opacity:1"
                             d="M 0,0 V 0" />
                          <g
                             transform="translate(28.669)"
                             id="g16173">
                            <path
                               inkscape:connector-curvature="0"
                               id="path16175"
                               style="fill:none;stroke:#000000;stroke-width:0.5;stroke-linecap:round;stroke-linejoin:round;stroke-miterlimit:10;stroke-dasharray:none;stroke-opacity:1"
                               d="M 0,0 V 0" />
                            <g
                               transform="translate(28.669)"
                               id="g16177">
                              <path
                                 inkscape:connector-curvature="0"
                                 id="path16179"
                                 style="fill:none;stroke:#000000;stroke-width:0.5;stroke-linecap:round;stroke-linejoin:round;stroke-miterlimit:10;stroke-dasharray:none;stroke-opacity:1"
                                 d="M 0,0 V 0" />
                              <g
                                 transform="translate(28.671)"
                                 id="g16181">
                                <path
                                   inkscape:connector-curvature="0"
                                   id="path16183"
                                   style="fill:none;stroke:#000000;stroke-width:0.5;stroke-linecap:round;stroke-linejoin:round;stroke-miterlimit:10;stroke-dasharray:none;stroke-opacity:1"
                                   d="M 0,0 V 0" />
                                <g
                                   transform="translate(28.668)"
                                   id="g16185">
                                <path
                                   inkscape:connector-curvature="0"
                                   id="path16187"
                                   style="fill:none;stroke:#000000;stroke-width:0.5;stroke-linecap:round;stroke-linejoin:round;stroke-miterlimit:10;stroke-dasharray:none;stroke-opacity:1"
                                   d="M 0,0 V 0" />
                                </g>
                              </g>
                            </g>
                          </g>
                        </g>
                      </g>
                    </g>
                  </g>
                </g>
              </g>
            </g>
          </g>
        </g>
      </g>
      <g
         id="g16189">
        <g
           clip-path="url(#clipPath16195)"
           id="g16191">
          <g
             transform="translate(277.991,731.915)"
             id="g16197">
            <path
               inkscape:connector-curvature="0"
               id="path16199"
               style="fill:none;stroke:#000000;stroke-width:0.5;stroke-linecap:round;stroke-linejoin:round;stroke-miterlimit:10;stroke-dasharray:none;stroke-opacity:1"
               d="M 0,0 V 0" />
            <g
               transform="translate(-200.683)"
               id="g16201">
              <path
                 inkscape:connector-curvature="0"
                 id="path16203"
                 style="fill:none;stroke:#000000;stroke-width:0.5;stroke-linecap:round;stroke-linejoin:round;stroke-miterlimit:10;stroke-dasharray:none;stroke-opacity:1"
                 d="M 0,0 H 200.683" />
              <g
                 transform="translate(200.683,-136.286)"
                 id="g16205">
                <path
                   inkscape:connector-curvature="0"
                   id="path16207"
                   style="fill:none;stroke:#000000;stroke-width:0.5;stroke-linecap:round;stroke-linejoin:round;stroke-miterlimit:10;stroke-dasharray:none;stroke-opacity:1"
                   d="M 0,0 V 0" />
                <g
                   transform="translate(0,22.725)"
                   id="g16209">
                  <path
                     inkscape:connector-curvature="0"
                     id="path16211"
                     style="fill:none;stroke:#000000;stroke-width:0.5;stroke-linecap:round;stroke-linejoin:round;stroke-miterlimit:10;stroke-dasharray:none;stroke-opacity:1"
                     d="M 0,0 V 0" />
                  <g
                     transform="translate(0,22.724)"
                     id="g16213">
                    <path
                       inkscape:connector-curvature="0"
                       id="path16215"
                       style="fill:none;stroke:#000000;stroke-width:0.5;stroke-linecap:round;stroke-linejoin:round;stroke-miterlimit:10;stroke-dasharray:none;stroke-opacity:1"
                       d="M 0,0 V 0" />
                    <g
                       transform="translate(0,22.662)"
                       id="g16217">
                      <path
                         inkscape:connector-curvature="0"
                         id="path16219"
                         style="fill:none;stroke:#000000;stroke-width:0.5;stroke-linecap:round;stroke-linejoin:round;stroke-miterlimit:10;stroke-dasharray:none;stroke-opacity:1"
                         d="M 0,0 V 0" />
                      <g
                         transform="translate(0,22.724)"
                         id="g16221">
                        <path
                           inkscape:connector-curvature="0"
                           id="path16223"
                           style="fill:none;stroke:#000000;stroke-width:0.5;stroke-linecap:round;stroke-linejoin:round;stroke-miterlimit:10;stroke-dasharray:none;stroke-opacity:1"
                           d="M 0,0 V 0" />
                        <g
                           transform="translate(0,22.726)"
                           id="g16225">
                          <path
                             inkscape:connector-curvature="0"
                             id="path16227"
                             style="fill:none;stroke:#000000;stroke-width:0.5;stroke-linecap:round;stroke-linejoin:round;stroke-miterlimit:10;stroke-dasharray:none;stroke-opacity:1"
                             d="M 0,0 V 0" />
                          <g
                             transform="translate(0,22.724)"
                             id="g16229">
                            <path
                               inkscape:connector-curvature="0"
                               id="path16231"
                               style="fill:none;stroke:#000000;stroke-width:0.5;stroke-linecap:round;stroke-linejoin:round;stroke-miterlimit:10;stroke-dasharray:none;stroke-opacity:1"
                               d="M 0,0 V 0" />
                            <g
                               transform="translate(0,-136.286)"
                               id="g16233">
                              <path
                                 inkscape:connector-curvature="0"
                                 id="path16235"
                                 style="fill:none;stroke:#000000;stroke-width:0.5;stroke-linecap:round;stroke-linejoin:round;stroke-miterlimit:10;stroke-dasharray:none;stroke-opacity:1"
                                 d="M 0,0 V 136.286" />
                            </g>
                          </g>
                        </g>
                      </g>
                    </g>
                  </g>
                </g>
              </g>
            </g>
          </g>
        </g>
      </g>
      <g
         transform="translate(80.28,624.794)"
         id="g16237">
        <path
           inkscape:connector-curvature="0"
           id="path16239"
           style="fill:#ff0000;fill-opacity:1;fill-rule:evenodd;stroke:none"
           d="m 0,0 c 0,1.671 -1.362,2.972 -3.034,2.972 -1.672,0 -2.972,-1.301 -2.972,-2.972 0,-1.672 1.3,-3.035 2.972,-3.035 C -1.362,-3.035 0,-1.672 0,0" />
      </g>
      <g
         transform="translate(80.28,624.794)"
         id="g16241">
        <path
           inkscape:connector-curvature="0"
           id="path16243"
           style="fill:none;stroke:#ff0000;stroke-width:0.433;stroke-linecap:round;stroke-linejoin:round;stroke-miterlimit:10;stroke-dasharray:none;stroke-opacity:1"
           d="m 0,0 c 0,1.671 -1.362,2.972 -3.034,2.972 -1.672,0 -2.972,-1.301 -2.972,-2.972 0,-1.672 1.3,-3.035 2.972,-3.035 C -1.362,-3.035 0,-1.672 0,0 Z" />
      </g>
      <g
         transform="translate(108.949,629.748)"
         id="g16245">
        <path
           inkscape:connector-curvature="0"
           id="path16247"
           style="fill:#ff0000;fill-opacity:1;fill-rule:evenodd;stroke:none"
           d="m 0,0 c 0,1.671 -1.362,2.971 -3.034,2.971 -1.672,0 -2.972,-1.3 -2.972,-2.971 0,-1.673 1.3,-3.036 2.972,-3.036 C -1.362,-3.036 0,-1.673 0,0" />
      </g>
      <g
         transform="translate(108.949,629.748)"
         id="g16249">
        <path
           inkscape:connector-curvature="0"
           id="path16251"
           style="fill:none;stroke:#ff0000;stroke-width:0.433;stroke-linecap:round;stroke-linejoin:round;stroke-miterlimit:10;stroke-dasharray:none;stroke-opacity:1"
           d="m 0,0 c 0,1.671 -1.362,2.971 -3.034,2.971 -1.672,0 -2.972,-1.3 -2.972,-2.971 0,-1.673 1.3,-3.036 2.972,-3.036 C -1.362,-3.036 0,-1.673 0,0 Z" />
      </g>
      <g
         transform="translate(137.618,638.85)"
         id="g16253">
        <path
           inkscape:connector-curvature="0"
           id="path16255"
           style="fill:#ff0000;fill-opacity:1;fill-rule:evenodd;stroke:none"
           d="m 0,0 c 0,1.671 -1.362,2.972 -3.035,2.972 -1.671,0 -2.972,-1.301 -2.972,-2.972 0,-1.672 1.301,-3.034 2.972,-3.034 C -1.362,-3.034 0,-1.672 0,0" />
      </g>
      <g
         transform="translate(137.618,638.85)"
         id="g16257">
        <path
           inkscape:connector-curvature="0"
           id="path16259"
           style="fill:none;stroke:#ff0000;stroke-width:0.433;stroke-linecap:round;stroke-linejoin:round;stroke-miterlimit:10;stroke-dasharray:none;stroke-opacity:1"
           d="m 0,0 c 0,1.671 -1.362,2.972 -3.035,2.972 -1.671,0 -2.972,-1.301 -2.972,-2.972 0,-1.672 1.301,-3.034 2.972,-3.034 C -1.362,-3.034 0,-1.672 0,0 Z" />
      </g>
      <g
         transform="translate(166.286,642.008)"
         id="g16261">
        <path
           inkscape:connector-curvature="0"
           id="path16263"
           style="fill:#ff0000;fill-opacity:1;fill-rule:evenodd;stroke:none"
           d="m 0,0 c 0,1.671 -1.362,2.972 -3.035,2.972 -1.671,0 -2.97,-1.301 -2.97,-2.972 0,-1.672 1.299,-3.035 2.97,-3.035 C -1.362,-3.035 0,-1.672 0,0" />
      </g>
      <g
         transform="translate(166.286,642.008)"
         id="g16265">
        <path
           inkscape:connector-curvature="0"
           id="path16267"
           style="fill:none;stroke:#ff0000;stroke-width:0.433;stroke-linecap:round;stroke-linejoin:round;stroke-miterlimit:10;stroke-dasharray:none;stroke-opacity:1"
           d="m 0,0 c 0,1.671 -1.362,2.972 -3.035,2.972 -1.671,0 -2.97,-1.301 -2.97,-2.972 0,-1.672 1.299,-3.035 2.97,-3.035 C -1.362,-3.035 0,-1.672 0,0 Z" />
      </g>
      <g
         transform="translate(183.5,647.952)"
         id="g16269">
        <path
           inkscape:connector-curvature="0"
           id="path16271"
           style="fill:#ff0000;fill-opacity:1;fill-rule:evenodd;stroke:none"
           d="m 0,0 c 0,1.671 -1.362,2.972 -3.034,2.972 -1.671,0 -2.971,-1.301 -2.971,-2.972 0,-1.672 1.3,-3.035 2.971,-3.035 C -1.362,-3.035 0,-1.672 0,0" />
      </g>
      <g
         transform="translate(183.5,647.952)"
         id="g16273">
        <path
           inkscape:connector-curvature="0"
           id="path16275"
           style="fill:none;stroke:#ff0000;stroke-width:0.433;stroke-linecap:round;stroke-linejoin:round;stroke-miterlimit:10;stroke-dasharray:none;stroke-opacity:1"
           d="m 0,0 c 0,1.671 -1.362,2.972 -3.034,2.972 -1.671,0 -2.971,-1.301 -2.971,-2.972 0,-1.672 1.3,-3.035 2.971,-3.035 C -1.362,-3.035 0,-1.672 0,0 Z" />
      </g>
      <g
         transform="translate(194.956,648.818)"
         id="g16277">
        <path
           inkscape:connector-curvature="0"
           id="path16279"
           style="fill:#ff0000;fill-opacity:1;fill-rule:evenodd;stroke:none"
           d="m 0,0 c 0,1.671 -1.364,2.972 -3.035,2.972 -1.673,0 -2.971,-1.301 -2.971,-2.972 0,-1.672 1.298,-3.034 2.971,-3.034 C -1.364,-3.034 0,-1.672 0,0" />
      </g>
      <g
         transform="translate(194.956,648.818)"
         id="g16281">
        <path
           inkscape:connector-curvature="0"
           id="path16283"
           style="fill:none;stroke:#ff0000;stroke-width:0.433;stroke-linecap:round;stroke-linejoin:round;stroke-miterlimit:10;stroke-dasharray:none;stroke-opacity:1"
           d="m 0,0 c 0,1.671 -1.364,2.972 -3.035,2.972 -1.673,0 -2.971,-1.301 -2.971,-2.972 0,-1.672 1.298,-3.034 2.971,-3.034 C -1.364,-3.034 0,-1.672 0,0 Z" />
      </g>
      <g
         transform="translate(212.17,667.951)"
         id="g16285">
        <path
           inkscape:connector-curvature="0"
           id="path16287"
           style="fill:#ff0000;fill-opacity:1;fill-rule:evenodd;stroke:none"
           d="m 0,0 c 0,1.671 -1.362,2.973 -3.034,2.973 -1.672,0 -2.974,-1.302 -2.974,-2.973 0,-1.671 1.302,-3.033 2.974,-3.033 C -1.362,-3.033 0,-1.671 0,0" />
      </g>
      <g
         transform="translate(212.17,667.951)"
         id="g16289">
        <path
           inkscape:connector-curvature="0"
           id="path16291"
           style="fill:none;stroke:#ff0000;stroke-width:0.433;stroke-linecap:round;stroke-linejoin:round;stroke-miterlimit:10;stroke-dasharray:none;stroke-opacity:1"
           d="m 0,0 c 0,1.671 -1.362,2.973 -3.034,2.973 -1.672,0 -2.974,-1.302 -2.974,-2.973 0,-1.671 1.302,-3.033 2.974,-3.033 C -1.362,-3.033 0,-1.671 0,0 Z" />
      </g>
      <g
         transform="translate(233.966,693.339)"
         id="g16293">
        <path
           inkscape:connector-curvature="0"
           id="path16295"
           style="fill:#ff0000;fill-opacity:1;fill-rule:evenodd;stroke:none"
           d="m 0,0 c 0,1.671 -1.363,2.972 -3.034,2.972 -1.673,0 -2.974,-1.301 -2.974,-2.972 0,-1.672 1.301,-3.034 2.974,-3.034 C -1.363,-3.034 0,-1.672 0,0" />
      </g>
      <g
         transform="translate(233.966,693.339)"
         id="g16297">
        <path
           inkscape:connector-curvature="0"
           id="path16299"
           style="fill:none;stroke:#ff0000;stroke-width:0.433;stroke-linecap:round;stroke-linejoin:round;stroke-miterlimit:10;stroke-dasharray:none;stroke-opacity:1"
           d="m 0,0 c 0,1.671 -1.363,2.972 -3.034,2.972 -1.673,0 -2.974,-1.301 -2.974,-2.972 0,-1.672 1.301,-3.034 2.974,-3.034 C -1.363,-3.034 0,-1.672 0,0 Z" />
      </g>
      <g
         transform="translate(254.028,714.268)"
         id="g16301">
        <path
           inkscape:connector-curvature="0"
           id="path16303"
           style="fill:#ff0000;fill-opacity:1;fill-rule:evenodd;stroke:none"
           d="m 0,0 c 0,1.671 -1.362,2.972 -3.035,2.972 -1.671,0 -2.971,-1.301 -2.971,-2.972 0,-1.672 1.3,-3.034 2.971,-3.034 C -1.362,-3.034 0,-1.672 0,0" />
      </g>
      <g
         transform="translate(254.028,714.268)"
         id="g16305">
        <path
           inkscape:connector-curvature="0"
           id="path16307"
           style="fill:none;stroke:#ff0000;stroke-width:0.433;stroke-linecap:round;stroke-linejoin:round;stroke-miterlimit:10;stroke-dasharray:none;stroke-opacity:1"
           d="m 0,0 c 0,1.671 -1.362,2.972 -3.035,2.972 -1.671,0 -2.971,-1.301 -2.971,-2.972 0,-1.672 1.3,-3.034 2.971,-3.034 C -1.362,-3.034 0,-1.672 0,0 Z" />
      </g>
      <g
         transform="translate(77.308,624.732)"
         id="g16309">
        <path
           inkscape:connector-curvature="0"
           id="path16311"
           style="fill:none;stroke:#000000;stroke-width:0.991;stroke-linecap:round;stroke-linejoin:round;stroke-miterlimit:10;stroke-dasharray:none;stroke-opacity:1"
           d="M 0,0 H 0.186 L 0.433,0.062 0.681,0.124 0.866,0.185 1.115,0.248 1.362,0.309 H 1.61 L 1.858,0.371 2.105,0.433 2.291,0.495 2.538,0.558 2.787,0.619 H 3.034 L 3.282,0.68 3.53,0.742 3.716,0.805 3.963,0.867" />
        <g
           transform="translate(8.297,1.794)"
           id="g16313">
          <path
             inkscape:connector-curvature="0"
             id="path16315"
             style="fill:none;stroke:#000000;stroke-width:0.991;stroke-linecap:round;stroke-linejoin:round;stroke-miterlimit:10;stroke-dasharray:none;stroke-opacity:1"
             d="M 0,0 H 0.186 L 0.434,0.062 0.681,0.125 0.929,0.186 1.176,0.248 1.363,0.31 H 1.61 l 0.247,0.063 0.248,0.062 0.248,0.061 0.248,0.062 0.247,0.063 h 0.186 l 0.248,0.062 0.247,0.061 0.248,0.062 h 0.186" />
          <g
             transform="translate(8.297,1.796)"
             id="g16317">
            <path
               inkscape:connector-curvature="0"
               id="path16319"
               style="fill:none;stroke:#000000;stroke-width:0.991;stroke-linecap:round;stroke-linejoin:round;stroke-miterlimit:10;stroke-dasharray:none;stroke-opacity:1"
               d="M 0,0 V 0 L 0.248,0.063 H 0.496 L 0.682,0.125 0.929,0.187 1.177,0.248 1.425,0.31 1.672,0.373 H 1.92 L 2.105,0.434 2.354,0.496 2.601,0.558 2.849,0.62 3.097,0.682 h 0.247 l 0.248,0.062 0.185,0.061 h 0.186" />
            <g
               transform="translate(8.298,1.796)"
               id="g16321">
              <path
                 inkscape:connector-curvature="0"
                 id="path16323"
                 style="fill:none;stroke:#000000;stroke-width:0.991;stroke-linecap:round;stroke-linejoin:round;stroke-miterlimit:10;stroke-dasharray:none;stroke-opacity:1"
                 d="M 0,0 V 0 L 0.247,0.062 H 0.494 L 0.743,0.124 0.99,0.187 1.238,0.248 1.423,0.31 1.671,0.371 h 0.248 l 0.247,0.063 0.249,0.062 0.247,0.062 0.186,0.061 0.247,0.063 h 0.248 l 0.248,0.062 0.247,0.061 h 0.124" />
              <g
                 transform="translate(8.296,1.735)"
                 id="g16325">
                <path
                   inkscape:connector-curvature="0"
                   id="path16327"
                   style="fill:none;stroke:#000000;stroke-width:0.991;stroke-linecap:round;stroke-linejoin:round;stroke-miterlimit:10;stroke-dasharray:none;stroke-opacity:1"
                   d="M 0,0 0.063,0.061 0.31,0.123 0.496,0.186 H 0.743 L 0.992,0.248 1.239,0.309 1.486,0.371 1.734,0.432 1.981,0.495 H 2.168 L 2.415,0.557 2.663,0.618 2.91,0.68 3.158,0.743 3.406,0.804 h 0.185 l 0.248,0.062 h 0.125" />
                <g
                   transform="translate(8.298,1.794)"
                   id="g16329">
                  <path
                     inkscape:connector-curvature="0"
                     id="path16331"
                     style="fill:none;stroke:#000000;stroke-width:0.991;stroke-linecap:round;stroke-linejoin:round;stroke-miterlimit:10;stroke-dasharray:none;stroke-opacity:1"
                     d="m 0,0 0.062,0.063 0.247,0.062 0.248,0.063 h 0.247 l 0.249,0.06 0.185,0.063 0.248,0.062 0.248,0.062 0.247,0.06 H 2.229 L 2.477,0.559 2.663,0.62 2.91,0.682 3.158,0.744 3.406,0.806 h 0.248 l 0.247,0.062 h 0.061" />
                  <g
                     transform="translate(8.296,1.797)"
                     id="g16333">
                    <path
                       inkscape:connector-curvature="0"
                       id="path16335"
                       style="fill:none;stroke:#000000;stroke-width:0.991;stroke-linecap:round;stroke-linejoin:round;stroke-miterlimit:10;stroke-dasharray:none;stroke-opacity:1"
                       d="M 0,0 0.125,0.062 0.373,0.123 0.559,0.185 0.806,0.246 H 1.054 L 1.301,0.309 1.548,0.371 1.796,0.433 1.982,0.494 2.23,0.557 h 0.247 l 0.249,0.062 0.248,0.062 0.247,0.061 0.185,0.063 h 0.247 l 0.248,0.062 h 0.063" />
                    <g
                       transform="translate(8.298,1.795)"
                       id="g16337">
                      <path
                         inkscape:connector-curvature="0"
                         id="path16339"
                         style="fill:none;stroke:#000000;stroke-width:0.991;stroke-linecap:round;stroke-linejoin:round;stroke-miterlimit:10;stroke-dasharray:none;stroke-opacity:1"
                         d="M 0,0 0.124,0.062 0.372,0.123 0.62,0.185 0.867,0.248 H 1.052 L 1.3,0.31 1.547,0.371 1.795,0.433 2.044,0.495 2.29,0.557 h 0.249 l 0.186,0.062 0.248,0.062 0.248,0.061 0.246,0.062 0.248,0.063 h 0.247" />
                      <g
                         transform="translate(8.297,1.794)"
                         id="g16341">
                        <path
                           inkscape:connector-curvature="0"
                           id="path16343"
                           style="fill:none;stroke:#000000;stroke-width:0.991;stroke-linecap:round;stroke-linejoin:round;stroke-miterlimit:10;stroke-dasharray:none;stroke-opacity:1"
                           d="M 0,0 0.186,0.063 0.372,0.125 0.619,0.187 0.867,0.248 1.115,0.31 H 1.363 L 1.61,0.373 1.796,0.435 2.044,0.496 2.292,0.558 h 0.247 l 0.248,0.063 0.248,0.061 0.248,0.062 0.185,0.061 0.247,0.063 h 0.249" />
                        <g
                           transform="translate(8.298,1.796)"
                           id="g16345">
                          <path
                             inkscape:connector-curvature="0"
                             id="path16347"
                             style="fill:none;stroke:#000000;stroke-width:0.991;stroke-linecap:round;stroke-linejoin:round;stroke-miterlimit:10;stroke-dasharray:none;stroke-opacity:1"
                             d="M 0,0 0.186,0.063 0.434,0.124 0.682,0.186 0.93,0.248 1.114,0.31 H 1.362 L 1.61,0.372 1.858,0.434 2.105,0.495 2.353,0.557 2.539,0.62 h 0.247 l 0.247,0.062 0.248,0.061 0.248,0.062 0.248,0.063 0.186,0.061" />
                          <g
                             transform="translate(8.298,1.857)"
                             id="g16349">
                            <path
                               inkscape:connector-curvature="0"
                               id="path16351"
                               style="fill:none;stroke:#000000;stroke-width:0.991;stroke-linecap:round;stroke-linejoin:round;stroke-miterlimit:10;stroke-dasharray:none;stroke-opacity:1"
                               d="M 0,0 V 0 H 0.184 L 0.432,0.062 0.681,0.125 0.927,0.186 1.175,0.248 1.423,0.31 H 1.671 L 1.857,0.372 2.105,0.434 2.353,0.496 2.6,0.557 H 2.848 L 3.096,0.62 3.282,0.682 3.528,0.743 3.776,0.804 h 0.186" />
                            <g
                               transform="translate(8.297,1.796)"
                               id="g16353">
                              <path
                                 inkscape:connector-curvature="0"
                                 id="path16355"
                                 style="fill:none;stroke:#000000;stroke-width:0.991;stroke-linecap:round;stroke-linejoin:round;stroke-miterlimit:10;stroke-dasharray:none;stroke-opacity:1"
                                 d="M 0,0 V 0 H 0.247 L 0.496,0.063 0.743,0.125 0.929,0.186 1.175,0.247 1.424,0.31" />
                            </g>
                          </g>
                        </g>
                      </g>
                    </g>
                  </g>
                </g>
              </g>
            </g>
          </g>
        </g>
      </g>
      <g
         transform="translate(170.002,644.794)"
         id="g16357">
        <path
           inkscape:connector-curvature="0"
           id="path16359"
           style="fill:none;stroke:#000000;stroke-width:0.991;stroke-linecap:round;stroke-linejoin:round;stroke-miterlimit:10;stroke-dasharray:none;stroke-opacity:1"
           d="M 0,0 H 0.248 L 0.494,0.063 0.743,0.124 0.928,0.186 1.176,0.248 1.423,0.311 H 1.671 L 1.919,0.373 2.166,0.434 2.415,0.495 H 2.539" />
        <g
           transform="translate(6.872,1.424)"
           id="g16361">
          <path
             inkscape:connector-curvature="0"
             id="path16363"
             style="fill:none;stroke:#000000;stroke-width:0.991;stroke-linecap:round;stroke-linejoin:round;stroke-miterlimit:10;stroke-dasharray:none;stroke-opacity:1"
             d="M 0,0 0.064,0.062 0.248,0.123 H 0.496 L 0.743,0.185 0.991,0.248 1.24,0.31 1.488,0.371 H 1.673 L 1.921,0.433 2.168,0.496 2.416,0.558 2.664,0.619 2.91,0.681 H 3.097 L 3.344,0.743 3.592,0.805 3.84,0.867 h 0.125" />
          <g
             transform="translate(8.298,1.796)"
             id="g16365">
            <path
               inkscape:connector-curvature="0"
               id="path16367"
               style="fill:none;stroke:#000000;stroke-width:0.991;stroke-linecap:round;stroke-linejoin:round;stroke-miterlimit:10;stroke-dasharray:none;stroke-opacity:1"
               d="M 0,0 0.063,0.062 0.311,0.123 H 0.557 L 0.743,0.185 0.99,0.248 1.239,0.31 1.486,0.371 1.734,0.433 H 1.983 L 2.231,0.496 2.414,0.557 2.662,0.619 2.911,0.681 3.157,0.743 H 3.405 L 3.654,0.805 3.84,0.867 h 0.123" />
            <g
               transform="translate(8.298,1.795)"
               id="g16369">
              <path
                 inkscape:connector-curvature="0"
                 id="path16371"
                 style="fill:none;stroke:#000000;stroke-width:0.991;stroke-linecap:round;stroke-linejoin:round;stroke-miterlimit:10;stroke-dasharray:none;stroke-opacity:1"
                 d="M 0,0 0.061,0.063 0.31,0.124 0.558,0.187 h 0.246 l 0.249,0.061 0.248,0.063 0.185,0.062 0.247,0.061 h 0.248 l 0.247,0.061 0.248,0.063" />
              <g
                 transform="translate(2.538,0.62)"
                 id="g16373">
                <path
                   inkscape:connector-curvature="0"
                   id="path16375"
                   style="fill:none;stroke:#000000;stroke-width:0.991;stroke-linecap:round;stroke-linejoin:round;stroke-miterlimit:10;stroke-dasharray:none;stroke-opacity:1"
                   d="m 0,0 0.806,0.93 0.866,0.927 0.805,0.991 0.804,0.929 0.868,0.929 0.804,0.991 0.806,0.929 0.868,0.99 0.803,0.929 0.869,0.929 0.805,0.99 0.805,0.93 0.865,0.99 0.806,0.929 0.806,0.929 0.867,0.991 0.804,0.928 0.867,0.991 0.806,0.928 0.803,0.93 0.868,0.991 0.804,0.928 0.806,0.929 0.866,0.991 0.806,0.928 0.866,0.991 0.805,0.93 0.805,0.928 0.867,0.991 0.805,0.928 0.805,0.991 0.867,0.929 0.804,0.929 0.868,0.991 1.609,1.857 0.866,0.991 0.806,0.929 0.805,0.99 0.866,0.929 0.807,0.929 0.866,0.99 0.806,0.929 0.803,0.992 0.867,0.927 0.806,0.93 0.805,0.991 0.866,0.928 0.806,0.991 0.866,0.928 0.805,0.93 0.806,0.991 0.866,0.929 0.805,0.928 0.805,0.99 0.867,0.929 0.805,0.991 0.867,0.93 0.805,0.928 0.804,0.991 0.866,0.928 0.806,0.991 0.806,0.929 0.866,0.929 0.806,0.99 0.866,0.929 0.805,0.928 0.805,0.992 0.867,0.928 0.805,0.992 0.805,0.928 0.866,0.929 0.806,0.991 0.867,0.928 0.804,0.991 0.806,0.928 0.866,0.929 0.805,0.992 0.805,0.927 0.868,0.992 0.804,0.929 0.867,0.928 0.804,0.991 0.805,0.929 0.868,0.928 0.332,0.409" />
              </g>
            </g>
          </g>
        </g>
      </g>
      <g
         transform="translate(77.308,631.543)"
         id="g16377">
        <path
           inkscape:connector-curvature="0"
           id="path16379"
           style="fill:#0000ff;fill-opacity:1;fill-rule:evenodd;stroke:none"
           d="M 0,0 3.591,-6.192 H -3.653" />
      </g>
      <g
         transform="translate(77.308,631.543)"
         id="g16381">
        <path
           inkscape:connector-curvature="0"
           id="path16383"
           style="fill:none;stroke:#0000ff;stroke-width:0.433;stroke-linecap:round;stroke-linejoin:round;stroke-miterlimit:10;stroke-dasharray:none;stroke-opacity:1"
           d="M 0,0 3.591,-6.192 H -3.653 Z" />
      </g>
      <g
         transform="translate(130.373,647.146)"
         id="g16385">
        <path
           inkscape:connector-curvature="0"
           id="path16387"
           style="fill:#0000ff;fill-opacity:1;fill-rule:evenodd;stroke:none"
           d="M 0,0 3.592,-6.191 H -3.653" />
      </g>
      <g
         transform="translate(130.373,647.146)"
         id="g16389">
        <path
           inkscape:connector-curvature="0"
           id="path16391"
           style="fill:none;stroke:#0000ff;stroke-width:0.433;stroke-linecap:round;stroke-linejoin:round;stroke-miterlimit:10;stroke-dasharray:none;stroke-opacity:1"
           d="M 0,0 3.592,-6.191 H -3.653 Z" />
      </g>
      <g
         transform="translate(172.788,650.924)"
         id="g16393">
        <path
           inkscape:connector-curvature="0"
           id="path16395"
           style="fill:#0000ff;fill-opacity:1;fill-rule:evenodd;stroke:none"
           d="M 0,0 3.591,-6.193 H -3.652" />
      </g>
      <g
         transform="translate(172.788,650.924)"
         id="g16397">
        <path
           inkscape:connector-curvature="0"
           id="path16399"
           style="fill:none;stroke:#0000ff;stroke-width:0.433;stroke-linecap:round;stroke-linejoin:round;stroke-miterlimit:10;stroke-dasharray:none;stroke-opacity:1"
           d="M 0,0 3.591,-6.193 H -3.652 Z" />
      </g>
      <g
         transform="translate(215.203,678.664)"
         id="g16401">
        <path
           inkscape:connector-curvature="0"
           id="path16403"
           style="fill:#0000ff;fill-opacity:1;fill-rule:evenodd;stroke:none"
           d="M 0,0 3.592,-6.191 H -3.654" />
      </g>
      <g
         transform="translate(215.203,678.664)"
         id="g16405">
        <path
           inkscape:connector-curvature="0"
           id="path16407"
           style="fill:none;stroke:#0000ff;stroke-width:0.433;stroke-linecap:round;stroke-linejoin:round;stroke-miterlimit:10;stroke-dasharray:none;stroke-opacity:1"
           d="M 0,0 3.592,-6.191 H -3.654 Z" />
      </g>
      <g
         transform="translate(257.62,717.922)"
         id="g16409">
        <path
           inkscape:connector-curvature="0"
           id="path16411"
           style="fill:#0000ff;fill-opacity:1;fill-rule:evenodd;stroke:none"
           d="M 0,0 3.589,-6.192 H -3.654" />
      </g>
      <g
         transform="translate(257.62,717.922)"
         id="g16413">
        <path
           inkscape:connector-curvature="0"
           id="path16415"
           style="fill:none;stroke:#0000ff;stroke-width:0.433;stroke-linecap:round;stroke-linejoin:round;stroke-miterlimit:10;stroke-dasharray:none;stroke-opacity:1"
           d="M 0,0 3.589,-6.192 H -3.654 Z" />
      </g>
      <g
         transform="translate(212.17,627.332)"
         id="g16417">
        <path
           inkscape:connector-curvature="0"
           id="path16419"
           style="fill:#ff0000;fill-opacity:1;fill-rule:evenodd;stroke:none"
           d="m 0,0 c 0,2.354 -1.981,4.273 -4.334,4.273 -2.354,0 -4.272,-1.919 -4.272,-4.273 0,-2.352 1.918,-4.334 4.272,-4.334 C -1.981,-4.334 0,-2.352 0,0" />
      </g>
      <g
         transform="translate(212.17,627.332)"
         id="g16421">
        <path
           inkscape:connector-curvature="0"
           id="path16423"
           style="fill:none;stroke:#ff0000;stroke-width:0.61900002;stroke-linecap:round;stroke-linejoin:round;stroke-miterlimit:10;stroke-dasharray:none;stroke-opacity:1"
           d="m 0,0 c 0,2.354 -1.981,4.273 -4.334,4.273 -2.354,0 -4.272,-1.919 -4.272,-4.273 0,-2.352 1.918,-4.334 4.272,-4.334 C -1.981,-4.334 0,-2.352 0,0 Z" />
      </g>
      <g
         transform="translate(207.897,620.707)"
         id="g16425">
        <path
           inkscape:connector-curvature="0"
           id="path16427"
           style="fill:#0000ff;fill-opacity:1;fill-rule:evenodd;stroke:none"
           d="M 0,0 5.138,-8.916 H -5.201" />
      </g>
      <g
         transform="translate(207.897,620.707)"
         id="g16429">
        <path
           inkscape:connector-curvature="0"
           id="path16431"
           style="fill:none;stroke:#0000ff;stroke-width:0.61900002;stroke-linecap:round;stroke-linejoin:round;stroke-miterlimit:10;stroke-dasharray:none;stroke-opacity:1"
           d="M 0,0 5.138,-8.916 H -5.201 Z" />
      </g>
      <g
         transform="translate(135.781,592.203)"
         id="g16433">
        <path
           inkscape:connector-curvature="0"
           id="path16435"
           style="fill:#000000;fill-opacity:1;fill-rule:nonzero;stroke:none"
           d="M 0,0 H -0.489 C -0.622,-0.267 -0.846,-0.541 -1.162,-0.825 -1.477,-1.109 -1.847,-1.35 -2.27,-1.549 v -0.733 c 0.234,0.088 0.499,0.218 0.795,0.392 0.295,0.173 0.533,0.348 0.716,0.522 V -6.197 H 0 V 0" />
      </g>
      <g
         transform="translate(191.001,586.735)"
         id="g16437">
        <path
           inkscape:connector-curvature="0"
           id="path16439"
           style="fill:#000000;fill-opacity:1;fill-rule:nonzero;stroke:none"
           d="m 0,0 c 0.085,0.137 0.19,0.274 0.319,0.41 0.127,0.134 0.419,0.394 0.877,0.776 0.543,0.46 0.933,0.822 1.168,1.087 0.235,0.263 0.404,0.514 0.504,0.754 0.103,0.237 0.153,0.48 0.153,0.728 0,0.486 -0.174,0.892 -0.518,1.221 C 2.155,5.304 1.687,5.468 1.094,5.468 0.506,5.468 0.036,5.316 -0.311,5.011 -0.66,4.706 -0.86,4.263 -0.914,3.682 l 0.781,-0.077 c 0.004,0.386 0.115,0.688 0.335,0.907 0.218,0.219 0.51,0.327 0.874,0.327 0.345,0 0.625,-0.101 0.839,-0.308 C 2.13,4.325 2.238,4.072 2.238,3.772 2.238,3.485 2.118,3.181 1.883,2.862 1.645,2.541 1.193,2.105 0.524,1.552 0.092,1.2 -0.239,0.888 -0.47,0.619 -0.7,0.35 -0.866,0.076 -0.97,-0.202 -1.035,-0.372 -1.066,-0.546 -1.06,-0.729 H 3.028 V 0 H 0" />
      </g>
      <g
         transform="translate(247.914,586.439)"
         id="g16441">
        <path
           inkscape:connector-curvature="0"
           id="path16443"
           style="fill:#000000;fill-opacity:1;fill-rule:nonzero;stroke:none"
           d="m 0,0 c 0.358,-0.321 0.807,-0.483 1.35,-0.483 0.6,0 1.098,0.187 1.49,0.562 0.393,0.375 0.59,0.832 0.59,1.37 0,0.398 -0.102,0.73 -0.305,0.996 C 2.922,2.709 2.635,2.884 2.272,2.969 2.551,3.098 2.764,3.27 2.908,3.489 3.051,3.708 3.123,3.95 3.123,4.214 3.123,4.495 3.045,4.758 2.897,5.007 2.748,5.257 2.53,5.454 2.246,5.598 1.965,5.742 1.655,5.814 1.319,5.814 0.83,5.814 0.424,5.674 0.096,5.394 -0.234,5.115 -0.443,4.72 -0.535,4.211 L 0.223,4.073 C 0.28,4.446 0.405,4.726 0.6,4.913 0.795,5.099 1.041,5.193 1.334,5.193 1.629,5.193 1.871,5.102 2.059,4.919 2.246,4.739 2.34,4.509 2.34,4.233 2.34,3.883 2.211,3.625 1.955,3.457 1.7,3.29 1.408,3.206 1.088,3.206 L 0.965,3.214 0.881,2.546 C 1.096,2.603 1.272,2.63 1.416,2.63 1.768,2.63 2.055,2.518 2.283,2.292 2.51,2.066 2.625,1.78 2.625,1.432 2.625,1.067 2.502,0.762 2.258,0.515 2.012,0.269 1.713,0.146 1.352,0.146 1.049,0.146 0.795,0.242 0.588,0.429 0.381,0.619 0.233,0.928 0.147,1.358 L -0.613,1.257 C -0.562,0.743 -0.359,0.325 0,0" />
      </g>
      <g
         transform="translate(68.082,592.58)"
         id="g16445">
        <path
           inkscape:connector-curvature="0"
           id="path16447"
           style="fill:#000000;fill-opacity:1;fill-rule:nonzero;stroke:none"
           d="M -0.867,0 H -2.9e-4 V 0.86694 H -0.867 Z M 0,0 Z m -4.905,5.126 c 0.209,0.295 0.486,0.442 0.832,0.442 0.353,0 0.647,-0.167 0.882,-0.5 0.236,-0.333 0.354,-1.008 0.354,-2.023 0,-1.013 -0.119,-1.686 -0.354,-2.021 -0.237,-0.335 -0.527,-0.502 -0.873,-0.502 -0.347,0 -0.639,0.167 -0.874,0.501 -0.236,0.333 -0.354,1.007 -0.354,2.022 0,1.011 0.129,1.706 0.387,2.081 z m -0.56,-4.591 c 0.34,-0.424 0.806,-0.634 1.401,-0.634 0.45,0 0.824,0.119 1.119,0.361 0.297,0.24 0.519,0.584 0.667,1.031 0.149,0.444 0.223,1.029 0.223,1.753 0,0.611 -0.047,1.099 -0.139,1.458 -0.093,0.36 -0.22,0.666 -0.381,0.917 -0.161,0.251 -0.367,0.443 -0.618,0.577 -0.25,0.132 -0.541,0.199 -0.871,0.199 -0.449,0 -0.821,-0.12 -1.118,-0.36 C -5.476,5.597 -5.7,5.254 -5.85,4.809 -5.999,4.362 -6.074,3.776 -6.074,3.046 c 0,-1.158 0.202,-1.996 0.609,-2.511" />
      </g>
      <g
         transform="translate(69.806,592.965)"
         id="g16449">
        <path
           inkscape:connector-curvature="0"
           id="path16451"
           style="fill:#000000;fill-opacity:1;fill-rule:nonzero;stroke:none"
           d="m 0,0 c 0.358,-0.324 0.808,-0.484 1.35,-0.484 0.601,0 1.098,0.185 1.491,0.561 0.392,0.374 0.59,0.831 0.59,1.37 0,0.399 -0.102,0.731 -0.306,0.996 -0.204,0.265 -0.487,0.44 -0.852,0.524 0.281,0.128 0.492,0.302 0.636,0.519 0.143,0.22 0.215,0.461 0.215,0.728 0,0.28 -0.076,0.543 -0.226,0.793 C 2.749,5.255 2.531,5.452 2.249,5.596 1.965,5.739 1.656,5.812 1.319,5.812 0.832,5.812 0.424,5.672 0.095,5.392 -0.232,5.113 -0.442,4.718 -0.535,4.209 L 0.224,4.071 C 0.279,4.444 0.406,4.724 0.602,4.911 0.797,5.098 1.041,5.19 1.334,5.19 1.631,5.19 1.873,5.1 2.06,4.918 2.247,4.736 2.341,4.506 2.341,4.23 2.341,3.882 2.212,3.623 1.956,3.455 1.7,3.287 1.41,3.203 1.089,3.203 1.059,3.203 1.018,3.207 0.968,3.212 L 0.883,2.545 C 1.096,2.601 1.274,2.628 1.417,2.628 1.768,2.628 2.057,2.516 2.284,2.29 2.512,2.064 2.625,1.778 2.625,1.43 2.625,1.066 2.503,0.76 2.259,0.514 2.015,0.266 1.713,0.144 1.355,0.144 1.052,0.144 0.797,0.239 0.589,0.428 0.381,0.617 0.234,0.927 0.147,1.356 L -0.612,1.257 C -0.562,0.742 -0.357,0.323 0,0" />
      </g>
      <g
         transform="translate(68.105,638.009)"
         id="g16453">
        <path
           inkscape:connector-curvature="0"
           id="path16455"
           style="fill:#000000;fill-opacity:1;fill-rule:nonzero;stroke:none"
           d="M -0.867,0 H -2.9e-4 V 0.86621 H -0.867 Z M 0,0 Z m -4.905,5.127 c 0.208,0.294 0.485,0.441 0.831,0.441 0.353,0 0.648,-0.167 0.883,-0.5 0.236,-0.334 0.353,-1.009 0.353,-2.024 0,-1.011 -0.118,-1.685 -0.354,-2.02 -0.236,-0.335 -0.527,-0.503 -0.873,-0.503 -0.347,0 -0.638,0.167 -0.873,0.501 -0.236,0.334 -0.354,1.008 -0.354,2.022 0,1.013 0.129,1.707 0.387,2.083 z m -0.56,-4.591 c 0.339,-0.424 0.805,-0.636 1.4,-0.636 0.451,0 0.825,0.121 1.12,0.362 0.296,0.241 0.518,0.585 0.667,1.03 0.149,0.447 0.222,1.031 0.222,1.754 0,0.612 -0.046,1.098 -0.138,1.458 -0.093,0.361 -0.219,0.666 -0.381,0.917 -0.161,0.251 -0.367,0.443 -0.618,0.576 -0.25,0.133 -0.541,0.2 -0.872,0.2 -0.449,0 -0.821,-0.12 -1.117,-0.36 C -5.477,5.597 -5.7,5.255 -5.85,4.809 -6,4.363 -6.075,3.776 -6.075,3.046 c 0,-1.158 0.203,-1.995 0.61,-2.51" />
      </g>
      <g
         transform="translate(69.702,640.188)"
         id="g16457">
        <path
           inkscape:connector-curvature="0"
           id="path16459"
           style="fill:#000000;fill-opacity:1;fill-rule:nonzero;stroke:none"
           d="M 0,0 1.939,2.784 V 0 Z m 2.699,-2.178 v 1.48 H 3.535 V 0 H 2.699 V 3.996 H 2.077 L -0.745,0 v -0.698 h 2.684 v -1.48 h 0.76" />
      </g>
      <g
         transform="translate(68.036,683.438)"
         id="g16461">
        <path
           inkscape:connector-curvature="0"
           id="path16463"
           style="fill:#000000;fill-opacity:1;fill-rule:nonzero;stroke:none"
           d="M -0.867,0 H -3.2e-4 V 0.8667 H -0.867 Z M 0,0 Z m -4.905,5.127 c 0.209,0.294 0.485,0.441 0.831,0.441 0.354,0 0.648,-0.167 0.883,-0.5 0.236,-0.334 0.354,-1.007 0.354,-2.023 0,-1.012 -0.119,-1.686 -0.354,-2.021 -0.236,-0.335 -0.528,-0.503 -0.874,-0.503 -0.347,0 -0.637,0.167 -0.873,0.502 -0.236,0.333 -0.354,1.007 -0.354,2.022 0,1.012 0.129,1.706 0.387,2.082 z m -0.56,-4.591 c 0.34,-0.424 0.806,-0.636 1.4,-0.636 0.451,0 0.825,0.121 1.121,0.362 0.296,0.241 0.517,0.585 0.666,1.031 0.149,0.446 0.223,1.031 0.223,1.754 0,0.611 -0.047,1.098 -0.139,1.457 -0.093,0.361 -0.22,0.666 -0.381,0.917 -0.161,0.251 -0.367,0.444 -0.618,0.577 -0.25,0.133 -0.541,0.199 -0.872,0.199 -0.449,0 -0.82,-0.12 -1.116,-0.359 C -5.477,5.598 -5.699,5.255 -5.85,4.809 -6,4.363 -6.075,3.776 -6.075,3.047 c 0,-1.158 0.203,-1.996 0.61,-2.511" />
      </g>
      <g
         transform="translate(69.756,683.809)"
         id="g16465">
        <path
           inkscape:connector-curvature="0"
           id="path16467"
           style="fill:#000000;fill-opacity:1;fill-rule:nonzero;stroke:none"
           d="m 0,0 c 0.354,-0.314 0.812,-0.471 1.373,-0.471 0.684,0 1.224,0.249 1.619,0.749 0.325,0.407 0.488,0.889 0.488,1.448 0,0.587 -0.185,1.066 -0.555,1.439 -0.369,0.373 -0.822,0.56 -1.36,0.56 -0.406,0 -0.794,-0.129 -1.163,-0.387 l 0.329,1.66 H 3.188 V 5.719 H 0.128 L -0.47,2.551 0.243,2.451 c 0.112,0.18 0.265,0.325 0.46,0.438 0.194,0.112 0.414,0.169 0.659,0.169 0.396,0 0.713,-0.125 0.953,-0.375 C 2.554,2.433 2.675,2.091 2.675,1.659 2.675,1.203 2.55,0.839 2.299,0.564 2.05,0.288 1.741,0.15 1.373,0.15 1.068,0.15 0.81,0.247 0.597,0.441 0.384,0.635 0.248,0.924 0.19,1.309 L -0.607,1.247 C -0.558,0.729 -0.356,0.314 0,0" />
      </g>
      <g
         transform="translate(68.082,728.866)"
         id="g16469">
        <path
           inkscape:connector-curvature="0"
           id="path16471"
           style="fill:#000000;fill-opacity:1;fill-rule:nonzero;stroke:none"
           d="M -0.867,0 H -2.9e-4 V 0.86719 H -0.867 Z M 0,0 Z m -4.905,5.127 c 0.209,0.295 0.486,0.442 0.832,0.442 0.353,0 0.647,-0.167 0.882,-0.501 0.236,-0.334 0.354,-1.008 0.354,-2.023 0,-1.012 -0.119,-1.686 -0.354,-2.02 -0.237,-0.336 -0.527,-0.504 -0.873,-0.504 -0.347,0 -0.639,0.167 -0.874,0.501 -0.236,0.334 -0.354,1.008 -0.354,2.023 0,1.013 0.129,1.706 0.387,2.082 z m -0.56,-4.591 c 0.34,-0.423 0.806,-0.636 1.401,-0.636 0.45,0 0.824,0.121 1.119,0.362 0.297,0.241 0.519,0.585 0.667,1.03 0.149,0.447 0.223,1.031 0.223,1.755 0,0.612 -0.047,1.097 -0.139,1.457 -0.093,0.361 -0.22,0.667 -0.381,0.918 -0.161,0.25 -0.367,0.443 -0.618,0.576 -0.25,0.133 -0.541,0.199 -0.871,0.199 -0.449,0 -0.821,-0.119 -1.118,-0.359 C -5.476,5.598 -5.7,5.255 -5.85,4.81 -5.999,4.363 -6.074,3.775 -6.074,3.047 c 0,-1.158 0.202,-1.995 0.609,-2.511" />
      </g>
      <g
         transform="translate(70.386,731.835)"
         id="g16473">
        <path
           inkscape:connector-curvature="0"
           id="path16475"
           style="fill:#000000;fill-opacity:1;fill-rule:nonzero;stroke:none"
           d="M 0,0 C 0.238,0.245 0.529,0.368 0.87,0.368 1.217,0.368 1.503,0.245 1.729,0 1.955,-0.246 2.067,-0.582 2.067,-1.008 2.067,-1.451 1.953,-1.802 1.724,-2.06 1.496,-2.318 1.221,-2.447 0.899,-2.447 c -0.221,0 -0.43,0.062 -0.628,0.187 -0.197,0.125 -0.351,0.307 -0.462,0.545 -0.11,0.238 -0.165,0.488 -0.165,0.75 0,0.398 0.119,0.719 0.356,0.965 z M 2.19,2.821 C 1.879,3.093 1.479,3.229 0.992,3.229 0.338,3.229 -0.181,2.993 -0.567,2.522 -1.01,1.98 -1.231,1.114 -1.231,-0.077 c 0,-1.067 0.2,-1.831 0.598,-2.295 0.4,-0.464 0.915,-0.696 1.547,-0.696 0.371,0 0.703,0.088 0.996,0.265 0.292,0.176 0.521,0.43 0.689,0.762 0.167,0.333 0.251,0.692 0.251,1.079 0,0.589 -0.179,1.069 -0.535,1.441 C 1.96,0.85 1.529,1.035 1.023,1.035 0.733,1.035 0.456,0.968 0.192,0.833 -0.073,0.699 -0.296,0.492 -0.479,0.214 c 0.005,0.618 0.078,1.094 0.216,1.429 0.139,0.334 0.327,0.588 0.565,0.762 0.186,0.135 0.4,0.203 0.644,0.203 0.302,0 0.557,-0.109 0.764,-0.325 C 1.834,2.148 1.93,1.932 1.998,1.633 L 2.75,1.695 C 2.687,2.174 2.501,2.549 2.19,2.821" />
      </g>
      <g
         transform="translate(254.076,625.01)"
         id="g16477">
        <path
           inkscape:connector-curvature="0"
           id="path16479"
           style="fill:#000000;fill-opacity:1;fill-rule:nonzero;stroke:none"
           d="m 0,0 c 0.359,-0.323 0.808,-0.485 1.35,-0.485 0.601,0 1.098,0.187 1.49,0.562 0.394,0.375 0.59,0.832 0.59,1.371 0,0.398 -0.1,0.73 -0.304,0.995 -0.204,0.265 -0.488,0.44 -0.852,0.525 0.28,0.128 0.492,0.301 0.635,0.52 0.142,0.217 0.214,0.46 0.214,0.726 0,0.279 -0.074,0.544 -0.225,0.793 C 2.748,5.256 2.532,5.452 2.249,5.596 1.967,5.74 1.656,5.812 1.32,5.812 0.832,5.812 0.424,5.673 0.097,5.392 -0.232,5.113 -0.442,4.719 -0.535,4.209 L 0.225,4.072 C 0.281,4.444 0.407,4.724 0.603,4.911 0.797,5.097 1.042,5.191 1.335,5.191 1.632,5.191 1.873,5.1 2.06,4.918 2.247,4.737 2.342,4.508 2.342,4.231 2.342,3.882 2.213,3.623 1.956,3.455 1.7,3.287 1.411,3.204 1.09,3.204 1.059,3.204 1.018,3.206 0.969,3.212 L 0.885,2.545 C 1.097,2.601 1.276,2.629 1.417,2.629 1.768,2.629 2.058,2.516 2.284,2.29 2.513,2.065 2.626,1.778 2.626,1.431 2.626,1.066 2.502,0.761 2.259,0.514 2.017,0.267 1.713,0.144 1.354,0.144 1.05,0.144 0.796,0.239 0.589,0.428 0.382,0.617 0.234,0.927 0.148,1.356 l -0.76,-0.1 C -0.561,0.742 -0.356,0.323 0,0 Z m -4.913,1.793 1.939,2.785 V 1.793 Z m 2.699,-2.178 v 1.481 h 0.835 V 1.793 H -2.214 V 5.789 H -2.836 L -5.658,1.793 V 1.096 h 2.684 v -1.481 z m -6.8,5.127 c 0.21,0.294 0.485,0.441 0.833,0.441 0.351,0 0.647,-0.166 0.882,-0.5 0.236,-0.334 0.352,-1.008 0.352,-2.023 0,-1.012 -0.116,-1.686 -0.352,-2.021 -0.237,-0.335 -0.528,-0.502 -0.875,-0.502 -0.344,0 -0.637,0.167 -0.872,0.5 -0.237,0.334 -0.356,1.008 -0.356,2.023 0,1.013 0.131,1.706 0.388,2.082 z m -0.56,-4.591 c 0.339,-0.424 0.806,-0.636 1.4,-0.636 0.453,0 0.825,0.121 1.123,0.362 0.295,0.241 0.516,0.585 0.664,1.031 0.15,0.446 0.222,1.03 0.222,1.753 0,0.612 -0.046,1.098 -0.137,1.458 -0.093,0.361 -0.219,0.666 -0.382,0.917 -0.161,0.251 -0.366,0.443 -0.617,0.577 -0.251,0.133 -0.541,0.199 -0.873,0.199 -0.448,0 -0.822,-0.119 -1.116,-0.36 -0.295,-0.239 -0.518,-0.582 -0.668,-1.027 -0.15,-0.446 -0.226,-1.035 -0.226,-1.764 0,-1.157 0.203,-1.994 0.61,-2.51 z m -2.573,-0.536 h 0.867 v 0.867 h -0.867 z m 0.867,0 z m -4.905,5.127 c 0.208,0.294 0.484,0.441 0.832,0.441 0.352,0 0.645,-0.166 0.882,-0.5 0.235,-0.334 0.352,-1.008 0.352,-2.023 0,-1.012 -0.117,-1.686 -0.352,-2.021 -0.238,-0.335 -0.528,-0.502 -0.875,-0.502 -0.347,0 -0.636,0.167 -0.871,0.5 -0.237,0.334 -0.356,1.008 -0.356,2.023 0,1.013 0.128,1.706 0.388,2.082 z m -0.561,-4.591 c 0.34,-0.424 0.806,-0.636 1.4,-0.636 0.451,0 0.824,0.121 1.121,0.362 0.296,0.241 0.516,0.585 0.666,1.031 0.148,0.446 0.222,1.03 0.222,1.753 0,0.612 -0.044,1.098 -0.137,1.458 -0.094,0.361 -0.221,0.666 -0.381,0.917 -0.161,0.251 -0.367,0.443 -0.618,0.577 -0.252,0.133 -0.541,0.199 -0.873,0.199 -0.449,0 -0.821,-0.119 -1.116,-0.36 -0.294,-0.239 -0.517,-0.582 -0.668,-1.027 -0.15,-0.446 -0.225,-1.035 -0.225,-1.764 0,-1.157 0.203,-1.994 0.609,-2.51 z m -1.447,1.926 h -4.081 V 1.37107 h 4.081 z m 0,1.872 h -4.081 V 3.24301 h 4.081 z m -7.867,-4.334 1.189,1.717 0.217,-0.335 0.921,-1.382 h 0.924 l -1.617,2.317 1.515,2.155 h -0.919 l -0.745,-1.056 c -0.101,-0.144 -0.217,-0.307 -0.345,-0.488 -0.077,0.128 -0.18,0.292 -0.307,0.492 l -0.705,1.052 h -0.935 l 1.514,-2.158 -1.636,-2.314 h 0.929" />
      </g>
      <g
         transform="translate(245.063,616.604)"
         id="g16481">
        <path
           inkscape:connector-curvature="0"
           id="path16483"
           style="fill:#000000;fill-opacity:1;fill-rule:nonzero;stroke:none"
           d="M 0,0 C 0.208,0.294 0.485,0.441 0.832,0.441 1.184,0.441 1.48,0.274 1.714,-0.06 1.95,-0.393 2.066,-1.068 2.066,-2.082 2.066,-3.095 1.95,-3.768 1.714,-4.103 1.478,-4.438 1.185,-4.606 0.84,-4.606 c -0.346,0 -0.637,0.167 -0.873,0.501 -0.237,0.333 -0.355,1.008 -0.355,2.023 0,1.012 0.131,1.706 0.388,2.082 z m -0.56,-4.592 c 0.339,-0.423 0.805,-0.635 1.4,-0.635 0.453,0 0.824,0.12 1.121,0.362 0.296,0.241 0.518,0.585 0.666,1.031 0.15,0.445 0.221,1.03 0.221,1.753 0,0.612 -0.046,1.097 -0.136,1.458 C 2.619,-0.263 2.492,0.043 2.33,0.294 2.168,0.544 1.963,0.737 1.713,0.87 1.461,1.003 1.171,1.07 0.84,1.07 0.39,1.07 0.018,0.951 -0.277,0.71 -0.573,0.471 -0.794,0.127 -0.945,-0.318 -1.095,-0.764 -1.17,-1.352 -1.17,-2.081 c 0,-1.158 0.203,-1.995 0.61,-2.511 z m -2.575,-0.535 h 0.86801 v 0.86597 H -3.135 Z m 0.868,0 z M -7.173,0 c 0.21,0.294 0.485,0.441 0.834,0.441 0.352,0 0.645,-0.167 0.882,-0.501 0.235,-0.333 0.352,-1.008 0.352,-2.022 0,-1.013 -0.117,-1.686 -0.352,-2.021 -0.239,-0.335 -0.528,-0.503 -0.875,-0.503 -0.347,0 -0.638,0.167 -0.873,0.501 -0.237,0.333 -0.355,1.008 -0.355,2.023 0,1.012 0.129,1.706 0.387,2.082 z m -0.56,-4.592 c 0.34,-0.423 0.806,-0.635 1.401,-0.635 0.45,0 0.824,0.12 1.12,0.362 0.297,0.241 0.517,0.585 0.667,1.031 0.147,0.445 0.222,1.03 0.222,1.753 0,0.612 -0.046,1.097 -0.138,1.458 -0.094,0.36 -0.22,0.666 -0.382,0.917 -0.16,0.25 -0.365,0.443 -0.617,0.576 -0.251,0.133 -0.54,0.2 -0.872,0.2 -0.449,0 -0.821,-0.119 -1.117,-0.36 -0.294,-0.239 -0.517,-0.583 -0.669,-1.028 -0.149,-0.446 -0.224,-1.034 -0.224,-1.763 0,-1.158 0.203,-1.995 0.609,-2.511 z m -1.446,1.927 h -4.081 v -0.70599 h 4.081 z m 0,1.871 h -4.081 v -0.70502 h 4.081 z m -7.868,-4.333 1.19,1.717 0.217,-0.336 0.92,-1.381 h 0.925 l -1.619,2.317 1.516,2.154 h -0.918 l -0.745,-1.055 c -0.102,-0.144 -0.217,-0.308 -0.346,-0.489 -0.076,0.129 -0.18,0.293 -0.306,0.493 l -0.706,1.051 h -0.934 l 1.513,-2.157 -1.636,-2.314 h 0.929" />
      </g>
      <g
         transform="translate(249.895,614.445)"
         id="g16485">
        <path
           inkscape:connector-curvature="0"
           id="path16487"
           style="fill:#000000;fill-opacity:1;fill-rule:nonzero;stroke:none"
           d="m 0,0 c 0.237,0.245 0.527,0.368 0.87,0.368 0.347,0 0.633,-0.123 0.857,-0.368 0.227,-0.246 0.34,-0.582 0.34,-1.007 0,-0.444 -0.115,-0.794 -0.345,-1.053 -0.227,-0.258 -0.501,-0.387 -0.824,-0.387 -0.221,0 -0.43,0.063 -0.628,0.187 -0.197,0.125 -0.351,0.307 -0.463,0.545 -0.109,0.238 -0.165,0.488 -0.165,0.749 0,0.398 0.119,0.72 0.358,0.966 z M 2.189,2.821 C 1.88,3.093 1.478,3.229 0.991,3.229 0.338,3.229 -0.183,2.994 -0.568,2.522 -1.011,1.981 -1.232,1.114 -1.232,-0.077 c 0,-1.066 0.2,-1.831 0.599,-2.295 0.398,-0.464 0.915,-0.696 1.547,-0.696 0.37,0 0.702,0.088 0.995,0.264 0.292,0.177 0.522,0.431 0.688,0.764 0.167,0.332 0.252,0.692 0.252,1.078 0,0.589 -0.178,1.069 -0.534,1.44 C 1.959,0.849 1.528,1.036 1.022,1.036 0.732,1.036 0.456,0.968 0.192,0.833 -0.073,0.699 -0.297,0.493 -0.48,0.215 c 0.005,0.617 0.076,1.092 0.217,1.427 0.138,0.334 0.326,0.589 0.564,0.764 0.186,0.134 0.401,0.202 0.644,0.202 0.303,0 0.558,-0.109 0.763,-0.324 0.125,-0.136 0.221,-0.353 0.29,-0.65 L 2.75,1.695 C 2.688,2.174 2.5,2.549 2.189,2.821" />
      </g>
      <g
         transform="translate(47.246,639.327)"
         id="g16489">
        <path
           inkscape:connector-curvature="0"
           id="path16491"
           style="fill:#000000;fill-opacity:1;fill-rule:nonzero;stroke:none"
           d="M 0,0 V 1.566 C 0,1.997 0.037,2.328 0.113,2.557 0.189,2.787 0.319,2.967 0.506,3.1 0.692,3.233 0.912,3.299 1.165,3.299 1.381,3.299 1.571,3.254 1.736,3.165 1.9,3.076 2.026,2.961 2.113,2.822 2.199,2.683 2.26,2.51 2.297,2.303 2.319,2.186 2.33,1.982 2.33,1.692 V 0 Z m -2.848,0 v 1.354 c 0,0.486 0.032,0.83 0.095,1.03 0.063,0.2 0.18,0.354 0.351,0.462 0.171,0.108 0.368,0.161 0.592,0.161 0.237,0 0.435,-0.057 0.592,-0.173 0.156,-0.116 0.269,-0.287 0.337,-0.515 0.051,-0.172 0.078,-0.457 0.078,-0.854 L -0.803,0 Z M 3.133,1.688 C 3.133,2.12 3.095,2.485 3.02,2.782 2.944,3.079 2.833,3.327 2.684,3.524 2.536,3.721 2.325,3.887 2.052,4.021 1.779,4.155 1.483,4.222 1.166,4.222 0.771,4.222 0.428,4.111 0.137,3.891 -0.153,3.67 -0.357,3.353 -0.479,2.943 -0.635,3.26 -0.842,3.497 -1.098,3.654 -1.354,3.812 -1.627,3.89 -1.916,3.89 -2.228,3.89 -2.526,3.801 -2.811,3.625 -3.097,3.448 -3.308,3.203 -3.445,2.891 -3.582,2.578 -3.651,2.163 -3.651,1.645 v -2.541 h 6.784 v 2.584" />
      </g>
      <g
         id="g16493">
        <g
           clip-path="url(#clipPath16499)"
           id="g16495">
          <g
             transform="translate(45.316,650.035)"
             id="g16501">
            <path
               inkscape:connector-curvature="0"
               id="path16503"
               style="fill:#000000;fill-opacity:1;fill-rule:nonzero;stroke:none"
               d="M 0,0 -7.076,1.984 V 1.308 L 0,-0.677 Z m -0.929,-4.531 c -0.153,0.093 -0.304,0.211 -0.455,0.354 -0.151,0.143 -0.437,0.467 -0.86,0.97 -0.51,0.602 -0.911,1.034 -1.204,1.294 -0.293,0.26 -0.571,0.446 -0.836,0.559 -0.263,0.112 -0.533,0.168 -0.806,0.168 -0.538,0 -0.99,-0.191 -1.353,-0.574 -0.365,-0.383 -0.546,-0.902 -0.546,-1.559 0,-0.65 0.168,-1.168 0.506,-1.554 0.337,-0.386 0.828,-0.608 1.472,-0.667 l 0.086,0.863 c -0.428,0.003 -0.763,0.125 -1.005,0.368 -0.242,0.243 -0.362,0.567 -0.362,0.972 0,0.382 0.114,0.693 0.341,0.931 0.228,0.238 0.509,0.357 0.841,0.357 0.318,0 0.654,-0.132 1.009,-0.395 0.355,-0.264 0.84,-0.767 1.453,-1.51 0.392,-0.478 0.737,-0.844 1.035,-1.096 0.299,-0.253 0.602,-0.437 0.91,-0.552 0.186,-0.072 0.381,-0.104 0.583,-0.098 v 4.521 h -0.809 v -3.352" />
          </g>
        </g>
      </g>
      <g
         transform="translate(44.773,653.098)"
         id="g16505">
        <path
           inkscape:connector-curvature="0"
           id="path16507"
           style="fill:#000000;fill-opacity:1;fill-rule:nonzero;stroke:none"
           d="m 0,0 c 0.357,0.397 0.537,0.897 0.537,1.498 0,0.667 -0.208,1.218 -0.623,1.655 -0.415,0.436 -0.921,0.654 -1.518,0.654 -0.442,0 -0.81,-0.112 -1.104,-0.337 -0.293,-0.225 -0.487,-0.54 -0.58,-0.944 -0.144,0.311 -0.336,0.546 -0.579,0.704 -0.241,0.16 -0.51,0.239 -0.805,0.239 -0.31,0 -0.604,-0.084 -0.881,-0.25 C -5.829,3.052 -6.047,2.811 -6.207,2.497 -6.367,2.183 -6.446,1.839 -6.446,1.465 c 0,-0.541 0.154,-0.994 0.464,-1.359 0.309,-0.363 0.745,-0.597 1.308,-0.699 l 0.153,0.842 c -0.412,0.062 -0.721,0.203 -0.927,0.42 -0.205,0.218 -0.308,0.49 -0.308,0.816 0,0.33 0.1,0.599 0.302,0.808 0.202,0.208 0.456,0.313 0.764,0.313 0.388,0 0.675,-0.143 0.861,-0.43 0.186,-0.286 0.279,-0.608 0.279,-0.965 0,-0.035 -0.003,-0.08 -0.009,-0.136 l 0.737,-0.093 c -0.063,0.236 -0.094,0.435 -0.094,0.594 0,0.389 0.126,0.71 0.375,0.963 0.251,0.252 0.568,0.379 0.954,0.379 0.404,0 0.743,-0.136 1.016,-0.407 0.274,-0.273 0.41,-0.608 0.41,-1.006 0,-0.335 -0.105,-0.619 -0.314,-0.85 C -0.685,0.423 -1.027,0.26 -1.501,0.164 L -1.389,-0.68 C -0.82,-0.624 -0.357,-0.398 0,0" />
      </g>
      <g
         transform="translate(53.785,644.982)"
         id="g16509">
        <path
           inkscape:connector-curvature="0"
           id="path16511"
           style="fill:#000000;fill-opacity:1;fill-rule:nonzero;stroke:none"
           d="m 0,0 c 0.267,0.338 0.401,0.83 0.401,1.475 0,0.39 -0.068,0.738 -0.203,1.047 C 0.063,2.83 -0.129,3.066 -0.376,3.229 -0.623,3.393 -0.888,3.476 -1.168,3.476 -1.455,3.476 -1.694,3.408 -1.887,3.274 -2.08,3.14 -2.227,2.956 -2.328,2.721 -2.429,2.485 -2.56,2.07 -2.718,1.473 -2.831,1.062 -2.902,0.813 -2.933,0.729 -2.993,0.582 -3.067,0.474 -3.157,0.405 -3.245,0.336 -3.343,0.303 -3.452,0.303 c -0.171,0 -0.321,0.082 -0.448,0.247 -0.129,0.166 -0.192,0.443 -0.192,0.829 0,0.328 0.072,0.582 0.215,0.762 0.145,0.179 0.344,0.288 0.601,0.325 L -3.389,3.289 C -3.71,3.236 -3.966,3.14 -4.159,3 -4.351,2.859 -4.502,2.641 -4.614,2.347 -4.726,2.052 -4.783,1.711 -4.783,1.321 c 0,-0.259 0.034,-0.501 0.1,-0.727 0.068,-0.226 0.149,-0.405 0.246,-0.536 0.125,-0.175 0.28,-0.312 0.469,-0.413 0.188,-0.102 0.393,-0.152 0.614,-0.152 0.243,0 0.464,0.061 0.665,0.184 0.201,0.122 0.358,0.303 0.472,0.54 0.113,0.238 0.248,0.666 0.404,1.284 0.116,0.459 0.211,0.747 0.285,0.863 0.11,0.166 0.259,0.248 0.449,0.248 0.212,0 0.397,-0.093 0.554,-0.281 0.157,-0.187 0.236,-0.474 0.236,-0.861 0,-0.384 -0.089,-0.682 -0.267,-0.896 C -0.734,0.36 -0.99,0.23 -1.325,0.183 l 0.133,-0.83 C -0.665,-0.554 -0.268,-0.338 0,0" />
      </g>
      <g
         transform="translate(50.338,688.633)"
         id="g16513">
        <path
           inkscape:connector-curvature="0"
           id="path16515"
           style="fill:#000000;fill-opacity:1;fill-rule:nonzero;stroke:none"
           d="m 0,0 c -0.778,0.32 -1.583,0.48 -2.417,0.48 -0.735,0 -1.439,-0.119 -2.112,-0.356 -0.781,-0.279 -1.559,-0.708 -2.334,-1.29 v -0.598 c 0.648,0.378 1.112,0.627 1.389,0.748 0.426,0.188 0.871,0.335 1.334,0.44 0.571,0.134 1.147,0.201 1.727,0.201 1.486,0 2.969,-0.464 4.451,-1.389 v 0.598 C 1.458,-0.708 0.779,-0.32 0,0 Z m -2.123,-3.845 c 0.366,0 0.645,-0.046 0.833,-0.134 0.244,-0.118 0.436,-0.301 0.576,-0.549 0.14,-0.25 0.21,-0.534 0.21,-0.854 0,-0.324 -0.074,-0.569 -0.222,-0.737 -0.148,-0.168 -0.333,-0.251 -0.555,-0.251 -0.146,0 -0.277,0.039 -0.396,0.116 -0.119,0.076 -0.209,0.186 -0.271,0.328 -0.062,0.142 -0.117,0.384 -0.166,0.726 -0.087,0.604 -0.192,1.057 -0.315,1.359 z M 0.04,-3.609 V -2.74 C -0.148,-2.844 -0.346,-2.915 -0.551,-2.951 -0.757,-2.987 -1.246,-3.005 -2.02,-3.005 h -1.109 c -0.37,0 -0.626,-0.013 -0.768,-0.041 -0.228,-0.05 -0.417,-0.136 -0.567,-0.258 -0.149,-0.124 -0.274,-0.316 -0.372,-0.578 -0.099,-0.262 -0.149,-0.601 -0.149,-1.02 0,-0.422 0.058,-0.793 0.175,-1.112 0.115,-0.32 0.28,-0.565 0.494,-0.735 0.215,-0.168 0.496,-0.291 0.844,-0.364 l 0.114,0.816 c -0.349,0.089 -0.593,0.227 -0.73,0.413 -0.138,0.185 -0.206,0.473 -0.206,0.863 0,0.418 0.094,0.733 0.281,0.945 0.139,0.157 0.378,0.235 0.716,0.235 0.031,0 0.104,-10e-4 0.217,-0.004 0.112,-0.318 0.207,-0.812 0.287,-1.483 0.04,-0.33 0.082,-0.576 0.125,-0.739 0.062,-0.222 0.152,-0.422 0.273,-0.599 0.12,-0.176 0.279,-0.32 0.478,-0.429 0.198,-0.109 0.418,-0.164 0.658,-0.164 0.41,0 0.747,0.144 1.011,0.434 0.263,0.29 0.395,0.704 0.395,1.243 0,0.327 -0.054,0.632 -0.161,0.916 -0.107,0.286 -0.291,0.583 -0.55,0.892 0.231,0.024 0.432,0.079 0.604,0.165 z m 0,-4.661 H -6.7437 V -9.10582 H 0.04 Z m -0.29,-5.245 c 0.264,0.335 0.397,0.822 0.397,1.46 0,0.387 -0.067,0.732 -0.202,1.037 -0.133,0.305 -0.323,0.54 -0.568,0.701 -0.245,0.162 -0.506,0.244 -0.784,0.244 -0.283,0 -0.52,-0.067 -0.712,-0.2 -0.19,-0.133 -0.336,-0.316 -0.436,-0.55 -0.1,-0.233 -0.229,-0.644 -0.386,-1.234 -0.111,-0.406 -0.182,-0.652 -0.213,-0.735 -0.058,-0.145 -0.133,-0.251 -0.222,-0.32 -0.086,-0.067 -0.183,-0.101 -0.291,-0.101 -0.17,0 -0.318,0.082 -0.445,0.245 -0.126,0.163 -0.189,0.436 -0.189,0.819 0,0.323 0.071,0.574 0.214,0.752 0.143,0.177 0.341,0.284 0.596,0.321 l -0.113,0.817 c -0.318,-0.052 -0.572,-0.149 -0.762,-0.287 -0.19,-0.139 -0.34,-0.354 -0.452,-0.646 -0.111,-0.291 -0.167,-0.63 -0.167,-1.016 0,-0.255 0.033,-0.495 0.1,-0.719 0.067,-0.223 0.147,-0.4 0.243,-0.529 0.123,-0.173 0.277,-0.31 0.464,-0.41 0.186,-0.1 0.39,-0.15 0.608,-0.15 0.24,0 0.46,0.061 0.658,0.183 0.199,0.121 0.355,0.299 0.468,0.535 0.112,0.236 0.245,0.658 0.399,1.269 0.114,0.454 0.208,0.737 0.282,0.852 0.108,0.165 0.256,0.247 0.444,0.247 0.21,0 0.393,-0.093 0.548,-0.277 0.156,-0.185 0.233,-0.47 0.233,-0.852 0,-0.38 -0.087,-0.676 -0.263,-0.887 -0.175,-0.212 -0.428,-0.34 -0.758,-0.386 l 0.132,-0.824 c 0.52,0.093 0.912,0.307 1.177,0.641 z m -3.666,-4.521 c -0.257,0.262 -0.385,0.585 -0.385,0.969 0,0.424 0.161,0.769 0.482,1.036 0.208,0.173 0.517,0.279 0.931,0.316 v -2.755 c -0.428,0.028 -0.772,0.172 -1.028,0.434 z m 3.136,1.795 c 0.162,-0.216 0.242,-0.478 0.242,-0.785 0,-0.411 -0.142,-0.755 -0.428,-1.031 -0.287,-0.275 -0.699,-0.429 -1.238,-0.46 v 3.673 c -0.098,0.003 -0.172,0.005 -0.222,0.005 -0.811,0 -1.441,-0.209 -1.888,-0.626 -0.446,-0.416 -0.671,-0.953 -0.671,-1.611 0,-0.679 0.228,-1.232 0.684,-1.658 0.457,-0.426 1.097,-0.638 1.924,-0.638 0.797,0 1.418,0.209 1.86,0.631 0.443,0.422 0.664,0.992 0.664,1.711 0,0.572 -0.139,1.041 -0.417,1.409 -0.277,0.366 -0.667,0.618 -1.17,0.754 l -0.113,-0.858 c 0.354,-0.127 0.612,-0.299 0.773,-0.516 z m 0.82,-5.914 h -5.98 v 2.244 h -0.804 v -5.376 h 0.804 v 2.237 h 5.98 z m 1.998,-3.692 c -1.482,-0.925 -2.965,-1.388 -4.451,-1.388 -0.583,0 -1.163,0.067 -1.741,0.2 -0.463,0.108 -0.907,0.256 -1.334,0.445 -0.274,0.121 -0.733,0.368 -1.375,0.743 v -0.598 c 0.775,-0.581 1.553,-1.011 2.334,-1.289 0.673,-0.238 1.377,-0.357 2.112,-0.357 0.834,0 1.639,0.159 2.417,0.477 0.779,0.319 1.458,0.708 2.038,1.169 v 0.598" />
      </g>
      <g
         transform="translate(200.032,572.236)"
         id="g16517">
        <path
           inkscape:connector-curvature="0"
           id="path16519"
           style="fill:#000000;fill-opacity:1;fill-rule:nonzero;stroke:none"
           d="m 0,0 v 2.589 c 0,0.353 0.047,0.678 0.139,0.977 0.064,0.194 0.167,0.347 0.312,0.458 0.147,0.109 0.311,0.165 0.494,0.165 0.206,0 0.409,-0.06 0.614,-0.184 L 1.852,4.782 C 1.56,4.962 1.272,5.052 0.988,5.052 0.792,5.052 0.613,4.996 0.449,4.885 0.287,4.773 0.106,4.543 -0.085,4.193 V 4.939 H -0.836 V 0 Z M -2.986,2.17 C -2.986,1.802 -3.032,1.523 -3.122,1.334 -3.239,1.09 -3.423,0.897 -3.675,0.757 -3.926,0.616 -4.213,0.545 -4.535,0.545 c -0.325,0 -0.573,0.074 -0.742,0.223 -0.17,0.148 -0.254,0.334 -0.254,0.557 0,0.145 0.039,0.278 0.116,0.397 0.079,0.119 0.188,0.21 0.331,0.272 0.143,0.062 0.384,0.117 0.73,0.167 0.607,0.086 1.062,0.191 1.366,0.315 z M -2.75,0 h 0.876 C -1.979,0.19 -2.049,0.387 -2.086,0.594 -2.121,0.8 -2.139,1.293 -2.139,2.071 v 1.116 c 0,0.373 -0.013,0.63 -0.04,0.773 -0.051,0.229 -0.137,0.419 -0.262,0.569 -0.124,0.15 -0.317,0.275 -0.58,0.375 -0.265,0.098 -0.606,0.148 -1.027,0.148 -0.423,0 -0.796,-0.058 -1.12,-0.174 C -5.491,4.762 -5.736,4.596 -5.907,4.381 -6.076,4.164 -6.199,3.882 -6.274,3.532 l 0.816,-0.113 c 0.09,0.35 0.229,0.596 0.417,0.734 0.186,0.14 0.476,0.209 0.87,0.209 0.421,0 0.74,-0.096 0.952,-0.285 0.159,-0.14 0.237,-0.382 0.237,-0.724 0,-0.031 -0.002,-0.104 -0.004,-0.22 C -3.305,3.021 -3.802,2.925 -4.478,2.846 -4.809,2.805 -5.057,2.762 -5.221,2.719 -5.445,2.659 -5.645,2.566 -5.822,2.446 -6.001,2.325 -6.144,2.164 -6.256,1.965 -6.365,1.764 -6.419,1.543 -6.419,1.301 c 0,-0.411 0.145,-0.75 0.435,-1.015 0.293,-0.266 0.709,-0.398 1.25,-0.398 0.328,0 0.636,0.054 0.922,0.163 0.287,0.109 0.587,0.296 0.896,0.56 C -2.89,0.378 -2.835,0.174 -2.75,0 Z m -7.535,3.885 c 0.265,0.318 0.581,0.477 0.945,0.477 0.361,0 0.668,-0.154 0.923,-0.461 0.254,-0.307 0.382,-0.781 0.382,-1.427 0,-0.629 -0.133,-1.101 -0.398,-1.419 -0.265,-0.318 -0.58,-0.477 -0.944,-0.477 -0.448,0 -0.803,0.215 -1.066,0.646 -0.16,0.263 -0.24,0.691 -0.24,1.283 0,0.6 0.133,1.06 0.398,1.378 z M -10.677,0.62 c 0.333,-0.488 0.789,-0.732 1.372,-0.732 0.585,0 1.088,0.232 1.506,0.692 0.419,0.464 0.627,1.118 0.627,1.963 0,0.357 -0.049,0.692 -0.15,1.006 -0.097,0.314 -0.235,0.581 -0.409,0.802 -0.177,0.222 -0.398,0.394 -0.671,0.517 -0.27,0.123 -0.558,0.184 -0.862,0.184 -0.548,0 -0.999,-0.223 -1.353,-0.667 v 2.432 h -0.836 V 0 h 0.776 z M -15.385,0 V 1.958 L -14.798,2.53 -13.166,0 h 1.031 l -2.075,3.105 1.882,1.834 h -1.081 l -1.976,-2.01 v 3.888 h -0.837 V 0 Z m -1.829,-2.004 c -0.924,1.488 -1.388,2.976 -1.388,4.467 0,0.586 0.066,1.168 0.199,1.748 0.109,0.465 0.258,0.911 0.446,1.338 0.12,0.277 0.367,0.737 0.743,1.381 h -0.597 c -0.585,-0.777 -1.017,-1.559 -1.295,-2.342 -0.239,-0.676 -0.359,-1.382 -0.359,-2.121 0,-0.836 0.159,-1.645 0.481,-2.426 0.318,-0.78 0.709,-1.463 1.173,-2.045 z m -9.332,2.291 c 0.336,-0.266 0.826,-0.399 1.467,-0.399 0.388,0 0.735,0.067 1.041,0.202 0.307,0.136 0.542,0.326 0.705,0.572 0.163,0.247 0.244,0.51 0.244,0.79 0,0.285 -0.066,0.524 -0.199,0.716 -0.132,0.192 -0.316,0.339 -0.549,0.439 -0.235,0.101 -0.648,0.231 -1.24,0.389 -0.41,0.111 -0.657,0.183 -0.74,0.214 -0.146,0.059 -0.254,0.134 -0.322,0.223 -0.068,0.086 -0.103,0.184 -0.103,0.292 0,0.171 0.083,0.319 0.246,0.447 0.166,0.126 0.441,0.19 0.825,0.19 0.326,0 0.578,-0.072 0.757,-0.215 0.178,-0.143 0.287,-0.34 0.324,-0.595 l 0.815,0.112 c -0.053,0.32 -0.147,0.576 -0.288,0.767 -0.14,0.19 -0.355,0.341 -0.648,0.453 -0.293,0.112 -0.634,0.168 -1.021,0.168 -0.258,0 -0.499,-0.035 -0.724,-0.1 -0.225,-0.067 -0.402,-0.148 -0.533,-0.245 -0.173,-0.124 -0.309,-0.28 -0.411,-0.467 -0.101,-0.188 -0.151,-0.392 -0.151,-0.613 0,-0.241 0.061,-0.463 0.184,-0.662 0.121,-0.2 0.303,-0.357 0.539,-0.47 0.238,-0.114 0.664,-0.249 1.278,-0.403 0.457,-0.114 0.741,-0.209 0.855,-0.284 0.162,-0.108 0.243,-0.257 0.243,-0.445 0,-0.211 -0.092,-0.394 -0.278,-0.55 -0.186,-0.156 -0.471,-0.235 -0.854,-0.235 -0.38,0 -0.677,0.089 -0.889,0.265 -0.212,0.177 -0.342,0.431 -0.388,0.764 L -27.19,1.474 c 0.092,-0.524 0.307,-0.92 0.644,-1.187 z m -4.778,0 c 0.336,-0.266 0.826,-0.399 1.467,-0.399 0.388,0 0.735,0.067 1.042,0.202 0.309,0.136 0.542,0.326 0.705,0.572 0.163,0.247 0.244,0.51 0.244,0.79 0,0.285 -0.066,0.524 -0.199,0.716 -0.134,0.192 -0.316,0.339 -0.551,0.439 -0.234,0.101 -0.646,0.231 -1.238,0.389 -0.411,0.111 -0.657,0.183 -0.74,0.214 -0.147,0.059 -0.254,0.134 -0.322,0.223 -0.069,0.086 -0.102,0.184 -0.102,0.292 0,0.171 0.082,0.319 0.247,0.447 0.163,0.126 0.437,0.19 0.823,0.19 0.326,0 0.577,-0.072 0.756,-0.215 0.18,-0.143 0.286,-0.34 0.323,-0.595 l 0.818,0.112 c -0.054,0.32 -0.15,0.576 -0.288,0.767 -0.141,0.19 -0.357,0.341 -0.65,0.453 -0.293,0.112 -0.633,0.168 -1.02,0.168 -0.259,0 -0.499,-0.035 -0.725,-0.1 -0.225,-0.067 -0.401,-0.148 -0.531,-0.245 -0.175,-0.124 -0.311,-0.28 -0.413,-0.467 -0.1,-0.188 -0.151,-0.392 -0.151,-0.613 0,-0.241 0.063,-0.463 0.185,-0.662 0.122,-0.2 0.302,-0.357 0.539,-0.47 0.237,-0.114 0.664,-0.249 1.277,-0.403 0.456,-0.114 0.743,-0.209 0.855,-0.284 0.163,-0.108 0.244,-0.257 0.244,-0.445 0,-0.211 -0.093,-0.394 -0.278,-0.55 -0.185,-0.156 -0.471,-0.235 -0.855,-0.235 -0.38,0 -0.677,0.089 -0.889,0.265 -0.211,0.177 -0.34,0.431 -0.387,0.764 l -0.829,-0.133 c 0.092,-0.524 0.307,-0.92 0.643,-1.187 z m -4.552,3.689 c 0.261,0.256 0.584,0.386 0.969,0.386 0.423,0 0.769,-0.162 1.036,-0.483 0.173,-0.207 0.278,-0.517 0.316,-0.931 h -2.756 c 0.029,0.429 0.173,0.773 0.435,1.028 z m 1.796,-3.155 c -0.217,-0.162 -0.479,-0.243 -0.787,-0.243 -0.41,0 -0.755,0.144 -1.03,0.432 -0.275,0.289 -0.428,0.705 -0.459,1.247 h 3.68 c 0.002,0.099 0.003,0.174 0.003,0.223 0,0.815 -0.208,1.448 -0.626,1.897 -0.418,0.45 -0.958,0.675 -1.617,0.675 -0.681,0 -1.235,-0.23 -1.663,-0.689 -0.428,-0.459 -0.64,-1.104 -0.64,-1.936 0,-0.803 0.211,-1.427 0.634,-1.871 0.421,-0.446 0.994,-0.668 1.715,-0.668 0.573,0 1.044,0.139 1.411,0.417 0.369,0.279 0.622,0.67 0.758,1.175 l -0.864,0.114 C -33.691,1.24 -33.864,0.982 -34.08,0.821 Z M -39.306,0 v 2.589 c 0,0.353 0.047,0.678 0.139,0.977 0.063,0.194 0.166,0.347 0.313,0.458 0.144,0.109 0.31,0.165 0.492,0.165 0.205,0 0.409,-0.06 0.614,-0.184 l 0.294,0.777 c -0.294,0.18 -0.581,0.27 -0.864,0.27 -0.196,0 -0.376,-0.056 -0.539,-0.167 -0.164,-0.112 -0.343,-0.342 -0.535,-0.692 v 0.746 h -0.75 V 0 Z m -2.027,0.717 c -0.123,0 -0.216,0.02 -0.284,0.061 -0.065,0.04 -0.113,0.094 -0.142,0.162 -0.03,0.069 -0.044,0.222 -0.044,0.461 v 2.887 h 0.836 v 0.651 h -0.836 V 6.663 L -42.64,6.161 V 4.939 h -0.616 V 4.288 h 0.616 V 1.446 c 0,-0.502 0.034,-0.832 0.102,-0.989 0.069,-0.156 0.187,-0.283 0.353,-0.379 0.168,-0.095 0.403,-0.144 0.706,-0.144 0.186,0 0.396,0.025 0.632,0.075 l -0.12,0.739 c -0.151,-0.021 -0.272,-0.031 -0.366,-0.031 z m -7.651,0.254 c 0.236,-0.362 0.564,-0.633 0.98,-0.814 0.416,-0.179 0.931,-0.269 1.546,-0.269 0.487,0 0.923,0.088 1.312,0.267 0.389,0.178 0.686,0.427 0.894,0.747 0.207,0.321 0.31,0.662 0.31,1.025 0,0.366 -0.094,0.689 -0.283,0.968 -0.189,0.281 -0.481,0.513 -0.877,0.695 -0.274,0.125 -0.775,0.269 -1.506,0.435 -0.732,0.167 -1.184,0.328 -1.357,0.487 -0.176,0.158 -0.265,0.36 -0.265,0.605 0,0.282 0.125,0.523 0.375,0.723 0.248,0.2 0.644,0.3 1.188,0.3 0.523,0 0.918,-0.11 1.186,-0.331 0.268,-0.219 0.424,-0.546 0.471,-0.977 l 0.863,0.067 c -0.016,0.4 -0.127,0.759 -0.335,1.075 -0.206,0.317 -0.503,0.556 -0.888,0.718 -0.386,0.163 -0.83,0.245 -1.334,0.245 -0.458,0 -0.875,-0.077 -1.249,-0.233 -0.374,-0.154 -0.658,-0.382 -0.853,-0.683 -0.195,-0.298 -0.293,-0.62 -0.293,-0.965 0,-0.313 0.08,-0.596 0.24,-0.85 0.158,-0.252 0.401,-0.464 0.727,-0.634 0.251,-0.134 0.688,-0.276 1.313,-0.426 0.624,-0.151 1.027,-0.263 1.21,-0.334 0.284,-0.108 0.489,-0.242 0.612,-0.401 0.123,-0.159 0.186,-0.346 0.186,-0.56 0,-0.21 -0.065,-0.404 -0.193,-0.584 -0.127,-0.179 -0.324,-0.319 -0.586,-0.422 -0.263,-0.102 -0.566,-0.154 -0.91,-0.154 -0.387,0 -0.734,0.067 -1.043,0.203 -0.309,0.136 -0.538,0.314 -0.685,0.533 -0.147,0.219 -0.239,0.501 -0.28,0.844 l -0.849,-0.073 c 0.012,-0.457 0.136,-0.866 0.373,-1.227" />
      </g>
      <g
         transform="translate(204.141,572.277)"
         id="g16521">
        <path
           inkscape:connector-curvature="0"
           id="path16523"
           style="fill:#000000;fill-opacity:1;fill-rule:nonzero;stroke:none"
           d="m 0,0 c 0.32,0.781 0.482,1.59 0.482,2.426 0,0.739 -0.12,1.445 -0.359,2.121 -0.28,0.783 -0.711,1.565 -1.294,2.342 h -0.598 c 0.377,-0.651 0.625,-1.116 0.747,-1.394 0.189,-0.429 0.335,-0.875 0.442,-1.34 0.133,-0.572 0.198,-1.15 0.198,-1.733 0,-1.491 -0.463,-2.979 -1.387,-4.467 h 0.598 C -0.712,-1.463 -0.322,-0.78 0,0" />
      </g>
      <g
         transform="translate(106.785,716.614)"
         id="g16525">
        <path
           inkscape:connector-curvature="0"
           id="path16527"
           style="fill:#000000;fill-opacity:1;fill-rule:nonzero;stroke:none"
           d="M 0,0 V 2.14 L 1.013,3.119 3.21,0 h 1.078 l -2.701,3.674 2.585,2.5 H 3.065 L 0,3.114 v 3.06 H -0.814 V 0 Z m -4.914,0.728 c 0.083,0.138 0.19,0.275 0.319,0.411 0.128,0.136 0.42,0.395 0.875,0.777 0.545,0.459 0.935,0.821 1.169,1.085 0.236,0.265 0.404,0.515 0.505,0.754 0.101,0.239 0.152,0.482 0.152,0.728 0,0.486 -0.173,0.893 -0.519,1.222 -0.345,0.328 -0.816,0.492 -1.409,0.492 -0.587,0 -1.055,-0.152 -1.404,-0.457 C -5.574,5.435 -5.775,4.992 -5.828,4.41 l 0.782,-0.077 c 0.002,0.387 0.113,0.689 0.332,0.908 0.219,0.217 0.511,0.327 0.876,0.327 0.345,0 0.625,-0.103 0.839,-0.308 0.215,-0.206 0.323,-0.458 0.323,-0.759 0,-0.286 -0.119,-0.59 -0.356,-0.911 C -3.27,3.269 -3.723,2.833 -4.392,2.281 -4.823,1.928 -5.154,1.618 -5.384,1.348 -5.614,1.079 -5.781,0.805 -5.886,0.527 -5.951,0.358 -5.979,0.182 -5.975,0 h 4.089 v 0.728 z m -1.791,1.733 h -4.0805 V 1.75598 h 4.0805 z m 0,1.872 h -4.0805 V 3.62737 H -6.705 Z M -13.465,0 v 5.446 h 2.032 v 0.728 h -4.878 V 5.446 h 2.033 V 0 h 0.813" />
      </g>
      <path
         inkscape:connector-curvature="0"
         id="path16529"
         style="fill:#ffffff;fill-opacity:1;fill-rule:nonzero;stroke:none"
         d="m 68.284,613.995 h 8.6665 v 23.592 H 68.284 Z" />
      <g
         transform="translate(80.345,586.056)"
         id="g16531">
        <path
           inkscape:connector-curvature="0"
           id="path16533"
           style="fill:#000000;fill-opacity:1;fill-rule:nonzero;stroke:none"
           d="M -0.867,0 H -2.9e-4 V 0.867 H -0.867 Z M 0,0 Z m -4.905,5.127 c 0.208,0.295 0.485,0.442 0.832,0.442 0.353,0 0.647,-0.167 0.882,-0.501 0.235,-0.334 0.354,-1.009 0.354,-2.022 0,-1.013 -0.119,-1.687 -0.355,-2.022 -0.236,-0.335 -0.527,-0.503 -0.873,-0.503 -0.347,0 -0.638,0.167 -0.874,0.501 -0.235,0.334 -0.353,1.008 -0.353,2.024 0,1.011 0.129,1.706 0.387,2.081 z m -0.56,-4.591 c 0.339,-0.424 0.805,-0.636 1.4,-0.636 0.451,0 0.824,0.121 1.12,0.362 0.296,0.242 0.518,0.584 0.666,1.031 0.149,0.446 0.224,1.03 0.224,1.754 0,0.611 -0.047,1.097 -0.139,1.458 -0.093,0.36 -0.219,0.666 -0.381,0.917 -0.162,0.251 -0.367,0.443 -0.618,0.576 -0.25,0.133 -0.542,0.199 -0.872,0.199 -0.449,0 -0.821,-0.119 -1.116,-0.359 C -5.477,5.597 -5.701,5.256 -5.85,4.809 -6,4.363 -6.075,3.775 -6.075,3.047 c 0,-1.158 0.203,-1.996 0.61,-2.511" />
      </g>
      <path
         inkscape:connector-curvature="0"
         id="path16535"
         style="fill:#ffffff;fill-opacity:1;fill-rule:nonzero;stroke:none"
         d="m 78.894,585.711 h 2.2534 v 4.2659 H 78.894 Z" />
    </g>
  </g>
</svg>
