<!DOCTYPE svg PUBLIC "-//W3C//DTD SVG 20010904//EN" "http://www.w3.org/TR/2001/REC-SVG-20010904/DTD/svg10.dtd">
<svg version="1.0" xmlns="http://www.w3.org/2000/svg" width="1600px" height="1248px" viewBox="0 0 16000 12480" preserveAspectRatio="xMidYMid meet">
<g id="layer101" fill="#020202" stroke="none">
 <path d="M0 6240 l0 -6240 8000 0 8000 0 0 6240 0 6240 -8000 0 -8000 0 0 -6240z"/>
 </g>
<g id="layer102" fill="#ffffff" stroke="none">
 <path d="M0 6240 l0 -6240 8000 0 8000 0 0 45 0 45 -7939 0 c-6579 0 -7940 2 -7950 13 -8 10 -10 1711 -8 6195 l2 6182 -52 0 -53 0 0 -6240z"/>
 <path d="M190 12421 c0 -33 2 -65 5 -73 4 -11 1319 -13 7817 -10 4297 1 7816 -2 7820 -6 5 -5 8 -2741 8 -6080 l0 -6072 80 0 80 0 0 6150 0 6150 -7905 0 -7905 0 0 -59z"/>
 <path d="M197 12283 c-11 -10 -8 -51 4 -59 6 -3 104 -7 218 -8 217 -1 241 -6 241 -46 0 -40 -24 -45 -244 -47 -116 -1 -214 -2 -218 -3 -5 0 -8 -115 -8 -255 l0 -255 94 0 c120 0 146 -9 146 -50 0 -17 -6 -33 -12 -35 -7 -2 -60 -6 -118 -7 l-105 -3 -3 -244 c-1 -157 1 -248 8 -255 6 -6 48 -9 100 -7 116 3 130 -1 130 -44 0 -42 -7 -44 -140 -48 l-95 -2 0 -250 0 -250 115 -5 115 -5 3 -31 c2 -17 -3 -36 -11 -42 -7 -6 -59 -13 -118 -14 l-104 -3 0 -255 0 -255 95 -2 c129 -4 140 -7 140 -42 0 -16 -6 -33 -13 -39 -7 -6 -60 -13 -118 -14 l-104 -3 -2 -240 c0 -135 3 -245 8 -251 6 -8 78 -12 221 -13 214 -1 238 -5 238 -40 -1 -44 -8 -46 -242 -51 l-223 -5 -3 -247 -2 -248 104 0 c57 0 111 -3 120 -6 21 -8 21 -58 -1 -75 -10 -9 -46 -14 -102 -15 -47 -1 -94 -2 -103 -3 -17 -1 -18 -20 -18 -256 l0 -255 103 0 c118 0 141 -9 135 -55 l-3 -30 -117 -3 -118 -3 3 -252 2 -252 104 -3 c59 -1 111 -8 118 -14 8 -6 13 -25 11 -42 l-3 -31 -115 -5 -115 -5 0 -250 0 -250 95 -2 c129 -4 140 -7 140 -42 0 -16 -6 -33 -13 -39 -7 -6 -60 -13 -118 -14 l-104 -3 -1 -257 -1 -258 221 0 c159 0 225 -3 234 -12 18 -18 14 -56 -7 -68 -12 -6 -106 -10 -236 -10 l-215 0 2 -252 3 -253 103 -2 c57 0 109 -4 117 -7 22 -8 19 -63 -4 -76 -11 -5 -65 -10 -120 -10 l-101 0 0 -250 0 -250 103 0 c118 0 141 -9 135 -55 l-3 -30 -115 -5 -115 -5 -3 -240 c-1 -132 0 -250 3 -261 4 -20 9 -21 98 -16 109 5 137 -4 137 -47 0 -16 -7 -31 -15 -35 -8 -3 -62 -8 -120 -12 l-105 -7 0 -248 0 -249 108 0 c114 0 132 -6 132 -46 0 -38 -23 -46 -132 -48 l-103 -1 -2 -252 -2 -253 222 0 c160 0 226 -3 235 -12 18 -18 14 -56 -7 -68 -12 -6 -106 -10 -236 -10 l-215 0 2 -258 3 -257 104 -3 c58 -1 111 -8 118 -14 7 -6 13 -23 13 -39 0 -35 -11 -38 -140 -42 l-95 -2 0 -250 0 -250 107 -2 c59 -1 112 -4 118 -8 14 -9 12 -62 -2 -72 -7 -4 -60 -10 -118 -13 l-105 -5 -3 -239 c-1 -161 1 -243 9 -252 7 -9 29 -11 77 -8 37 3 85 2 107 -3 35 -8 40 -13 43 -40 4 -40 -8 -44 -135 -51 l-103 -5 0 -248 c0 -187 3 -250 13 -256 6 -4 51 -6 98 -4 102 4 129 -7 129 -49 0 -16 -5 -32 -10 -35 -6 -3 -56 -8 -113 -10 -56 -2 -105 -4 -110 -4 -4 -1 -6 -112 -5 -249 l3 -247 7800 -3 7800 -2 0 6055 0 6055 -4632 0 -4632 0 6 -34 c3 -19 2 -47 -1 -61 -5 -21 -12 -26 -34 -23 -23 3 -27 8 -27 33 1 17 4 42 8 58 l7 27 -3143 0 c-1729 0 -3147 -3 -3150 -7z m6339 -348 c18 -28 9 -72 -20 -89 -23 -14 -46 15 -46 59 0 55 38 73 66 30z m0 -330 c21 -31 11 -73 -19 -85 -41 -16 -66 59 -31 94 21 22 31 20 50 -9z m8474 -264 c15 -29 12 -66 -7 -84 -30 -26 -422 -218 -459 -224 -39 -6 -59 6 -69 44 -10 42 26 68 248 179 219 109 266 123 287 85z m-8470 -60 c14 -28 12 -52 -7 -73 -20 -22 -49 -23 -57 -2 -16 42 3 94 34 94 11 0 24 -9 30 -19z m-864 -99 c50 -25 100 -81 126 -139 67 -151 62 -435 -10 -582 -59 -121 -192 -177 -325 -137 -131 39 -201 167 -214 386 -12 213 39 378 138 452 70 52 204 62 285 20z m4600 0 c50 -25 100 -81 126 -139 67 -151 62 -435 -10 -582 -59 -121 -192 -177 -325 -137 -131 39 -201 167 -214 386 -12 213 39 378 138 452 70 52 204 62 285 20z m-6347 -8 c199 -59 219 -344 31 -429 l-39 -18 41 -21 c64 -32 82 -64 86 -151 4 -66 1 -80 -22 -120 -19 -32 -42 -53 -79 -73 -51 -27 -55 -27 -259 -30 l-208 -3 0 430 0 431 198 0 c151 0 211 -4 251 -16z m4600 0 c199 -59 219 -344 31 -429 l-39 -18 41 -21 c64 -32 82 -64 86 -151 4 -66 1 -80 -22 -120 -19 -32 -42 -53 -79 -73 -51 -27 -55 -27 -259 -30 l-208 -3 0 430 0 431 198 0 c151 0 211 -4 251 -16z m736 -166 c182 -66 342 -125 358 -130 24 -9 27 -15 27 -57 l0 -47 -372 -135 -373 -134 -3 48 c-2 27 -1 51 1 54 3 2 132 49 288 105 156 55 288 104 292 108 4 4 -45 25 -110 48 -65 22 -198 69 -295 103 l-178 63 0 54 c0 48 2 53 18 47 9 -4 166 -61 347 -127z m-4215 -68 l0 -50 -375 0 -375 0 0 50 0 50 375 0 375 0 0 -50z m1489 6 c10 -21 11 -34 2 -52 -22 -50 -71 -37 -71 18 0 68 42 89 69 34z m7536 -62 c27 -42 5 -79 -69 -116 -224 -109 -451 -209 -476 -210 -49 -2 -77 55 -47 95 19 25 507 256 543 256 23 1 36 -6 49 -25z m-9027 -181 l-3 -48 -372 -3 -373 -2 0 50 0 50 376 0 375 0 -3 -47z m1491 -88 c12 -25 12 -32 0 -54 -18 -31 -33 -36 -53 -16 -30 30 -13 110 22 103 9 -2 23 -16 31 -33z m6525 -206 c63 -49 25 -81 -254 -217 -129 -63 -251 -116 -271 -119 -30 -4 -39 -1 -57 22 -29 36 -28 42 12 79 39 36 496 255 532 256 6 0 23 -9 38 -21z m-6523 -122 c13 -23 -5 -72 -29 -82 -37 -14 -59 77 -26 110 18 17 36 8 55 -28z m-1 -342 c0 -48 -9 -65 -35 -65 -37 0 -50 73 -19 104 24 25 54 4 54 -39z m5522 -22 c23 -21 23 -65 1 -86 -18 -15 -369 -188 -477 -233 -50 -22 -63 -24 -87 -13 -33 13 -46 47 -30 78 15 28 65 55 271 152 276 129 288 133 322 102z m-5524 -286 c17 -34 -2 -80 -35 -85 -19 -3 -23 3 -28 42 -11 74 34 104 63 43z m4499 -173 c12 -3 27 -19 33 -35 19 -45 -6 -72 -113 -123 -50 -24 -158 -76 -239 -115 -169 -82 -197 -90 -233 -67 -30 20 -34 65 -7 89 26 23 506 255 532 256 3 1 15 -2 27 -5z m-4503 -146 c23 -32 20 -54 -10 -77 -33 -26 -41 -21 -49 29 -11 64 27 94 59 48z m10 -340 c13 -36 -9 -78 -40 -78 -33 0 -46 49 -23 91 15 29 51 21 63 -13z m3516 -20 c46 -50 18 -76 -204 -183 -350 -169 -358 -171 -392 -120 -29 44 -3 73 121 134 239 118 401 191 427 191 15 0 36 -10 48 -22z m-3522 -301 c16 -33 8 -63 -19 -78 -43 -23 -67 41 -33 89 19 28 35 24 52 -11z m2512 -177 c26 -26 25 -62 -3 -88 -30 -28 -502 -252 -531 -252 -12 0 -35 13 -50 29 l-27 28 28 33 c18 22 67 52 143 88 286 136 386 181 403 182 9 0 26 -9 37 -20z m-2514 -146 c20 -29 11 -69 -18 -87 -37 -24 -64 44 -38 94 15 26 36 24 56 -7z m-5221 -233 c101 -45 164 -137 173 -251 8 -114 -22 -174 -119 -242 l-24 -17 46 -43 c55 -50 73 -103 67 -188 -11 -151 -122 -240 -300 -240 -120 0 -212 49 -261 138 -32 60 -46 144 -27 167 16 19 83 20 99 1 6 -7 14 -35 18 -62 5 -38 14 -56 41 -82 45 -43 70 -52 141 -52 64 0 107 22 145 73 27 36 28 132 2 172 -24 36 -90 65 -153 65 -28 0 -54 3 -56 8 -3 4 -7 27 -8 52 l-4 45 75 6 c89 7 153 36 175 79 17 34 20 135 4 177 -26 68 -95 113 -176 113 -113 0 -174 -39 -200 -130 -20 -71 -28 -80 -73 -80 -50 0 -64 19 -56 72 20 124 95 208 213 238 64 16 202 6 258 -19z m5229 -117 c9 -34 -10 -64 -39 -64 -18 0 -26 7 -31 25 -7 30 3 77 19 87 15 9 44 -17 51 -48z m1510 14 c9 -12 16 -30 16 -38 0 -25 -49 -66 -110 -93 -30 -14 -135 -64 -234 -111 -194 -94 -228 -102 -265 -62 -25 27 -21 45 19 81 37 33 492 245 527 245 22 0 37 -7 47 -22z m-1538 -296 c6 -4 17 -18 23 -30 16 -30 -1 -78 -30 -85 -34 -9 -53 59 -29 104 11 20 19 23 36 11z m529 -187 c14 -13 25 -30 25 -38 0 -31 -68 -73 -299 -182 l-243 -115 -1189 0 c-654 0 -1189 -3 -1189 -7 0 -5 7 -30 16 -58 21 -69 11 -123 -30 -171 l-33 -39 24 -32 c50 -66 39 -162 -25 -211 -32 -25 -43 -27 -121 -27 -75 0 -90 3 -118 24 -37 28 -75 107 -66 140 4 17 12 21 32 19 20 -2 31 -14 50 -56 21 -44 31 -54 62 -63 85 -26 139 13 139 100 0 50 -15 64 -84 80 -30 7 -59 17 -62 23 -11 18 31 45 80 52 56 9 86 42 86 97 0 83 -39 119 -130 119 -41 0 -56 -5 -75 -25 -14 -13 -25 -32 -25 -42 0 -27 -28 -63 -49 -63 -35 0 -45 26 -27 70 9 22 16 47 16 55 0 13 -98 15 -778 15 -688 0 -780 2 -800 16 -28 19 -29 64 -3 88 18 16 144 18 2128 19 l2108 2 3 25 c4 27 19 50 33 50 4 0 17 -10 28 -21 24 -26 19 -28 256 86 220 106 224 107 260 70z m-506 -497 c14 -25 14 -29 -5 -55 -30 -40 -47 -35 -58 14 -15 70 31 99 63 41z m-7 -315 c22 -20 23 -42 2 -71 -38 -55 -87 6 -54 69 13 23 28 24 52 2z m-2890 -54 c15 -8 18 -19 16 -57 l-3 -47 -297 -3 -298 -2 0 -159 c0 -88 2 -165 5 -173 4 -10 55 -12 263 -10 251 3 258 3 277 -17 15 -18 17 -28 9 -59 l-9 -37 -270 -5 -270 -5 0 -155 0 -155 275 -3 c304 -2 305 -3 293 -66 -11 -60 2 -57 -347 -55 -177 1 -329 6 -339 11 -16 8 -17 40 -15 501 l3 492 35 6 c66 10 652 9 672 -2z m2902 -291 c18 -51 -28 -100 -62 -66 -15 15 -16 53 -1 79 15 29 51 21 63 -13z m-6 -320 c14 -31 3 -72 -24 -82 -40 -15 -59 48 -28 92 19 28 35 24 52 -10z m-5069 -112 c7 -8 11 -36 9 -63 l-3 -48 -258 -3 -258 -2 6 -23 c21 -70 80 -120 252 -216 62 -35 135 -83 162 -107 161 -145 133 -388 -55 -480 -46 -22 -69 -27 -142 -28 -105 -1 -171 19 -231 70 -47 41 -68 77 -87 149 -26 95 -14 125 50 125 36 0 62 -29 70 -80 10 -61 31 -96 77 -127 51 -34 143 -38 202 -9 81 40 119 154 79 233 -32 63 -70 94 -203 169 -133 75 -216 143 -254 208 -26 44 -55 151 -55 203 l0 33 308 3 c169 1 310 3 313 5 4 1 12 -4 18 -12z m5075 -232 c10 -37 -10 -66 -42 -62 -22 2 -28 9 -30 36 -2 19 4 44 13 59 16 23 18 24 35 8 10 -9 21 -27 24 -41z m-13 -295 c7 -14 9 -41 4 -75 l-6 -53 143 -68 c79 -37 197 -95 263 -128 118 -59 120 -61 123 -97 2 -28 -2 -40 -20 -52 -12 -9 -29 -16 -38 -16 -8 0 -123 53 -255 118 l-240 117 -2129 2 c-1979 2 -2130 4 -2147 19 -23 21 -24 61 -2 86 15 17 95 18 2144 18 1418 0 2130 3 2134 10 3 6 0 13 -8 16 -19 7 -31 92 -16 110 17 20 37 17 50 -7z m-2461 -330 c5 -6 3 -23 -3 -36 -10 -23 -13 -23 -159 -23 l-149 0 6 -22 c10 -33 44 -67 90 -90 104 -53 165 -102 190 -152 31 -61 31 -97 4 -153 -33 -68 -78 -93 -167 -93 -85 0 -119 14 -158 65 -32 42 -44 115 -21 133 24 20 42 5 66 -54 26 -60 52 -79 114 -83 32 -1 44 4 73 33 29 29 34 41 34 79 0 39 -5 49 -39 80 -21 19 -69 53 -107 76 -112 66 -146 106 -166 191 -10 43 -9 53 2 60 23 14 381 5 390 -11z m2466 -15 c8 -43 -9 -84 -34 -84 -16 0 -21 10 -26 52 -7 53 0 68 36 68 12 0 19 -11 24 -36z m1010 -273 c5 -4 68 -35 139 -69 290 -135 331 -155 358 -180 31 -29 34 -57 10 -84 -28 -31 -70 -21 -247 63 -94 45 -198 94 -232 109 -33 15 -77 42 -97 59 -32 29 -35 35 -26 60 14 39 70 64 95 42z m-1016 -36 c18 -22 15 -62 -5 -85 -33 -37 -55 -17 -55 51 0 43 35 64 60 34z m-2990 -240 c13 -16 6 -80 -10 -90 -6 -3 -138 -6 -295 -5 l-285 1 2 -173 3 -172 251 3 c173 2 258 -1 273 -8 16 -9 21 -21 21 -49 0 -21 -5 -43 -12 -50 -9 -9 -84 -12 -275 -12 l-263 0 0 -160 0 -160 283 -2 282 -3 3 -45 c3 -33 -1 -47 -14 -57 -14 -10 -89 -13 -320 -13 -166 0 -316 3 -333 6 l-31 7 0 492 c0 270 3 495 7 498 3 4 163 7 353 7 296 0 349 -2 360 -15z m3003 -108 c7 -21 5 -34 -7 -52 -31 -47 -65 -25 -66 41 0 49 57 58 73 11z m2059 -116 c34 -16 152 -72 260 -125 168 -81 199 -100 204 -122 9 -35 -10 -72 -40 -80 -25 -6 -58 8 -398 170 -171 82 -206 118 -158 166 27 27 57 25 132 -9z m-2057 -211 c9 -28 -3 -58 -27 -71 -18 -9 -24 -8 -35 7 -31 42 -2 115 37 94 10 -5 22 -19 25 -30z m3059 -274 c39 -19 148 -70 241 -115 94 -44 183 -91 200 -104 33 -27 36 -58 9 -88 -25 -27 -60 -24 -139 15 -39 18 -144 68 -235 111 -178 83 -237 126 -225 164 6 19 47 50 69 51 5 0 41 -15 80 -34z m-3068 -41 c20 -30 12 -70 -17 -85 -43 -24 -69 51 -32 92 21 24 29 23 49 -7z m-5292 -171 c14 -5 16 -57 16 -479 0 -260 -3 -480 -6 -489 -9 -22 -50 -20 -72 4 -10 11 -24 38 -31 60 -16 54 -58 85 -138 104 -44 10 -74 23 -85 37 -42 51 -16 68 108 71 l99 3 3 334 c1 226 6 339 13 348 12 13 65 18 93 7z m5294 -167 c17 -35 7 -65 -23 -73 -33 -8 -45 2 -45 37 0 68 42 90 68 36z m4106 -124 l101 -47 153 -6 c139 -4 155 -7 168 -25 17 -23 10 -63 -14 -81 -14 -11 -15 -16 -4 -31 26 -38 32 -63 20 -88 -19 -43 -70 -34 -216 36 l-127 61 -122 7 c-67 3 -124 9 -128 13 -4 3 -8 42 -10 85 -5 139 21 150 179 76z m-3596 -78 c23 -29 18 -71 -10 -86 -11 -6 -113 -10 -258 -9 l-240 0 0 -49 c0 -40 -4 -53 -19 -61 -27 -14 -51 21 -51 72 l0 38 -2112 0 c-1951 0 -2113 1 -2130 17 -25 23 -23 68 4 87 20 14 265 16 2409 16 l2388 0 19 -25z m1000 5 c27 -25 28 -51 5 -79 -17 -21 -26 -21 -258 -22 -313 -2 -311 -2 -329 17 -22 21 -20 60 4 84 19 19 33 20 288 20 256 0 269 -1 290 -20z m1002 0 c24 -24 26 -63 4 -84 -17 -18 -16 -18 -331 -17 -140 0 -230 4 -243 11 -32 17 -36 57 -9 86 l22 24 269 0 c255 0 269 -1 288 -20z m1006 -4 c26 -22 27 -25 15 -54 -7 -17 -22 -34 -32 -37 -35 -12 -535 -8 -556 4 -33 17 -37 62 -7 89 25 22 29 22 289 22 263 0 264 0 291 -24z m2002 8 c32 -22 30 -69 -5 -91 -24 -16 -53 -17 -282 -15 -141 2 -266 6 -277 8 -33 8 -40 61 -12 91 21 23 22 23 288 23 224 0 269 -2 288 -16z m1006 -5 c32 -25 33 -40 4 -74 l-23 -26 -266 0 c-296 -1 -309 1 -309 58 0 60 13 63 306 63 249 0 263 -1 288 -21z m1005 -3 c25 -27 21 -70 -9 -86 -11 -6 -133 -10 -289 -10 -268 0 -270 0 -285 22 -22 32 -20 64 6 82 19 14 64 16 288 16 l267 0 22 -24z m933 7 c19 -17 24 -58 10 -81 -16 -24 -70 -29 -283 -24 -237 5 -252 9 -252 62 0 56 13 59 272 60 204 0 237 -2 253 -17z m-11332 -303 c13 -8 15 -52 15 -297 l0 -288 -24 0 c-19 0 -30 10 -45 40 -17 32 -30 43 -68 55 -55 18 -73 33 -65 54 5 12 21 16 61 16 40 0 55 4 60 16 3 9 6 101 6 204 0 169 2 190 18 199 21 13 23 13 42 1z m8172 -193 c241 -117 269 -142 220 -199 -24 -28 -54 -22 -180 36 -352 163 -422 203 -422 246 0 18 25 44 50 52 22 8 113 -29 332 -135z m-5307 38 c18 -42 6 -85 -24 -85 -24 0 -41 28 -41 67 0 59 44 71 65 18z m3 -327 c11 -23 11 -33 0 -55 -19 -40 -49 -37 -61 6 -4 19 -6 45 -2 58 8 33 45 27 63 -9z m6266 -176 c125 -60 242 -122 258 -137 32 -31 31 -57 -5 -88 -27 -23 -44 -19 -177 45 -58 27 -159 75 -225 105 -185 86 -220 120 -173 170 18 20 30 24 58 20 19 -3 138 -54 264 -115z m-9510 82 c10 -26 7 -79 -6 -92 -9 -9 -89 -12 -300 -12 l-288 0 0 -170 0 -170 270 0 c303 0 294 2 281 -75 l-6 -40 -273 -3 -272 -2 0 -155 0 -154 280 -3 c313 -3 305 -1 295 -73 -3 -21 -7 -41 -9 -42 -6 -7 -675 -5 -686 2 -15 10 -14 977 2 993 9 9 102 12 359 12 307 0 348 -2 353 -16z m3235 -213 c22 -14 18 -69 -7 -94 -26 -26 -40 -16 -49 36 -8 53 19 81 56 58z m7089 -265 c147 -65 449 -216 462 -231 16 -19 4 -72 -20 -85 -10 -6 -28 -10 -39 -10 -27 0 -499 226 -528 253 -30 27 -30 71 -1 91 31 22 39 21 126 -18z m-7076 -82 c15 -32 -7 -77 -39 -82 -18 -3 -23 3 -28 32 -10 49 1 76 31 76 17 0 28 -8 36 -26z m-3 -326 c20 -35 2 -78 -33 -78 -35 0 -48 48 -25 91 14 26 40 21 58 -13z m8237 -143 c209 -105 259 -140 247 -173 -11 -32 -36 -52 -64 -52 -40 0 -441 202 -468 235 -25 33 -27 58 -5 79 32 32 76 19 290 -89z m-8240 -181 c25 -38 9 -79 -31 -79 -26 0 -30 4 -33 32 -4 37 12 73 33 73 8 0 22 -12 31 -26z m14 -364 c0 -26 -28 -52 -54 -48 -28 4 -34 59 -10 96 l17 26 23 -28 c13 -15 24 -36 24 -46z m-13 -294 c15 -32 15 -37 -1 -60 -18 -29 -51 -34 -60 -10 -10 26 -7 79 6 92 20 20 38 13 55 -22z"/>
 <path d="M5495 11106 c-44 -19 -82 -69 -102 -134 -25 -81 -25 -342 0 -424 33 -108 109 -162 195 -139 91 25 133 116 140 307 8 222 -27 343 -113 384 -48 23 -78 25 -120 6z"/>
 <path d="M10095 11106 c-44 -19 -82 -69 -102 -134 -25 -81 -25 -342 0 -424 33 -108 109 -162 195 -139 91 25 133 116 140 307 8 222 -27 343 -113 384 -48 23 -78 25 -120 6z"/>
 <path d="M3590 10940 l0 -162 138 4 c154 4 189 15 219 71 24 45 23 133 -2 174 -32 54 -72 67 -222 71 l-133 4 0 -162z"/>
 <path d="M3590 10550 l0 -130 95 0 c127 0 188 14 219 51 50 59 39 144 -23 186 -31 21 -45 23 -162 23 l-129 0 0 -130z"/>
 <path d="M8190 10940 l0 -162 138 4 c154 4 189 15 219 71 24 45 23 133 -2 174 -32 54 -72 67 -222 71 l-133 4 0 -162z"/>
 <path d="M8190 10550 l0 -130 95 0 c127 0 188 14 219 51 50 59 39 144 -23 186 -31 21 -45 23 -162 23 l-129 0 0 -130z"/>
 </g>

</svg>