<?xml version="1.0" encoding="UTF-8" standalone="no"?>
<!-- Created with Inkscape (http://www.inkscape.org/) -->

<svg
   xmlns:dc="http://purl.org/dc/elements/1.1/"
   xmlns:cc="http://creativecommons.org/ns#"
   xmlns:rdf="http://www.w3.org/1999/02/22-rdf-syntax-ns#"
   xmlns:svg="http://www.w3.org/2000/svg"
   xmlns="http://www.w3.org/2000/svg"
   xmlns:sodipodi="http://sodipodi.sourceforge.net/DTD/sodipodi-0.dtd"
   xmlns:inkscape="http://www.inkscape.org/namespaces/inkscape"
   width="62.936375mm"
   height="60.89962mm"
   viewBox="0 0 62.936375 60.89962"
   version="1.1"
   id="svg527"
   inkscape:version="0.92.1 r15371"
   sodipodi:docname="Chapter6-img007.svg">
  <defs
     id="defs521">
    <clipPath
       clipPathUnits="userSpaceOnUse"
       id="clipPath36">
      <path
         d="M 155.64,573.96 H 334.563 V 746.851 H 155.64 Z"
         id="path34"
         inkscape:connector-curvature="0" />
    </clipPath>
  </defs>
  <sodipodi:namedview
     id="base"
     pagecolor="#ffffff"
     bordercolor="#666666"
     borderopacity="1.0"
     inkscape:pageopacity="0.0"
     inkscape:pageshadow="2"
     inkscape:zoom="1.979899"
     inkscape:cx="141.26535"
     inkscape:cy="80.313273"
     inkscape:document-units="mm"
     inkscape:current-layer="layer1"
     showgrid="false"
     inkscape:window-width="1920"
     inkscape:window-height="1018"
     inkscape:window-x="-8"
     inkscape:window-y="-8"
     inkscape:window-maximized="1" />
  <metadata
     id="metadata524">
    <rdf:RDF>
      <cc:Work
         rdf:about="">
        <dc:format>image/svg+xml</dc:format>
        <dc:type
           rdf:resource="http://purl.org/dc/dcmitype/StillImage" />
        <dc:title></dc:title>
      </cc:Work>
    </rdf:RDF>
  </metadata>
  <g
     inkscape:label="Layer 1"
     inkscape:groupmode="layer"
     id="layer1"
     transform="translate(-69.829436,-64.710904)">
    <g
       transform="matrix(0.35277777,0,0,-0.35277777,14.923104,328.16499)"
       id="g455">
      <path
         inkscape:connector-curvature="0"
         id="path28"
         style="fill:#ffffff;fill-opacity:1;fill-rule:nonzero;stroke:none"
         d="m 245.634,617.283 -89.54,26.121 55.4,44.716 89.538,-26.122 -55.398,-44.715" />
      <g
         id="g30">
        <g
           clip-path="url(#clipPath36)"
           id="g32">
          <path
             inkscape:connector-curvature="0"
             id="path38"
             style="fill:none;stroke:#231f20;stroke-width:0.42899999;stroke-linecap:butt;stroke-linejoin:miter;stroke-miterlimit:4;stroke-dasharray:none;stroke-opacity:1"
             d="m 245.634,617.283 -89.54,26.121 55.4,44.716 89.538,-26.122 z m -89.581,26.064 v -8.806 l 89.285,-26.179 v 8.805 m 0.035,-8.955 55.215,45.112 v 8.882" />
        </g>
      </g>
      <path
         inkscape:connector-curvature="0"
         id="path40"
         style="fill:#ffffff;fill-opacity:1;fill-rule:nonzero;stroke:none"
         d="m 228.658,717.228 c 0,0 21.445,2.107 34.377,-8.106" />
      <path
         inkscape:connector-curvature="0"
         id="path42"
         style="fill:none;stroke:#2a3e92;stroke-width:0.42899999;stroke-linecap:butt;stroke-linejoin:miter;stroke-miterlimit:4;stroke-dasharray:1.716, 1.716;stroke-dashoffset:0;stroke-opacity:1"
         d="m 228.658,717.228 c 0,0 21.445,2.107 34.377,-8.106" />
      <path
         inkscape:connector-curvature="0"
         id="path44"
         style="fill:#2a3e92;fill-opacity:1;fill-rule:nonzero;stroke:none"
         d="m 265.171,708.557 c -0.849,1.215 -1.326,2.097 -1.938,3.161 l -2.682,-3.398 c 0.44,-0.1 2.145,-0.608 3.524,-1.151 1.476,-0.582 2.75,-1.189 3.521,-1.654 -0.632,0.641 -1.518,1.741 -2.425,3.042" />
      <path
         inkscape:connector-curvature="0"
         id="path46"
         style="fill:#ffffff;fill-opacity:1;fill-rule:nonzero;stroke:none"
         d="M 228.208,738.077 V 652.261" />
      <path
         inkscape:connector-curvature="0"
         id="path48"
         style="fill:none;stroke:#231f20;stroke-width:0.42899999;stroke-linecap:butt;stroke-linejoin:miter;stroke-miterlimit:4;stroke-dasharray:none;stroke-opacity:1"
         d="M 228.208,738.077 V 652.261" />
      <path
         inkscape:connector-curvature="0"
         id="path50"
         style="fill:#231f20;fill-opacity:1;fill-rule:nonzero;stroke:none"
         d="m 226.889,741.117 c -0.643,-2.128 -1.236,-3.512 -1.92,-5.219 h 6.492 c -0.29,0.611 -1.277,3.091 -1.92,5.219 -0.688,2.277 -1.158,4.343 -1.327,5.682 -0.167,-1.339 -0.638,-3.405 -1.325,-5.682" />
      <path
         inkscape:connector-curvature="0"
         id="path52"
         style="fill:none;stroke:#2a3e92;stroke-width:2.14499998;stroke-linecap:butt;stroke-linejoin:miter;stroke-miterlimit:4;stroke-dasharray:none;stroke-opacity:1"
         d="M 269.636,707.211 228.239,652.206" />
      <path
         inkscape:connector-curvature="0"
         id="path54"
         style="fill:#2a3e92;fill-opacity:1;fill-rule:nonzero;stroke:none"
         d="m 270.28,709.896 c -1.494,-1.094 -2.583,-1.719 -3.893,-2.512 l 4.323,-3.254 c 0.113,0.552 0.698,2.698 1.336,4.437 0.684,1.862 1.405,3.473 1.965,4.449 -0.784,-0.808 -2.132,-1.947 -3.731,-3.12" />
      <text
         id="text62"
         style="font-variant:normal;font-weight:normal;font-size:8px;font-family:Helvetica;-inkscape-font-specification:Helvetica;writing-mode:lr-tb;fill:#231f20;fill-opacity:1;fill-rule:nonzero;stroke:none"
         transform="matrix(1,0,0,-1,240.3016,575.76)">
        <tspan
           id="tspan56"
           sodipodi:role="line"
           y="0"
           x="0 2.224 6.6719999 11.12 15.568">[100]</tspan>
        <tspan
           id="tspan58"
           sodipodi:role="line"
           y="-84.720001"
           x="76.469597 78.693604 83.141602 87.5896 92.037598">[010]</tspan>
        <tspan
           id="tspan60"
           sodipodi:role="line"
           y="-163.6432"
           x="-35.203201 -32.979198 -28.5312 -24.0832 -19.635201">[001]</tspan>
      </text>
      <text
         id="text68"
         style="font-variant:normal;font-weight:bold;font-size:8px;font-family:Helvetica;-inkscape-font-specification:Helvetica-Bold;writing-mode:lr-tb;fill:#2a3e92;fill-opacity:1;fill-rule:nonzero;stroke:none"
         transform="matrix(1,0,0,-1,241.3392,699.0792)">
        <tspan
           id="tspan64"
           y="0"
           x="0">M</tspan>
        <tspan
           id="tspan66"
           y="-15.2224"
           x="25.7792">H</tspan>
      </text>
      <text
         id="text72"
         style="font-variant:normal;font-weight:normal;font-size:8px;font-family:Helvetica;-inkscape-font-specification:Helvetica;writing-mode:lr-tb;fill:#231f20;fill-opacity:1;fill-rule:nonzero;stroke:none"
         transform="matrix(1,0,0,-1,181.232,610.7432)">
        <tspan
           id="tspan70"
           sodipodi:role="line"
           y="0"
           x="0 6.224 10.672 17.336 21.784 27.120001">GaMnAs</tspan>
      </text>
      <path
         inkscape:connector-curvature="0"
         id="path74"
         style="fill:#ffffff;fill-opacity:1;fill-rule:nonzero;stroke:none"
         d="M 274.022,711.22 V 649.921" />
      <path
         inkscape:connector-curvature="0"
         id="path76"
         style="fill:none;stroke:#2a3e92;stroke-width:0.42899999;stroke-linecap:butt;stroke-linejoin:miter;stroke-miterlimit:4;stroke-dasharray:1.716, 1.716;stroke-dashoffset:0;stroke-opacity:1"
         d="M 274.022,711.22 V 649.921" />
      <path
         inkscape:connector-curvature="0"
         id="path78"
         style="fill:none;stroke:#d22027;stroke-width:0.42899999;stroke-linecap:butt;stroke-linejoin:miter;stroke-miterlimit:4;stroke-dasharray:1.716, 1.716;stroke-dashoffset:0;stroke-opacity:1"
         d="M 255.459,704.001 V 644.12 m -26.671,46.454 c 0,0 7.192,2.534 12.195,-2.218" />
      <path
         inkscape:connector-curvature="0"
         id="path80"
         style="fill:#d22027;fill-opacity:1;fill-rule:nonzero;stroke:none"
         d="m 243.058,687.598 c -0.734,1.288 -1.13,2.209 -1.641,3.324 l -2.981,-3.138 c 0.429,-0.141 2.08,-0.802 3.404,-1.468 1.417,-0.713 2.632,-1.434 3.356,-1.968 -0.571,0.696 -1.353,1.872 -2.138,3.25" />
      <path
         inkscape:connector-curvature="0"
         id="path82"
         style="fill:none;stroke:#d22027;stroke-width:2.14499998;stroke-linecap:butt;stroke-linejoin:miter;stroke-miterlimit:4;stroke-dasharray:none;stroke-opacity:1"
         d="m 228.342,652.882 24.173,45.656" />
      <path
         inkscape:connector-curvature="0"
         id="path84"
         style="fill:#d22027;fill-opacity:1;fill-rule:nonzero;stroke:none"
         d="m 252.729,701.292 c -1.304,-1.316 -2.279,-2.105 -3.449,-3.095 l 4.782,-2.532 c 0.024,0.564 0.265,2.775 0.621,4.593 0.381,1.945 0.84,3.65 1.239,4.702 -0.646,-0.921 -1.799,-2.258 -3.193,-3.668" />
      <text
         id="text94"
         style="font-variant:normal;font-weight:normal;font-size:8px;font-family:Symbol;-inkscape-font-specification:Symbol;writing-mode:lr-tb;fill:#2a3e92;fill-opacity:1;fill-rule:nonzero;stroke:none"
         transform="matrix(1,0,0,-1,232.9681,692.8578)">
        <tspan
           id="tspan86"
           y="0"
           x="0">θ</tspan>
        <tspan
           id="tspan88"
           y="-25.315201"
           x="13.8872">θ</tspan>
        <tspan
           id="tspan90"
           y="55.2104"
           x="10.704">ϕ</tspan>
        <tspan
           id="tspan92"
           y="54.2752"
           x="26.792">ϕ</tspan>
      </text>
      <text
         id="text100"
         style="font-variant:normal;font-weight:normal;font-size:6.00710011px;font-family:Symbol;-inkscape-font-specification:Symbol;writing-mode:lr-tb;fill:#2a3e92;fill-opacity:1;fill-rule:nonzero;stroke:none"
         transform="matrix(1,0,0,-1,250.7753,715.8134)">
        <tspan
           id="tspan96"
           y="0"
           x="0">Η</tspan>
        <tspan
           id="tspan98"
           y="80.234428"
           x="13.732831">Η</tspan>
      </text>
      <path
         inkscape:connector-curvature="0"
         id="path102"
         style="fill:#ffffff;fill-opacity:1;fill-rule:nonzero;stroke:none"
         d="m 228.172,652.398 78.51,10.223" />
      <path
         inkscape:connector-curvature="0"
         id="path104"
         style="fill:none;stroke:#231f20;stroke-width:0.42899999;stroke-linecap:butt;stroke-linejoin:miter;stroke-miterlimit:4;stroke-dasharray:none;stroke-opacity:1"
         d="m 228.172,652.398 78.51,10.223" />
      <path
         inkscape:connector-curvature="0"
         id="path106"
         style="fill:#231f20;fill-opacity:1;fill-rule:nonzero;stroke:none"
         d="m 309.526,664.321 c -2.194,0.363 -3.642,0.771 -5.424,1.231 l 0.839,-6.439 c 0.569,0.366 2.9,1.666 4.927,2.577 2.171,0.977 4.157,1.71 5.464,2.05 -1.351,-0.007 -3.459,0.194 -5.806,0.581" />
      <text
         id="text110"
         style="font-variant:normal;font-weight:normal;font-size:7.72313404px;font-family:Helvetica;-inkscape-font-specification:Helvetica;writing-mode:lr-tb;fill:#231f20;fill-opacity:1;fill-rule:nonzero;stroke:none"
         transform="matrix(0.96592909,-0.25880685,-0.25880685,-0.96592909,198.1307,635.77)">
        <tspan
           id="tspan108"
           sodipodi:role="line"
           y="0"
           x="0 2.1470313 6.4410939 10.735156 15.029219">[110]</tspan>
      </text>
      <text
         id="text114"
         style="font-variant:normal;font-weight:normal;font-size:7.7230382px;font-family:Helvetica;-inkscape-font-specification:Helvetica;writing-mode:lr-tb;fill:#231f20;fill-opacity:1;fill-rule:nonzero;stroke:none"
         transform="matrix(0.76601979,0.64281698,0.64281698,-0.76601979,193.6947,657.3989)">
        <tspan
           id="tspan112"
           sodipodi:role="line"
           y="0"
           x="0 2.1470046 6.4410138 10.735023 15.029032">[110]</tspan>
      </text>
      <path
         inkscape:connector-curvature="0"
         id="path116"
         style="fill:#231f20;fill-opacity:1;fill-rule:nonzero;stroke:none"
         d="m 194.785,666.733 2.568,2.274" />
      <path
         inkscape:connector-curvature="0"
         id="path118"
         style="fill:none;stroke:#231f20;stroke-width:0.42899999;stroke-linecap:butt;stroke-linejoin:miter;stroke-miterlimit:4;stroke-dasharray:none;stroke-opacity:1"
         d="m 194.785,666.733 2.568,2.274" />
      <path
         inkscape:connector-curvature="0"
         id="path120"
         style="fill:#ffffff;fill-opacity:1;fill-rule:nonzero;stroke:none"
         d="m 228.621,652.735 31.057,-66.258" />
      <path
         inkscape:connector-curvature="0"
         id="path122"
         style="fill:none;stroke:#231f20;stroke-width:0.42899999;stroke-linecap:butt;stroke-linejoin:miter;stroke-miterlimit:4;stroke-dasharray:none;stroke-opacity:1"
         d="m 228.621,652.735 31.057,-66.258" />
      <path
         inkscape:connector-curvature="0"
         id="path124"
         style="fill:#231f20;fill-opacity:1;fill-rule:nonzero;stroke:none"
         d="m 262.163,584.285 c -0.322,2.2 -0.373,3.704 -0.477,5.54 l -5.879,-2.756 c 0.522,-0.429 2.468,-2.256 3.953,-3.91 1.589,-1.77 2.892,-3.44 3.613,-4.583 -0.417,1.284 -0.866,3.355 -1.21,5.709" />
      <path
         inkscape:connector-curvature="0"
         id="path126"
         style="fill:none;stroke:#d22027;stroke-width:0.42899999;stroke-linecap:butt;stroke-linejoin:miter;stroke-miterlimit:4;stroke-dasharray:1.716, 1.716;stroke-dashoffset:0;stroke-opacity:1"
         d="m 228.932,652.948 26.857,-9.615" />
      <path
         inkscape:connector-curvature="0"
         id="path128"
         style="fill:#ffffff;fill-opacity:1;fill-rule:nonzero;stroke:none"
         d="m 228.508,652.81 45.727,-2.046" />
      <path
         inkscape:connector-curvature="0"
         id="path130"
         style="fill:none;stroke:#2a3e92;stroke-width:0.42899999;stroke-linecap:butt;stroke-linejoin:miter;stroke-miterlimit:4;stroke-dasharray:1.716, 1.716;stroke-dashoffset:0;stroke-opacity:1"
         d="m 228.508,652.81 45.727,-2.046 m -35.084,-19.499 c 0,0 13.618,-1.706 22.219,15.357" />
      <path
         inkscape:connector-curvature="0"
         id="path132"
         style="fill:#2a3e92;fill-opacity:1;fill-rule:nonzero;stroke:none"
         d="m 261.496,648.828 c -1.022,-1.075 -1.789,-1.72 -2.71,-2.531 l 3.866,-1.948 c 0.011,0.451 0.168,2.223 0.423,3.683 0.274,1.562 0.613,2.933 0.915,3.781 -0.502,-0.747 -1.401,-1.835 -2.494,-2.985" />
      <path
         inkscape:connector-curvature="0"
         id="path134"
         style="fill:none;stroke:#d22027;stroke-width:0.42899999;stroke-linecap:butt;stroke-linejoin:miter;stroke-miterlimit:4;stroke-dasharray:1.716, 1.716;stroke-dashoffset:0;stroke-opacity:1"
         d="m 234.875,640.075 c 0,0 4.231,-0.363 6.487,2.533" />
      <path
         inkscape:connector-curvature="0"
         id="path136"
         style="fill:#d22027;fill-opacity:1;fill-rule:nonzero;stroke:none"
         d="m 241.914,644.749 c -1.21,-0.857 -2.088,-1.342 -3.148,-1.958 l 3.415,-2.661 c 0.098,0.44 0.594,2.148 1.129,3.532 0.57,1.48 1.169,2.758 1.63,3.532 -0.637,-0.636 -1.731,-1.53 -3.026,-2.445" />
    </g>
  </g>
</svg>
