<?xml version="1.0" encoding="UTF-8" standalone="no"?>
<svg
   xmlns:dc="http://purl.org/dc/elements/1.1/"
   xmlns:cc="http://creativecommons.org/ns#"
   xmlns:rdf="http://www.w3.org/1999/02/22-rdf-syntax-ns#"
   xmlns:svg="http://www.w3.org/2000/svg"
   xmlns="http://www.w3.org/2000/svg"
   xmlns:sodipodi="http://sodipodi.sourceforge.net/DTD/sodipodi-0.dtd"
   xmlns:inkscape="http://www.inkscape.org/namespaces/inkscape"
   version="1.0"
   width="683px"
   height="877px"
   viewBox="0 0 6830 8770"
   preserveAspectRatio="xMidYMid meet"
   id="svg42"
   sodipodi:docname="ZacharchenyGaAs.svg"
   inkscape:version="0.92.1 r15371">
  <metadata
     id="metadata48">
    <rdf:RDF>
      <cc:Work
         rdf:about="">
        <dc:format>image/svg+xml</dc:format>
        <dc:type
           rdf:resource="http://purl.org/dc/dcmitype/StillImage" />
        <dc:title />
      </cc:Work>
    </rdf:RDF>
  </metadata>
  <defs
     id="defs46">
    <marker
       inkscape:stockid="Arrow1Mend"
       orient="auto"
       refY="0.0"
       refX="0.0"
       id="marker13313"
       style="overflow:visible;"
       inkscape:isstock="true">
      <path
         id="path13311"
         d="M 0.0,0.0 L 5.0,-5.0 L -12.5,0.0 L 5.0,5.0 L 0.0,0.0 z "
         style="fill-rule:evenodd;stroke:#ff0000;stroke-width:1pt;stroke-opacity:1;fill:#ff0000;fill-opacity:1"
         transform="scale(0.4) rotate(180) translate(10,0)" />
    </marker>
    <marker
       inkscape:stockid="Arrow1Mend"
       orient="auto"
       refY="0.0"
       refX="0.0"
       id="marker12720"
       style="overflow:visible;"
       inkscape:isstock="true">
      <path
         id="path12718"
         d="M 0.0,0.0 L 5.0,-5.0 L -12.5,0.0 L 5.0,5.0 L 0.0,0.0 z "
         style="fill-rule:evenodd;stroke:#ff0000;stroke-width:1pt;stroke-opacity:1;fill:#ff0000;fill-opacity:1"
         transform="scale(0.4) rotate(180) translate(10,0)" />
    </marker>
    <marker
       inkscape:isstock="true"
       style="overflow:visible;"
       id="marker11760"
       refX="0.0"
       refY="0.0"
       orient="auto"
       inkscape:stockid="Arrow1Mend"
       inkscape:collect="always">
      <path
         transform="scale(0.4) rotate(180) translate(10,0)"
         style="fill-rule:evenodd;stroke:#ff0000;stroke-width:1pt;stroke-opacity:1;fill:#ff0000;fill-opacity:1"
         d="M 0.0,0.0 L 5.0,-5.0 L -12.5,0.0 L 5.0,5.0 L 0.0,0.0 z "
         id="path11758" />
    </marker>
    <marker
       inkscape:stockid="Arrow1Mend"
       orient="auto"
       refY="0.0"
       refX="0.0"
       id="marker11100"
       style="overflow:visible;"
       inkscape:isstock="true">
      <path
         id="path11098"
         d="M 0.0,0.0 L 5.0,-5.0 L -12.5,0.0 L 5.0,5.0 L 0.0,0.0 z "
         style="fill-rule:evenodd;stroke:#ff0000;stroke-width:1pt;stroke-opacity:1;fill:#ff0000;fill-opacity:1"
         transform="scale(0.4) rotate(180) translate(10,0)" />
    </marker>
    <marker
       inkscape:isstock="true"
       style="overflow:visible;"
       id="marker10027"
       refX="0.0"
       refY="0.0"
       orient="auto"
       inkscape:stockid="Arrow1Mend"
       inkscape:collect="always">
      <path
         transform="scale(0.4) rotate(180) translate(10,0)"
         style="fill-rule:evenodd;stroke:#ff0000;stroke-width:1pt;stroke-opacity:1;fill:#ff0000;fill-opacity:1"
         d="M 0.0,0.0 L 5.0,-5.0 L -12.5,0.0 L 5.0,5.0 L 0.0,0.0 z "
         id="path10025" />
    </marker>
    <marker
       inkscape:stockid="TriangleOutM"
       orient="auto"
       refY="0.0"
       refX="0.0"
       id="TriangleOutM"
       style="overflow:visible"
       inkscape:isstock="true">
      <path
         id="path4722"
         d="M 5.77,0.0 L -2.88,5.0 L -2.88,-5.0 L 5.77,0.0 z "
         style="fill-rule:evenodd;stroke:#ff0000;stroke-width:1pt;stroke-opacity:1;fill:#ff0000;fill-opacity:1"
         transform="scale(0.4)" />
    </marker>
    <marker
       inkscape:stockid="Arrow2Lend"
       orient="auto"
       refY="0.0"
       refX="0.0"
       id="marker8775"
       style="overflow:visible;"
       inkscape:isstock="true">
      <path
         id="path8773"
         style="fill-rule:evenodd;stroke-width:0.625;stroke-linejoin:round;stroke:#ff0000;stroke-opacity:1;fill:#ff0000;fill-opacity:1"
         d="M 8.7185878,4.0337352 L -2.2072895,0.016013256 L 8.7185884,-4.0017078 C 6.9730900,-1.6296469 6.9831476,1.6157441 8.7185878,4.0337352 z "
         transform="scale(1.1) rotate(180) translate(1,0)" />
    </marker>
    <marker
       inkscape:stockid="Arrow1Mend"
       orient="auto"
       refY="0.0"
       refX="0.0"
       id="marker8579"
       style="overflow:visible;"
       inkscape:isstock="true"
       inkscape:collect="always">
      <path
         id="path8577"
         d="M 0.0,0.0 L 5.0,-5.0 L -12.5,0.0 L 5.0,5.0 L 0.0,0.0 z "
         style="fill-rule:evenodd;stroke:#ff0000;stroke-width:1pt;stroke-opacity:1;fill:#ff0000;fill-opacity:1"
         transform="scale(0.4) rotate(180) translate(10,0)" />
    </marker>
    <marker
       inkscape:stockid="Arrow2Send"
       orient="auto"
       refY="0.0"
       refX="0.0"
       id="Arrow2Send"
       style="overflow:visible;"
       inkscape:isstock="true">
      <path
         id="path4610"
         style="fill-rule:evenodd;stroke-width:0.625;stroke-linejoin:round;stroke:#ff0000;stroke-opacity:1;fill:#ff0000;fill-opacity:1"
         d="M 8.7185878,4.0337352 L -2.2072895,0.016013256 L 8.7185884,-4.0017078 C 6.9730900,-1.6296469 6.9831476,1.6157441 8.7185878,4.0337352 z "
         transform="scale(0.3) rotate(180) translate(-2.3,0)" />
    </marker>
    <marker
       inkscape:stockid="Arrow2Lend"
       orient="auto"
       refY="0.0"
       refX="0.0"
       id="marker8123"
       style="overflow:visible;"
       inkscape:isstock="true">
      <path
         id="path8121"
         style="fill-rule:evenodd;stroke-width:0.625;stroke-linejoin:round;stroke:#ff0000;stroke-opacity:1;fill:#ff0000;fill-opacity:1"
         d="M 8.7185878,4.0337352 L -2.2072895,0.016013256 L 8.7185884,-4.0017078 C 6.9730900,-1.6296469 6.9831476,1.6157441 8.7185878,4.0337352 z "
         transform="scale(1.1) rotate(180) translate(1,0)" />
    </marker>
    <marker
       inkscape:stockid="Arrow2Lend"
       orient="auto"
       refY="0.0"
       refX="0.0"
       id="marker7945"
       style="overflow:visible;"
       inkscape:isstock="true">
      <path
         id="path7943"
         style="fill-rule:evenodd;stroke-width:0.625;stroke-linejoin:round;stroke:#ff0000;stroke-opacity:1;fill:#ff0000;fill-opacity:1"
         d="M 8.7185878,4.0337352 L -2.2072895,0.016013256 L 8.7185884,-4.0017078 C 6.9730900,-1.6296469 6.9831476,1.6157441 8.7185878,4.0337352 z "
         transform="scale(1.1) rotate(180) translate(1,0)" />
    </marker>
    <marker
       inkscape:stockid="Arrow1Mend"
       orient="auto"
       refY="0.0"
       refX="0.0"
       id="marker7773"
       style="overflow:visible;"
       inkscape:isstock="true">
      <path
         id="path7771"
         d="M 0.0,0.0 L 5.0,-5.0 L -12.5,0.0 L 5.0,5.0 L 0.0,0.0 z "
         style="fill-rule:evenodd;stroke:#ff0000;stroke-width:1pt;stroke-opacity:1;fill:#ff0000;fill-opacity:1"
         transform="scale(0.4) rotate(180) translate(10,0)" />
    </marker>
    <marker
       inkscape:stockid="Arrow1Send"
       orient="auto"
       refY="0.0"
       refX="0.0"
       id="Arrow1Send"
       style="overflow:visible;"
       inkscape:isstock="true">
      <path
         id="path4592"
         d="M 0.0,0.0 L 5.0,-5.0 L -12.5,0.0 L 5.0,5.0 L 0.0,0.0 z "
         style="fill-rule:evenodd;stroke:#ff0000;stroke-width:1pt;stroke-opacity:1;fill:#ff0000;fill-opacity:1"
         transform="scale(0.2) rotate(180) translate(6,0)" />
    </marker>
    <marker
       inkscape:stockid="Arrow1Lend"
       orient="auto"
       refY="0.0"
       refX="0.0"
       id="Arrow1Lend"
       style="overflow:visible;"
       inkscape:isstock="true">
      <path
         id="path4580"
         d="M 0.0,0.0 L 5.0,-5.0 L -12.5,0.0 L 5.0,5.0 L 0.0,0.0 z "
         style="fill-rule:evenodd;stroke:#ff0000;stroke-width:1pt;stroke-opacity:1;fill:#ff0000;fill-opacity:1"
         transform="scale(0.8) rotate(180) translate(12.5,0)" />
    </marker>
    <marker
       inkscape:stockid="Arrow1Mend"
       orient="auto"
       refY="0.0"
       refX="0.0"
       id="Arrow1Mend"
       style="overflow:visible;"
       inkscape:isstock="true">
      <path
         id="path4586"
         d="M 0.0,0.0 L 5.0,-5.0 L -12.5,0.0 L 5.0,5.0 L 0.0,0.0 z "
         style="fill-rule:evenodd;stroke:#ff0000;stroke-width:1pt;stroke-opacity:1;fill:#ff0000;fill-opacity:1"
         transform="scale(0.4) rotate(180) translate(10,0)" />
    </marker>
    <marker
       inkscape:stockid="TriangleInM"
       orient="auto"
       refY="0.0"
       refX="0.0"
       id="marker6689"
       style="overflow:visible"
       inkscape:isstock="true">
      <path
         id="path6687"
         d="M 5.77,0.0 L -2.88,5.0 L -2.88,-5.0 L 5.77,0.0 z "
         style="fill-rule:evenodd;stroke:#ff0000;stroke-width:1pt;stroke-opacity:1;fill:#ff0000;fill-opacity:1"
         transform="scale(-0.4)" />
    </marker>
    <marker
       inkscape:stockid="Arrow1Mstart"
       orient="auto"
       refY="0.0"
       refX="0.0"
       id="marker6547"
       style="overflow:visible"
       inkscape:isstock="true">
      <path
         id="path6545"
         d="M 0.0,0.0 L 5.0,-5.0 L -12.5,0.0 L 5.0,5.0 L 0.0,0.0 z "
         style="fill-rule:evenodd;stroke:#ff0000;stroke-width:1pt;stroke-opacity:1;fill:#ff0000;fill-opacity:1"
         transform="scale(0.4) translate(10,0)" />
    </marker>
    <marker
       inkscape:stockid="Arrow1Mstart"
       orient="auto"
       refY="0.0"
       refX="0.0"
       id="Arrow1Mstart"
       style="overflow:visible"
       inkscape:isstock="true">
      <path
         id="path4583"
         d="M 0.0,0.0 L 5.0,-5.0 L -12.5,0.0 L 5.0,5.0 L 0.0,0.0 z "
         style="fill-rule:evenodd;stroke:#000000;stroke-width:1pt;stroke-opacity:1;fill:#000000;fill-opacity:1"
         transform="scale(0.4) translate(10,0)" />
    </marker>
    <marker
       inkscape:stockid="ExperimentalArrow"
       orient="auto-start-reverse"
       refY="3.0"
       refX="5.0"
       id="ExperimentalArrow"
       inkscape:isstock="true">
      <path
         id="path4830"
         d="m 10,3 -10,3 0,-6 z"
         style="fill:context-stroke;stroke:#ff0000;stroke-opacity:1" />
    </marker>
    <marker
       inkscape:stockid="Arrow1Sstart"
       orient="auto"
       refY="0.0"
       refX="0.0"
       id="marker6035"
       style="overflow:visible"
       inkscape:isstock="true">
      <path
         id="path6033"
         d="M 0.0,0.0 L 5.0,-5.0 L -12.5,0.0 L 5.0,5.0 L 0.0,0.0 z "
         style="fill-rule:evenodd;stroke:#000000;stroke-width:1pt;stroke-opacity:1;fill:#000000;fill-opacity:1"
         transform="scale(0.2) translate(6,0)" />
    </marker>
    <marker
       inkscape:stockid="TriangleInM"
       orient="auto"
       refY="0.0"
       refX="0.0"
       id="TriangleInM"
       style="overflow:visible"
       inkscape:isstock="true">
      <path
         id="path4713"
         d="M 5.77,0.0 L -2.88,5.0 L -2.88,-5.0 L 5.77,0.0 z "
         style="fill-rule:evenodd;stroke:#000000;stroke-width:1pt;stroke-opacity:1;fill:#000000;fill-opacity:1"
         transform="scale(-0.4)" />
    </marker>
    <marker
       inkscape:stockid="Arrow2Mstart"
       orient="auto"
       refY="0.0"
       refX="0.0"
       id="marker5783"
       style="overflow:visible"
       inkscape:isstock="true">
      <path
         id="path5781"
         style="fill-rule:evenodd;stroke-width:0.625;stroke-linejoin:round;stroke:#000000;stroke-opacity:1;fill:#000000;fill-opacity:1"
         d="M 8.7185878,4.0337352 L -2.2072895,0.016013256 L 8.7185884,-4.0017078 C 6.9730900,-1.6296469 6.9831476,1.6157441 8.7185878,4.0337352 z "
         transform="scale(0.6) translate(0,0)" />
    </marker>
    <marker
       inkscape:stockid="Arrow2Lstart"
       orient="auto"
       refY="0.0"
       refX="0.0"
       id="marker5665"
       style="overflow:visible"
       inkscape:isstock="true">
      <path
         id="path5663"
         style="fill-rule:evenodd;stroke-width:0.625;stroke-linejoin:round;stroke:#000000;stroke-opacity:1;fill:#000000;fill-opacity:1"
         d="M 8.7185878,4.0337352 L -2.2072895,0.016013256 L 8.7185884,-4.0017078 C 6.9730900,-1.6296469 6.9831476,1.6157441 8.7185878,4.0337352 z "
         transform="scale(1.1) translate(1,0)" />
    </marker>
    <marker
       inkscape:stockid="Arrow1Lstart"
       orient="auto"
       refY="0.0"
       refX="0.0"
       id="marker5553"
       style="overflow:visible"
       inkscape:isstock="true">
      <path
         id="path5551"
         d="M 0.0,0.0 L 5.0,-5.0 L -12.5,0.0 L 5.0,5.0 L 0.0,0.0 z "
         style="fill-rule:evenodd;stroke:#ff0000;stroke-width:1pt;stroke-opacity:1;fill:#ff0000;fill-opacity:1"
         transform="scale(0.8) translate(12.5,0)" />
    </marker>
    <marker
       inkscape:stockid="Tail"
       orient="auto"
       refY="0.0"
       refX="0.0"
       id="Tail"
       style="overflow:visible"
       inkscape:isstock="true">
      <g
         id="g4625"
         transform="scale(-1.2)"
         style="stroke:#000000;stroke-opacity:1;fill:#000000;fill-opacity:1">
        <path
           id="path4613"
           d="M -3.8048674,-3.9585227 L 0.54352094,0"
           style="fill:#000000;fill-rule:evenodd;stroke:#000000;stroke-width:0.8;stroke-linecap:round;stroke-opacity:1;fill-opacity:1" />
        <path
           id="path4615"
           d="M -1.2866832,-3.9585227 L 3.0617053,0"
           style="fill:#000000;fill-rule:evenodd;stroke:#000000;stroke-width:0.8;stroke-linecap:round;stroke-opacity:1;fill-opacity:1" />
        <path
           id="path4617"
           d="M 1.3053582,-3.9585227 L 5.6537466,0"
           style="fill:#000000;fill-rule:evenodd;stroke:#000000;stroke-width:0.8;stroke-linecap:round;stroke-opacity:1;fill-opacity:1" />
        <path
           id="path4619"
           d="M -3.8048674,4.1775838 L 0.54352094,0.21974226"
           style="fill:#000000;fill-rule:evenodd;stroke:#000000;stroke-width:0.8;stroke-linecap:round;stroke-opacity:1;fill-opacity:1" />
        <path
           id="path4621"
           d="M -1.2866832,4.1775838 L 3.0617053,0.21974226"
           style="fill:#000000;fill-rule:evenodd;stroke:#000000;stroke-width:0.8;stroke-linecap:round;stroke-opacity:1;fill-opacity:1" />
        <path
           id="path4623"
           d="M 1.3053582,4.1775838 L 5.6537466,0.21974226"
           style="fill:#000000;fill-rule:evenodd;stroke:#000000;stroke-width:0.8;stroke-linecap:round;stroke-opacity:1;fill-opacity:1" />
      </g>
    </marker>
    <marker
       inkscape:stockid="Arrow1Sstart"
       orient="auto"
       refY="0.0"
       refX="0.0"
       id="Arrow1Sstart"
       style="overflow:visible"
       inkscape:isstock="true">
      <path
         id="path4589"
         d="M 0.0,0.0 L 5.0,-5.0 L -12.5,0.0 L 5.0,5.0 L 0.0,0.0 z "
         style="fill-rule:evenodd;stroke:#000000;stroke-width:1pt;stroke-opacity:1;fill:#000000;fill-opacity:1"
         transform="scale(0.2) translate(6,0)" />
    </marker>
    <marker
       inkscape:stockid="Arrow1Lstart"
       orient="auto"
       refY="0.0"
       refX="0.0"
       id="marker5209"
       style="overflow:visible"
       inkscape:isstock="true">
      <path
         id="path5207"
         d="M 0.0,0.0 L 5.0,-5.0 L -12.5,0.0 L 5.0,5.0 L 0.0,0.0 z "
         style="fill-rule:evenodd;stroke:#ff0000;stroke-width:1pt;stroke-opacity:1;fill:#ff0000;fill-opacity:1"
         transform="scale(0.8) translate(12.5,0)" />
    </marker>
    <marker
       inkscape:stockid="Arrow2Lstart"
       orient="auto"
       refY="0.0"
       refX="0.0"
       id="marker5109"
       style="overflow:visible"
       inkscape:isstock="true">
      <path
         id="path5107"
         style="fill-rule:evenodd;stroke-width:0.625;stroke-linejoin:round;stroke:#ff0000;stroke-opacity:1;fill:#ff0000;fill-opacity:1"
         d="M 8.7185878,4.0337352 L -2.2072895,0.016013256 L 8.7185884,-4.0017078 C 6.9730900,-1.6296469 6.9831476,1.6157441 8.7185878,4.0337352 z "
         transform="scale(1.1) translate(1,0)" />
    </marker>
    <marker
       inkscape:stockid="Arrow2Lstart"
       orient="auto"
       refY="0.0"
       refX="0.0"
       id="marker5039"
       style="overflow:visible"
       inkscape:isstock="true">
      <path
         id="path5037"
         style="fill-rule:evenodd;stroke-width:0.625;stroke-linejoin:round;stroke:#ff0000;stroke-opacity:1;fill:#ff0000;fill-opacity:1"
         d="M 8.7185878,4.0337352 L -2.2072895,0.016013256 L 8.7185884,-4.0017078 C 6.9730900,-1.6296469 6.9831476,1.6157441 8.7185878,4.0337352 z "
         transform="scale(1.1) translate(1,0)" />
    </marker>
    <marker
       inkscape:stockid="Arrow2Lend"
       orient="auto"
       refY="0.0"
       refX="0.0"
       id="Arrow2Lend"
       style="overflow:visible;"
       inkscape:isstock="true">
      <path
         id="path4598"
         style="fill-rule:evenodd;stroke-width:0.625;stroke-linejoin:round;stroke:#ff0000;stroke-opacity:1;fill:#ff0000;fill-opacity:1"
         d="M 8.7185878,4.0337352 L -2.2072895,0.016013256 L 8.7185884,-4.0017078 C 6.9730900,-1.6296469 6.9831476,1.6157441 8.7185878,4.0337352 z "
         transform="scale(1.1) rotate(180) translate(1,0)" />
    </marker>
    <marker
       inkscape:stockid="Arrow1Lstart"
       orient="auto"
       refY="0.0"
       refX="0.0"
       id="Arrow1Lstart"
       style="overflow:visible"
       inkscape:isstock="true">
      <path
         id="path4577"
         d="M 0.0,0.0 L 5.0,-5.0 L -12.5,0.0 L 5.0,5.0 L 0.0,0.0 z "
         style="fill-rule:evenodd;stroke:#000000;stroke-width:1pt;stroke-opacity:1;fill:#000000;fill-opacity:1"
         transform="scale(0.8) translate(12.5,0)" />
    </marker>
    <marker
       inkscape:stockid="Arrow2Mstart"
       orient="auto"
       refY="0.0"
       refX="0.0"
       id="marker4887"
       style="overflow:visible"
       inkscape:isstock="true">
      <path
         id="path4885"
         style="fill-rule:evenodd;stroke-width:0.625;stroke-linejoin:round;stroke:#000000;stroke-opacity:1;fill:#000000;fill-opacity:1"
         d="M 8.7185878,4.0337352 L -2.2072895,0.016013256 L 8.7185884,-4.0017078 C 6.9730900,-1.6296469 6.9831476,1.6157441 8.7185878,4.0337352 z "
         transform="scale(0.6) translate(0,0)" />
    </marker>
    <marker
       inkscape:stockid="Arrow2Lstart"
       orient="auto"
       refY="0.0"
       refX="0.0"
       id="Arrow2Lstart"
       style="overflow:visible"
       inkscape:isstock="true">
      <path
         id="path4595"
         style="fill-rule:evenodd;stroke-width:0.625;stroke-linejoin:round;stroke:#000000;stroke-opacity:1;fill:#000000;fill-opacity:1"
         d="M 8.7185878,4.0337352 L -2.2072895,0.016013256 L 8.7185884,-4.0017078 C 6.9730900,-1.6296469 6.9831476,1.6157441 8.7185878,4.0337352 z "
         transform="scale(1.1) translate(1,0)" />
    </marker>
    <marker
       inkscape:stockid="Arrow2Mstart"
       orient="auto"
       refY="0.0"
       refX="0.0"
       id="Arrow2Mstart"
       style="overflow:visible"
       inkscape:isstock="true">
      <path
         id="path4601"
         style="fill-rule:evenodd;stroke-width:0.625;stroke-linejoin:round;stroke:#000000;stroke-opacity:1;fill:#000000;fill-opacity:1"
         d="M 8.7185878,4.0337352 L -2.2072895,0.016013256 L 8.7185884,-4.0017078 C 6.9730900,-1.6296469 6.9831476,1.6157441 8.7185878,4.0337352 z "
         transform="scale(0.6) translate(0,0)" />
    </marker>
    <marker
       inkscape:stockid="Arrow1Mend"
       orient="auto"
       refY="0"
       refX="0"
       id="marker8579-3"
       style="overflow:visible"
       inkscape:isstock="true">
      <path
         inkscape:connector-curvature="0"
         id="path8577-9"
         d="M 0,0 5,-5 -12.5,0 5,5 Z"
         style="fill:#ff0000;fill-opacity:1;fill-rule:evenodd;stroke:#ff0000;stroke-width:1.00000003pt;stroke-opacity:1"
         transform="matrix(-0.4,0,0,-0.4,-4,0)" />
    </marker>
  </defs>
  <sodipodi:namedview
     pagecolor="#ffffff"
     bordercolor="#666666"
     borderopacity="1"
     objecttolerance="10"
     gridtolerance="10"
     guidetolerance="10"
     inkscape:pageopacity="0"
     inkscape:pageshadow="2"
     inkscape:window-width="1920"
     inkscape:window-height="1018"
     id="namedview44"
     showgrid="false"
     inkscape:zoom="1.522255"
     inkscape:cx="295.36301"
     inkscape:cy="258.44367"
     inkscape:window-x="-8"
     inkscape:window-y="-8"
     inkscape:window-maximized="1"
     inkscape:current-layer="layer1" />
  <g
     inkscape:groupmode="layer"
     id="layer1"
     inkscape:label="Layer 1"
     style="display:inline">
    <g
       style="fill:#ffffff;stroke:none"
       id="layer101">
      <path
         d="M 0,4385 V 0 H 3415 6830 V 4385 8770 H 3415 0 Z"
         id="path2"
         inkscape:connector-curvature="0" />
    </g>
    <path
       style="fill:#000000;stroke:none"
       inkscape:connector-curvature="0"
       id="path7"
       d="m 6099,8245 c -1,-3 -2,-11 -3,-17 -1,-10 -279,-13 -1351,-14 -743,0 -1355,3 -1360,7 -6,4 -27,4 -46,0 -30,-7 -767,-6 -2277,2 -166,1 -775.80368,-1 -775.80368,-5 0,-12 487.80368,-12 738.80368,-13 127,0 703,-2 1281,-3 l 1051,-4 1,-420 c 1,-231 4,-423 7,-426 3,-3 8,-3 11,1 3,3 5,195 5,427 l -1,421 1351,-4 c 1268,-3 1352,-4 1361,-21 7,-12 16,-15 31,-10 12,4 101,10 197,13 250,9 228,28 -50,45 -47,3 -101,10 -120,16 -39,11 -49,12 -51,5 z"
       sodipodi:nodetypes="ccccccsccccscccccscccc" />
    <path
       style="fill:#000000;stroke:none"
       inkscape:connector-curvature="0"
       id="path13"
       d="m 3355,6957 c 0,-210 -2,-417 -4,-459 -3,-75 -4,-77 -25,-66 -43,23 -135,111 -175,168 -23,32 -41,61 -41,65 0,3 -18,33 -40,65 -22,32 -40,61 -40,64 0,3 -23,54 -51,113 -71,150 -99,214 -145,320 -33,78 -43,93 -61,93 -30,0 -29,-11 11,-89 18,-36 48,-100 66,-141 17,-41 47,-106 65,-145 18,-38 48,-104 65,-145 18,-41 40,-86 50,-100 10,-14 30,-50 45,-79 35,-71 121,-160 208,-217 l 69,-46 -6,-41 c -15,-89 -17,-157 -7,-157 6,0 11,-20 11,-44 0,-25 4,-47 9,-50 11,-7 21,27 21,71 0,17 4,34 9,38 6,3 8,13 7,23 -2,9 -7,48 -11,85 -6,60 -4,70 12,82 10,8 26,15 36,15 49,1 143,78 207,170 52,75 98,148 132,210 19,36 44,81 55,100 11,19 41,89 67,155 27,66 55,134 62,150 8,17 16,40 18,50 2,11 9,33 15,48 14,37 14,44 -4,51 -11,4 -19,-3 -27,-22 -6,-15 -14,-36 -19,-47 -4,-11 -24,-60 -44,-110 -20,-49 -46,-110 -57,-135 -11,-24 -21,-49 -22,-55 -1,-6 -13,-31 -28,-55 -14,-25 -42,-79 -63,-120 -55,-111 -115,-199 -175,-259 -54,-54 -148,-107 -163,-92 -9,9 -13,884 -3,899 3,5 3,12 -1,16 -25,25 -28,-9 -28,-377 z" />
    <path
       style="fill:#000000;stroke:none"
       inkscape:connector-curvature="0"
       id="path19"
       d="m 2554,6376 c -3,-8 1,-28 10,-43 8,-15 39,-77 67,-138 28,-60 77,-153 109,-205 31,-52 66,-113 78,-135 51,-99 203,-300 310,-409 61,-63 112,-117 112,-120 0,-24 -598,34 -644,61 -4,3 -58,16 -119,29 -155,33 -290,75 -562,175 -208,76 -656,325 -805,448 -31,25 -60,27 -60,4 0,-15 120,-111 155,-124 6,-2 55,-34 110,-70 142,-94 435,-241 585,-294 36,-13 99,-37 140,-53 102,-41 285,-97 400,-122 52,-12 122,-28 155,-36 121,-29 428,-64 567,-64 57,0 120,-3 141,-7 l 39,-6 -6,-91 c -3,-50 -7,-102 -9,-116 -2,-14 3,-35 10,-47 9,-16 12,-101 12,-350 -1,-415 -1,-405 12,-401 8,3 11,107 10,372 -1,315 1,372 14,386 11,12 13,24 5,49 -5,18 -10,52 -10,75 -1,22 -2,59 -3,81 -2,37 0,40 28,46 17,4 57,7 91,8 64,1 222,20 382,46 53,9 111,18 129,20 17,3 65,14 105,25 40,10 107,26 149,35 133,27 328,90 484,157 102,44 442,214 495,246 25,16 79,48 120,72 41,24 89,55 105,70 53,46 125,91 135,85 5,-3 16,7 24,23 8,16 27,37 42,47 l 26,17 -20,20 -20,20 -78,-64 c -146,-118 -486,-334 -619,-392 -22,-10 -58,-26 -80,-36 -160,-73 -252,-111 -330,-137 -331,-110 -483,-144 -833,-189 -163,-21 -175,-18 -120,24 103,78 220,207 295,326 84,132 243,436 243,464 0,10 4,22 9,28 11,11 51,129 51,149 0,18 -24,20 -37,3 -5,-7 -22,-49 -37,-93 -56,-160 -203,-443 -303,-581 -65,-89 -240,-257 -298,-286 -70,-35 -125,-52 -136,-41 -8,8 13,212 26,245 3,8 -1,21 -10,28 -10,8 -15,29 -15,61 0,37 -4,49 -15,49 -14,0 -21,-38 -15,-79 1,-8 -6,-21 -15,-28 -14,-10 -16,-20 -10,-50 4,-21 8,-58 10,-83 2,-25 5,-63 6,-85 5,-51 -17,-57 -72,-20 -77,50 -309,307 -309,341 0,4 -8,17 -19,28 -53,59 -242,399 -324,584 -27,60 -51,78 -63,48 z" />
    <path
       style="fill:#000000;stroke:none"
       inkscape:connector-curvature="0"
       id="path35"
       d="m 3340,3633 c 0,-10 -1,-119 -2,-243 -1,-207 -3,-226 -20,-238 -12,-9 -17,-21 -13,-32 10,-32 15,-63 22,-135 12,-121 13,-115 -43,-145 -109,-56 -183,-140 -244,-275 -42,-93 -134,-382 -166,-518 -2,-9 -6,-26 -9,-37 -3,-11 -7,-29 -10,-40 -11,-43 -16,-66 -21,-100 -3,-19 -12,-56 -20,-81 -18,-56 -24,-87 -39,-199 -6,-48 -17,-105 -21,-112 -2,-3 -7,-28 -10,-55 -7,-68 -12,-91 -19,-103 -4,-6 -8,-30 -10,-53 -1,-23 -6,-61 -10,-84 -6,-35 -5,-44 9,-49 9,-4 18,-5 20,-3 4,4 14,59 22,119 2,19 9,49 14,65 10,33 17,69 25,136 8,61 13,89 30,162 8,34 17,80 21,101 3,22 10,50 15,64 5,14 12,40 15,60 7,44 10,57 23,112 19,75 21,84 27,115 25,142 122,424 192,560 31,62 100,134 154,161 27,14 53,22 57,19 5,-3 7,-240 4,-532 -3,-291 -5,-537 -5,-548 2,-336 1,-885 -2,-900 -2,-13 -10,-19 -21,-17 -15,3 -16,-1 -10,-25 21,-84 25,-117 29,-226 1,-48 8,-93 14,-99 17,-17 20,0 26,156 4,76 11,146 16,157 8,14 6,20 -8,28 -18,10 -19,35 -16,608 2,329 4,607 4,618 0,11 0,175 0,365 0,437 -1,416 29,412 31,-3 111,-71 155,-130 34,-47 120,-227 138,-292 6,-19 21,-57 33,-85 13,-27 25,-63 27,-80 3,-16 12,-55 21,-85 38,-126 78,-287 83,-334 6,-59 7,-69 28,-156 8,-36 18,-85 21,-110 3,-25 8,-56 10,-70 2,-14 7,-50 10,-80 8,-73 16,-132 19,-150 14,-73 21,-91 38,-106 25,-24 39,-4 27,40 -4,17 -11,56 -15,86 -3,30 -8,64 -9,75 -6,34 -16,97 -21,119 -4,21 -10,58 -18,106 -2,14 -7,36 -10,50 -3,14 -8,42 -10,62 -3,21 -7,42 -10,47 -3,5 -8,33 -10,62 -3,30 -7,63 -9,74 -5,19 -68,234 -88,300 -5,17 -12,46 -15,65 -8,55 -45,169 -75,235 -15,33 -39,86 -53,118 -14,32 -44,85 -68,118 -46,66 -162,169 -190,169 -28,0 -41,37 -34,94 4,28 9,78 12,111 2,33 7,68 10,78 3,10 -1,19 -10,23 -14,5 -16,36 -14,247 2,182 -1,242 -10,245 -7,2 -12,-5 -12,-15 z" />
    <text
       xml:space="preserve"
       style="font-style:normal;font-weight:normal;font-size:400px;line-height:1.25;font-family:sans-serif;letter-spacing:0px;word-spacing:0px;fill:#000000;fill-opacity:1;stroke:none;stroke-width:10"
       x="3489.0042"
       y="493.80298"
       id="text70"><tspan
         sodipodi:role="line"
         id="tspan68"
         x="3489.0042"
         y="493.80298"
         style="font-style:italic;font-variant:normal;font-weight:normal;font-stretch:normal;font-size:506.66665649px;font-family:'Times New Roman';-inkscape-font-specification:'Times New Roman,  Italic';stroke-width:10">ε</tspan></text>
    <text
       xml:space="preserve"
       style="font-style:normal;font-weight:normal;font-size:400px;line-height:1.25;font-family:sans-serif;letter-spacing:0px;word-spacing:0px;fill:#000000;fill-opacity:1;stroke:none;stroke-width:10"
       x="3981.9182"
       y="2068.8748"
       id="text70-9"><tspan
         sodipodi:role="line"
         id="tspan68-7"
         x="3981.9182"
         y="2068.8748"
         style="font-style:italic;font-variant:normal;font-weight:normal;font-stretch:normal;font-size:506.66665649px;font-family:'Times New Roman';-inkscape-font-specification:'Times New Roman, Italic';stroke-width:10">c</tspan></text>
    <text
       xml:space="preserve"
       style="font-style:normal;font-weight:normal;font-size:400px;line-height:1.25;font-family:sans-serif;letter-spacing:0px;word-spacing:0px;fill:#000000;fill-opacity:1;stroke:none;stroke-width:10"
       x="3101.5017"
       y="4029.667"
       id="text70-9-0"><tspan
         sodipodi:role="line"
         id="tspan68-7-5"
         x="3101.5017"
         y="4029.667"
         style="font-style:italic;font-variant:normal;font-weight:normal;font-stretch:normal;font-size:506.66665649px;font-family:'Times New Roman';-inkscape-font-specification:'Times New Roman, Italic';stroke-width:10">E<tspan
   style="font-style:italic;font-variant:normal;font-weight:normal;font-stretch:normal;font-size:506.66665649px;font-family:'Times New Roman';-inkscape-font-specification:'Times New Roman, Italic';baseline-shift:sub"
   id="tspan108">g</tspan></tspan></text>
    <text
       xml:space="preserve"
       style="font-style:normal;font-weight:normal;font-size:400px;line-height:1.25;font-family:sans-serif;letter-spacing:0px;word-spacing:0px;fill:#000000;fill-opacity:1;stroke:none;stroke-width:10"
       x="5121.1133"
       y="5656.0225"
       id="text70-9-0-4"><tspan
         sodipodi:role="line"
         id="tspan68-7-5-7"
         x="5121.1133"
         y="5656.0225"
         style="font-style:italic;font-variant:normal;font-weight:normal;font-stretch:normal;font-size:506.66665649px;font-family:'Times New Roman';-inkscape-font-specification:'Times New Roman, Italic';stroke-width:10">hh</tspan></text>
    <text
       xml:space="preserve"
       style="font-style:normal;font-weight:normal;font-size:400px;line-height:1.25;font-family:sans-serif;letter-spacing:0px;word-spacing:0px;fill:#000000;fill-opacity:1;stroke:none;stroke-width:10"
       x="4217.123"
       y="6198.5732"
       id="text70-9-0-4-3"><tspan
         sodipodi:role="line"
         id="tspan68-7-5-7-9"
         x="4217.123"
         y="6198.5732"
         style="font-style:italic;font-variant:normal;font-weight:normal;font-stretch:normal;font-size:506.66665649px;font-family:'Times New Roman';-inkscape-font-specification:'Times New Roman, Italic';stroke-width:10">lh</tspan></text>
    <text
       xml:space="preserve"
       style="font-style:normal;font-weight:normal;font-size:400px;line-height:1.25;font-family:sans-serif;letter-spacing:0px;word-spacing:0px;fill:#000000;fill-opacity:1;stroke:none;stroke-width:10"
       x="4020.6089"
       y="7122.5669"
       id="text70-9-0-4-6"><tspan
         sodipodi:role="line"
         id="tspan68-7-5-7-6"
         x="4020.6089"
         y="7122.5669"
         style="font-style:italic;font-variant:normal;font-weight:normal;font-stretch:normal;font-size:506.66665649px;font-family:'Times New Roman';-inkscape-font-specification:'Times New Roman, Italic';stroke-width:10">sh</tspan></text>
    <text
       xml:space="preserve"
       style="font-style:normal;font-weight:normal;font-size:400px;line-height:1.25;font-family:sans-serif;letter-spacing:0px;word-spacing:0px;fill:#000000;fill-opacity:1;stroke:none;stroke-width:10"
       x="3241.0288"
       y="6023.5127"
       id="text70-9-0-4-3-0"><tspan
         sodipodi:role="line"
         id="tspan68-7-5-7-9-7"
         x="3241.0288"
         y="6023.5127"
         style="font-style:normal;font-variant:normal;font-weight:normal;font-stretch:normal;font-size:373.33334351px;font-family:'Times New Roman';-inkscape-font-specification:'Times New Roman, ';stroke-width:10">Δ</tspan></text>
    <text
       xml:space="preserve"
       style="font-style:normal;font-weight:normal;font-size:400px;line-height:1.25;font-family:sans-serif;letter-spacing:0px;word-spacing:0px;fill:#000000;fill-opacity:1;stroke:none;stroke-width:10"
       x="6351.5513"
       y="8072.6787"
       id="text70-9-0-4-3-0-5"><tspan
         sodipodi:role="line"
         id="tspan68-7-5-7-9-7-7"
         x="6351.5513"
         y="8072.6787"
         style="font-style:italic;font-variant:normal;font-weight:normal;font-stretch:normal;font-size:506.66665649px;font-family:'Times New Roman';-inkscape-font-specification:'Times New Roman,  Italic';stroke-width:10">k</tspan></text>
    <text
       xml:space="preserve"
       style="font-style:normal;font-weight:normal;font-size:400px;line-height:1.25;font-family:sans-serif;letter-spacing:0px;word-spacing:0px;fill:#000000;fill-opacity:1;stroke:none;stroke-width:10"
       x="3237.3606"
       y="8624.8301"
       id="text70-9-0-4-3-0-5-7"><tspan
         sodipodi:role="line"
         id="tspan68-7-5-7-9-7-7-9"
         x="3237.3606"
         y="8624.8301"
         style="font-style:italic;font-variant:normal;font-weight:normal;font-stretch:normal;font-size:506.66665649px;font-family:'Times New Roman';-inkscape-font-specification:'Times New Roman,  Italic';stroke-width:10">0</tspan></text>
  </g>
  <g
     inkscape:groupmode="layer"
     id="layer2"
     inkscape:label="levels"
     style="display:inline">
    <ellipse
       style="fill:none;fill-opacity:1;stroke:#ff0000;stroke-width:40;stroke-miterlimit:4;stroke-dasharray:none;stroke-dashoffset:0;stroke-opacity:1"
       id="path4533"
       cx="3348.5654"
       cy="23385.742"
       rx="1836.6877"
       ry="16991.572" />
    <rect
       style="fill:none;fill-opacity:1;stroke:#ff0000;stroke-width:37.81377792;stroke-miterlimit:4;stroke-dasharray:none;stroke-dashoffset:0;stroke-opacity:1"
       id="rect4566"
       width="6869.3115"
       height="6629.312"
       x="764.9021"
       y="7331.8618" />
    <ellipse
       style="display:inline;fill:none;fill-opacity:1;stroke:#05ff00;stroke-width:40;stroke-miterlimit:4;stroke-dasharray:none;stroke-dashoffset:0;stroke-opacity:1"
       id="path4533-9"
       cx="3348.6145"
       cy="15923.082"
       rx="1845.2848"
       ry="10627.271" />
    <ellipse
       ry="5774.5322"
       rx="4591.9731"
       cy="11070.617"
       cx="3348.6677"
       id="ellipse14028"
       style="display:inline;fill:none;fill-opacity:1;stroke:#ff0000;stroke-width:40;stroke-miterlimit:4;stroke-dasharray:none;stroke-dashoffset:0;stroke-opacity:1" />
  </g>
  <g
     inkscape:groupmode="layer"
     id="layer3"
     inkscape:label="arrow1"
     style="display:inline">
    <path
       style="fill:none;stroke:#ff0000;stroke-width:29;stroke-linecap:butt;stroke-linejoin:miter;stroke-miterlimit:4.5999999;stroke-dasharray:none;stroke-opacity:1;marker-end:url(#marker8579)"
       d="M 3348.6214,2955.0499 V 453.48045"
       id="path7199"
       inkscape:connector-curvature="0" />
    <path
       style="display:inline;fill:none;stroke:#ff0000;stroke-width:2.9000001;stroke-linecap:butt;stroke-linejoin:miter;stroke-miterlimit:4.5999999;stroke-dasharray:none;stroke-opacity:1;marker-end:url(#marker8579-3)"
       d="M 7.3634538,246.26898 V 5.7149759"
       id="path7199-6"
       inkscape:connector-curvature="0" />
    <path
       inkscape:connector-curvature="0"
       id="path10023"
       d="M 3348.6214,3648.0809 V 2903.6552"
       style="fill:none;stroke:#ff0000;stroke-width:29;stroke-linecap:butt;stroke-linejoin:miter;stroke-miterlimit:4.5999999;stroke-dasharray:none;stroke-opacity:1;marker-end:url(#marker10027)" />
    <path
       style="fill:none;stroke:#ff0000;stroke-width:29;stroke-linecap:butt;stroke-linejoin:miter;stroke-miterlimit:4.5999999;stroke-dasharray:none;stroke-opacity:1;marker-end:url(#marker11100)"
       d="M 3348.6214,5719.9993 V 5387.1436"
       id="path11096"
       inkscape:connector-curvature="0" />
    <path
       inkscape:connector-curvature="0"
       id="path11756"
       d="m 3348.6214,4260.8172 v 959.6043"
       style="fill:none;stroke:#ff0000;stroke-width:29;stroke-linecap:butt;stroke-linejoin:miter;stroke-miterlimit:4.5999999;stroke-dasharray:none;stroke-opacity:1;marker-end:url(#marker11760)" />
    <path
       style="fill:none;stroke:#ff0000;stroke-width:29;stroke-linecap:butt;stroke-linejoin:miter;stroke-miterlimit:4.5999999;stroke-dasharray:none;stroke-opacity:1;marker-end:url(#marker12720)"
       d="m 3348.6214,6064.986 v 244.0845"
       id="path12716"
       inkscape:connector-curvature="0" />
    <path
       style="fill:none;stroke:#ff0000;stroke-width:29;stroke-linecap:butt;stroke-linejoin:miter;stroke-miterlimit:4.5999999;stroke-dasharray:none;stroke-opacity:1"
       d="M 3348.6214,6269.0705 V 8208.7498"
       id="path13309"
       inkscape:connector-curvature="0" />
    <path
       inkscape:connector-curvature="0"
       id="path13981"
       d="m 3348.6214,4777.8617 v 753.9384"
       style="fill:none;stroke:#ff0000;stroke-width:29;stroke-linecap:butt;stroke-linejoin:miter;stroke-miterlimit:4.5999999;stroke-dasharray:none;stroke-opacity:1" />
  </g>
</svg>
