<?xml version="1.0" encoding="UTF-8" standalone="no"?>
<svg
   xmlns:dc="http://purl.org/dc/elements/1.1/"
   xmlns:cc="http://creativecommons.org/ns#"
   xmlns:rdf="http://www.w3.org/1999/02/22-rdf-syntax-ns#"
   xmlns:svg="http://www.w3.org/2000/svg"
   xmlns="http://www.w3.org/2000/svg"
   xmlns:sodipodi="http://sodipodi.sourceforge.net/DTD/sodipodi-0.dtd"
   xmlns:inkscape="http://www.inkscape.org/namespaces/inkscape"
   version="1.0"
   width="1352px"
   height="1600px"
   viewBox="0 0 13520 16000"
   preserveAspectRatio="xMidYMid meet"
   id="svg388"
   sodipodi:docname="Тонкая структура одиночного акцептора Mn переходы.svg"
   inkscape:version="0.92.2 (5c3e80d, 2017-08-06)">
  <metadata
     id="metadata394">
    <rdf:RDF>
      <cc:Work
         rdf:about="">
        <dc:format>image/svg+xml</dc:format>
        <dc:type
           rdf:resource="http://purl.org/dc/dcmitype/StillImage" />
      </cc:Work>
    </rdf:RDF>
  </metadata>
  <defs
     id="defs392" />
  <sodipodi:namedview
     pagecolor="#ffffff"
     bordercolor="#666666"
     borderopacity="1"
     objecttolerance="10"
     gridtolerance="10"
     guidetolerance="10"
     inkscape:pageopacity="0"
     inkscape:pageshadow="2"
     inkscape:window-width="1920"
     inkscape:window-height="1018"
     id="namedview390"
     showgrid="false"
     inkscape:zoom="1.18"
     inkscape:cx="327.78583"
     inkscape:cy="480.44471"
     inkscape:window-x="-8"
     inkscape:window-y="-8"
     inkscape:window-maximized="1"
     inkscape:current-layer="svg388" />
  <path
     style="fill:#f329cb;stroke:none"
     inkscape:connector-curvature="0"
     id="path2"
     d="m 6566,11481 c -3,-4 1,-16 8,-26 13,-18 14,-18 24,2 6,11 8,23 5,27 -9,9 -31,7 -37,-3 z" />
  <path
     style="fill:#f329cb;stroke:none"
     inkscape:connector-curvature="0"
     id="path6"
     d="m 393,10929 c -9,-9 -13,-52 -13,-141 0,-117 2,-128 20,-138 39,-21 118,13 149,63 40,65 20,161 -43,202 -34,23 -98,30 -113,14 z" />
  <path
     style="fill:#f329cb;stroke:none"
     inkscape:connector-curvature="0"
     id="path8"
     d="m 955,10926 c -105,-46 -122,-176 -34,-248 129,-104 305,65 205,196 -45,60 -109,79 -171,52 z" />
  <path
     style="fill:#f329cb;stroke:none"
     inkscape:connector-curvature="0"
     id="path10"
     d="m 1545,10926 c -42,-19 -71,-54 -85,-103 -12,-38 -11,-46 11,-90 44,-88 145,-114 218,-55 68,55 78,139 24,203 -46,54 -109,71 -168,45 z" />
  <path
     style="fill:#f329cb;stroke:none"
     inkscape:connector-curvature="0"
     id="path12"
     d="m 2125,10926 c -103,-46 -123,-175 -38,-245 83,-69 201,-30 233,77 12,37 11,45 -11,88 -13,27 -36,56 -50,67 -34,24 -96,31 -134,13 z" />
  <path
     style="fill:#f329cb;stroke:none"
     inkscape:connector-curvature="0"
     id="path14"
     d="m 2715,10926 c -44,-19 -82,-68 -90,-116 -16,-93 74,-175 178,-162 39,5 104,72 112,116 13,66 -31,140 -98,165 -37,14 -65,13 -102,-3 z" />
  <path
     style="fill:#f329cb;stroke:none"
     inkscape:connector-curvature="0"
     id="path16"
     d="m 3295,10926 c -36,-16 -82,-67 -91,-102 -17,-69 39,-158 109,-174 73,-16 140,19 172,89 15,35 16,47 7,80 -29,97 -115,143 -197,107 z" />
  <path
     style="fill:#f329cb;stroke:none"
     inkscape:connector-curvature="0"
     id="path18"
     d="m 3885,10926 c -96,-43 -121,-156 -51,-230 61,-65 151,-65 213,0 55,59 53,141 -5,197 -48,46 -102,57 -157,33 z" />
  <path
     style="fill:#f329cb;stroke:none"
     inkscape:connector-curvature="0"
     id="path20"
     d="m 4449,10917 c -55,-37 -82,-84 -76,-136 9,-78 67,-133 141,-133 63,0 106,27 134,84 20,40 22,51 13,86 -28,104 -132,153 -212,99 z" />
  <path
     style="fill:#f329cb;stroke:none"
     inkscape:connector-curvature="0"
     id="path22"
     d="m 5055,10926 c -71,-32 -109,-115 -84,-183 58,-150 284,-112 284,49 0,100 -111,175 -200,134 z" />
  <path
     style="fill:#f329cb;stroke:none"
     inkscape:connector-curvature="0"
     id="path24"
     d="m 5625,10922 c -100,-64 -113,-165 -32,-240 76,-71 206,-28 238,78 10,33 9,44 -11,84 -12,25 -35,55 -52,67 -42,30 -105,35 -143,11 z" />
  <path
     style="fill:#f329cb;stroke:none"
     inkscape:connector-curvature="0"
     id="path26"
     d="m 6795,10926 c -16,-7 -40,-24 -52,-38 -19,-20 -21,-29 -14,-58 5,-19 15,-64 22,-99 15,-71 28,-81 104,-81 43,0 69,15 43,25 -12,5 -10,25 9,118 13,62 22,116 20,121 -7,21 -96,29 -132,12 z" />
  <path
     style="fill:#f329cb;stroke:none"
     inkscape:connector-curvature="0"
     id="path28"
     d="m 7380,10929 c -64,-27 -109,-105 -94,-166 40,-167 289,-143 289,27 0,99 -108,176 -195,139 z" />
  <path
     style="fill:#f329cb;stroke:none"
     inkscape:connector-curvature="0"
     id="path30"
     d="m 7964,10926 c -59,-27 -101,-108 -84,-165 21,-74 72,-113 148,-113 51,0 84,20 120,72 74,109 -62,261 -184,206 z" />
  <path
     style="fill:#f329cb;stroke:none"
     inkscape:connector-curvature="0"
     id="path32"
     d="m 8535,10921 c -52,-32 -77,-67 -82,-114 -16,-136 149,-213 246,-116 74,73 50,194 -46,234 -47,20 -82,19 -118,-4 z" />
  <path
     style="fill:#f329cb;stroke:none"
     inkscape:connector-curvature="0"
     id="path34"
     d="m 9124,10915 c -83,-50 -98,-155 -32,-222 64,-64 148,-61 210,6 33,35 38,47 38,87 0,61 -31,111 -84,135 -55,25 -83,24 -132,-6 z" />
  <path
     style="fill:#f329cb;stroke:none"
     inkscape:connector-curvature="0"
     id="path36"
     d="m 9725,10926 c -37,-16 -83,-68 -91,-102 -11,-45 6,-96 46,-136 89,-89 240,-26 242,101 1,101 -108,178 -197,137 z" />
  <path
     style="fill:#f329cb;stroke:none"
     inkscape:connector-curvature="0"
     id="path38"
     d="m 10310,10923 c -138,-72 -87,-278 68,-275 51,0 85,21 120,72 75,111 -67,266 -188,203 z" />
  <path
     style="fill:#f329cb;stroke:none"
     inkscape:connector-curvature="0"
     id="path40"
     d="m 10895,10926 c -42,-18 -81,-67 -89,-111 -6,-28 -2,-48 16,-83 69,-140 270,-98 272,57 2,103 -108,179 -199,137 z" />
  <path
     style="fill:#f329cb;stroke:none"
     inkscape:connector-curvature="0"
     id="path48"
     d="m 12207,10883 c -11,-10 -8,-181 3,-188 15,-9 50,56 50,95 0,19 -9,50 -20,68 -21,34 -23,36 -33,25 z" />
  <g
     id="layerbg2"
     stroke="none"
     fill="#fa1806">
    <path
       d="M2316 15791 c-8 -13 21 -104 125 -393 383 -1063 846 -1909 1423 -2602 127 -153 438 -465 579 -582 255 -210 519 -379 782 -503 l70 -32 -70 6 c-235 22 -663 98 -1007 180 -1309 311 -2615 940 -3748 1807 -41 31 -79 53 -83 49 -4 -4 -7 -45 -5 -91 l3 -83 70 -54 c151 -116 446 -321 655 -456 951 -612 1967 -1053 3014 -1307 674 -164 1233 -241 1916 -266 219 -8 212 -11 208 93 l-3 68 -85 7 c-146 11 -271 30 -377 54 -888 206 -1714 912 -2397 2047 -337 561 -603 1151 -883 1952 l-38 110 -72 3 c-39 2 -74 -1 -77 -7z"
       id="path51" />
    <path
       d="M3818 15794 c-8 -7 54 -103 177 -274 597 -830 1419 -1297 2287 -1300 276 -2 581 53 863 154 139 50 399 181 530 267 226 147 461 348 641 547 172 190 454 578 438 603 -3 5 -40 9 -83 9 l-77 0 -70 -102 c-497 -736 -1180 -1198 -1924 -1302 -557 -78 -1130 56 -1629 381 -338 220 -612 492 -886 877 l-101 141 -80 3 c-44 1 -83 0 -86 -4z"
       id="path53" />
    <path
       d="M10146 15791 c-4 -5 -30 -81 -60 -168 -114 -334 -257 -701 -371 -948 -7 -16 -27 -61 -45 -99 -158 -346 -400 -784 -605 -1096 -239 -361 -456 -630 -735 -910 -575 -575 -1223 -897 -1885 -938 l-120 -7 0 -85 c0 -51 4 -84 10 -84 6 1 111 5 235 8 707 21 1298 102 2000 276 1017 252 2030 691 2940 1274 52 34 102 66 111 71 37 23 259 176 376 260 69 50 131 90 137 90 12 0 22 176 11 204 -5 12 -10 10 -28 -11 -22 -26 -237 -182 -457 -330 -363 -246 -659 -420 -1055 -624 -204 -105 -310 -156 -555 -267 -19 -8 -84 -36 -145 -62 -60 -25 -119 -50 -130 -55 -126 -56 -723 -262 -900 -311 -78 -22 -219 -60 -310 -84 -69 -18 -279 -65 -445 -100 -198 -42 -744 -126 -805 -124 -17 0 -17 2 5 12 298 133 577 308 860 540 127 104 470 454 591 602 542 665 948 1389 1315 2344 99 257 216 602 210 618 -6 15 -141 19 -150 4z"
       id="path55" />
  </g>
  <path
     style="fill:#020202;stroke:none"
     inkscape:connector-curvature="0"
     id="path65"
     d="m 363,15865 c -17,-7 -36,-23 -42,-34 -8,-14 -11,-2093 -12,-7352 V 1148 l 27,-29 28,-29 h 5897 5898 l 28,24 28,24 v 7341 7341 l -28,27 -27,28 -5883,2 c -4985,2 -5887,0 -5914,-12 z M 12130,8554 c 0,-6802 -1,-7228 -17,-7239 -14,-10 -15,-16 -5,-27 7,-8 15,-36 18,-62 l 7,-46 H 6266 400 v 7300 7300 h 5865 5865 z" />
  <path
     style="fill:#020202;stroke:none"
     inkscape:connector-curvature="0"
     id="path75"
     d="m 6225,14228 c -3,-7 -4,-1577 -2,-3488 l 2,-3474 43,-9 c 75,-15 72,-30 72,374 v 359 h 424 425 l 20,26 c 27,34 26,47 -3,81 -23,27 -29,28 -113,28 -48,0 -238,1 -420,3 l -333,2 v 195 195 h 205 c 205,0 206,0 230,25 35,34 32,67 -7,100 -30,25 -37,27 -90,21 -32,-3 -121,-3 -198,1 l -140,6 -2,2781 -3,2781 -53,3 c -36,2 -54,-1 -57,-10 z" />
  <path
     style="fill:#020202;stroke:none"
     inkscape:connector-curvature="0"
     id="path81"
     d="m 11552,13064 -52,-35 2,-1052 3,-1052 40,-6 c 22,-3 50,-11 63,-18 55,-30 52,-93 50,1096 l -3,1098 -25,3 c -15,1 -45,-12 -78,-34 z" />
  <path
     style="fill:#020202;stroke:none"
     inkscape:connector-curvature="0"
     id="path83"
     d="m 11623,10689 c -6,-6 -35,-14 -64,-17 l -54,-7 -3,-3112 -2,-3113 h -129 c -91,0 -131,-4 -138,-12 -9,-13 216,-914 265,-1058 12,-36 24,-82 26,-102 5,-44 31,-100 56,-123 17,-16 19,-15 30,5 18,33 321,1262 316,1277 -4,10 -38,13 -136,13 h -130 l -2,3127 c -2,2148 -6,3127 -13,3130 -6,2 -16,-2 -22,-8 z" />
  <path
     style="fill:#020202;stroke:none"
     inkscape:connector-curvature="0"
     id="path107"
     d="m 6232,7117 c -9,-11 -11,-323 -10,-1368 l 3,-1354 h 55 55 l 3,1354 c 1,745 -1,1358 -5,1362 -5,5 -26,11 -48,14 -30,5 -44,3 -53,-8 z" />
  <g
     id="layer103"
     transform="translate(-2.49113,-5.9322)"
     style="fill:#1805e8;stroke:none">
    <path
       d="m 6583,11452 c -6,-4 -13,-25 -15,-47 -3,-22 -22,-119 -42,-215 -20,-96 -50,-240 -66,-320 -15,-80 -31,-157 -35,-172 l -7,-28 h 61 61 V 9660 8650 h 58 57 l -3,1010 -2,1010 h 61 62 l -6,33 c -4,17 -18,86 -32,152 -14,66 -37,179 -51,250 -13,72 -29,148 -34,170 -5,22 -15,68 -22,103 -13,65 -26,86 -45,74 z"
       id="path271"
       inkscape:connector-curvature="0" />
    <path
       d="m 7025,11448 c -2,-7 -6,-33 -9,-58 -3,-25 -10,-65 -15,-90 -5,-25 -14,-70 -20,-100 -6,-30 -15,-73 -20,-95 -5,-22 -25,-121 -45,-220 -20,-99 -39,-188 -42,-197 -5,-16 2,-18 60,-18 h 66 V 9390 8110 h 50 50 v 1280 1280 h 61 61 l -5,33 c -2,17 -14,77 -25,132 -12,55 -42,201 -68,325 -25,124 -49,236 -52,250 -5,28 -20,50 -34,50 -5,0 -10,-6 -13,-12 z"
       id="path273"
       inkscape:connector-curvature="0" />
    <path
       d="m 5941,10607 c -6,-6 -11,-22 -11,-35 0,-13 -21,-125 -46,-250 -26,-125 -50,-249 -55,-277 -4,-27 -15,-81 -24,-120 -21,-99 -23,-95 45,-95 h 60 V 8545 c 0,-1020 -3,-1286 -12,-1289 -7,-2 -62,-9 -123,-15 -60,-7 -134,-14 -163,-18 l -52,-5 2,688 3,689 59,3 58,3 -6,37 c -12,76 -122,616 -138,681 -6,25 -15,52 -21,59 -15,19 -37,-4 -37,-39 0,-16 -5,-48 -10,-71 -10,-39 -71,-340 -91,-448 -5,-25 -15,-76 -24,-115 -23,-105 -24,-102 45,-110 l 60,-7 -2,-696 -3,-695 -125,-27 C 3314,6741 1540,4900 520,2180 472,2051 426,1925 419,1900 c -7,-25 -17,-48 -21,-51 -5,-3 -7,-120 -6,-260 l 3,-254 94,285 c 537,1639 1324,2977 2322,3955 849,831 1796,1333 2819,1494 251,40 683,54 950,31 298,-26 536,-68 805,-141 1756,-481 3312,-2083 4287,-4414 95,-228 248,-635 312,-835 26,-80 50,-152 54,-160 3,-8 20,-64 37,-125 21,-74 36,-110 46,-110 12,0 14,37 17,218 2,196 1,221 -17,260 -10,23 -24,62 -31,86 -37,139 -318,842 -434,1085 -31,66 -56,130 -56,144 0,14 -6,33 -14,41 -19,21 -50,78 -141,254 -510,996 -1161,1861 -1880,2501 -870,774 -1847,1234 -2839,1336 -226,23 -396,36 -401,31 -2,-2 -74,-4 -159,-5 l -156,-1 v 1283 1282 h 60 c 67,0 70,4 51,79 -5,20 -15,63 -21,96 -7,33 -16,80 -21,105 -5,25 -23,115 -39,200 -27,140 -36,185 -54,271 -7,30 -28,43 -45,26 z"
       id="path275"
       inkscape:connector-curvature="0" />
  </g>
  <text
     xml:space="preserve"
     style="font-style:normal;font-weight:normal;font-size:400px;line-height:1.25;font-family:sans-serif;letter-spacing:0px;word-spacing:0px;fill:#000000;fill-opacity:1;stroke:none;stroke-width:10"
     x="1510.0925"
     y="13682.195"
     id="text75"><tspan
       sodipodi:role="line"
       id="tspan73"
       x="1510.0925"
       y="13682.195"
       style="font-style:normal;font-variant:normal;font-weight:normal;font-stretch:normal;font-size:800px;line-height:1.25;font-family:sans-serif;-inkscape-font-specification:sans-serif;stroke-width:10">hh</tspan></text>
  <text
     xml:space="preserve"
     style="font-style:normal;font-weight:normal;font-size:400px;line-height:1.25;font-family:sans-serif;letter-spacing:0px;word-spacing:0px;fill:#000000;fill-opacity:1;stroke:none;stroke-width:10"
     x="1656.498"
     y="15231.262"
     id="text75-5"><tspan
       sodipodi:role="line"
       id="tspan73-2"
       x="1656.498"
       y="15231.262"
       style="font-style:normal;font-variant:normal;font-weight:normal;font-stretch:normal;font-size:800px;line-height:1.25;font-family:sans-serif;-inkscape-font-specification:sans-serif;stroke-width:10">lh</tspan></text>
  <text
     xml:space="preserve"
     style="font-style:normal;font-weight:normal;font-size:400px;line-height:1.25;font-family:sans-serif;letter-spacing:0px;word-spacing:0px;fill:#000000;fill-opacity:1;stroke:none;stroke-width:10"
     x="5852.1748"
     y="15134.415"
     id="text75-5-9"><tspan
       sodipodi:role="line"
       id="tspan73-2-1"
       x="5852.1748"
       y="15134.415"
       style="font-style:normal;font-variant:normal;font-weight:normal;font-stretch:normal;font-size:800px;line-height:1.25;font-family:sans-serif;-inkscape-font-specification:sans-serif;stroke-width:10">sh</tspan></text>
  <text
     xml:space="preserve"
     style="font-style:normal;font-weight:normal;font-size:400px;line-height:1.25;font-family:sans-serif;letter-spacing:0px;word-spacing:0px;fill:#000000;fill-opacity:1;stroke:none;stroke-width:10"
     x="4160.1699"
     y="10465.585"
     id="text75-5-9-0"><tspan
       sodipodi:role="line"
       id="tspan73-2-1-6"
       x="4160.1699"
       y="10465.585"
       style="font-style:normal;font-variant:normal;font-weight:bold;font-stretch:normal;font-size:666.66668701px;line-height:1.25;font-family:sans-serif;-inkscape-font-specification:'sans-serif Bold';stroke-width:10">e-A<tspan
   style="font-style:normal;font-variant:normal;font-weight:bold;font-stretch:normal;font-size:64.99999762%;font-family:sans-serif;-inkscape-font-specification:'sans-serif Bold';baseline-shift:super"
   id="tspan133">0</tspan></tspan></text>
  <text
     xml:space="preserve"
     style="font-style:normal;font-weight:normal;font-size:400px;line-height:1.25;font-family:sans-serif;letter-spacing:0px;word-spacing:0px;fill:#000000;fill-opacity:1;stroke:none;stroke-width:10"
     x="3996.9121"
     y="9234.3066"
     id="text75-5-9-0-2"><tspan
       sodipodi:role="line"
       id="tspan73-2-1-6-4"
       x="3996.9121"
       y="9234.3066"
       style="font-style:normal;font-variant:normal;font-weight:bold;font-stretch:normal;font-size:666.66674805px;line-height:1.25;font-family:sans-serif;-inkscape-font-specification:'sans-serif Bold';stroke-width:10">-LO</tspan></text>
  <text
     xml:space="preserve"
     style="font-style:normal;font-weight:normal;font-size:400px;line-height:1.25;font-family:sans-serif;letter-spacing:0px;word-spacing:0px;fill:#000000;fill-opacity:1;stroke:none;stroke-width:10"
     x="7322.1021"
     y="8260.7578"
     id="text75-5-9-0-2-8"><tspan
       sodipodi:role="line"
       id="tspan73-2-1-6-4-1"
       x="7322.1021"
       y="8260.7578"
       style="font-style:normal;font-variant:normal;font-weight:bold;font-stretch:normal;font-size:666.66674805px;line-height:1.25;font-family:sans-serif;-inkscape-font-specification:'sans-serif Bold';stroke-width:10">X</tspan></text>
  <text
     xml:space="preserve"
     style="font-style:normal;font-weight:normal;font-size:400px;line-height:1.25;font-family:sans-serif;letter-spacing:0px;word-spacing:0px;fill:#000000;fill-opacity:1;stroke:none;stroke-width:10"
     x="7337.6831"
     y="8975.0713"
     id="text75-5-9-0-2-8-2"><tspan
       sodipodi:role="line"
       id="tspan73-2-1-6-4-1-9"
       x="7337.6831"
       y="8975.0713"
       style="font-style:normal;font-variant:normal;font-weight:bold;font-stretch:normal;font-size:666.66674805px;line-height:1.25;font-family:sans-serif;-inkscape-font-specification:'sans-serif Bold';stroke-width:10">A<tspan
   style="font-size:64.99999762%;baseline-shift:super"
   id="tspan192">0</tspan>X</tspan></text>
  <text
     xml:space="preserve"
     style="font-style:normal;font-weight:normal;font-size:400px;line-height:1.25;font-family:sans-serif;letter-spacing:0px;word-spacing:0px;fill:#000000;fill-opacity:1;stroke:none;stroke-width:10"
     x="12308.058"
     y="10998.547"
     id="text75-5-9-0-2-8-2-8"><tspan
       sodipodi:role="line"
       id="tspan73-2-1-6-4-1-9-3"
       x="12308.058"
       y="10998.547"
       style="font-style:normal;font-variant:normal;font-weight:bold;font-stretch:normal;font-size:666.66674805px;line-height:1.25;font-family:sans-serif;-inkscape-font-specification:'sans-serif Bold';stroke-width:10">Mn</tspan></text>
  <text
     xml:space="preserve"
     style="font-style:normal;font-weight:normal;font-size:400px;line-height:1.25;font-family:sans-serif;letter-spacing:0px;word-spacing:0px;fill:#000000;fill-opacity:1;stroke:none;stroke-width:10"
     x="4655.1729"
     y="836.01221"
     id="text75-5-9-0-2-8-2-8-5"><tspan
       sodipodi:role="line"
       id="tspan73-2-1-6-4-1-9-3-9"
       x="4655.1729"
       y="836.01221"
       style="font-style:normal;font-variant:normal;font-weight:bold;font-stretch:normal;font-size:666.66674805px;line-height:1.25;font-family:sans-serif;-inkscape-font-specification:'sans-serif Bold';stroke-width:10">GaAs:Mn</tspan></text>
  <text
     xml:space="preserve"
     style="font-style:normal;font-weight:normal;font-size:400px;line-height:1.25;font-family:sans-serif;letter-spacing:0px;word-spacing:0px;fill:#000000;fill-opacity:1;stroke:none;stroke-width:10"
     x="4962.5796"
     y="6649.4561"
     id="text75-5-9-0-2-5"><tspan
       sodipodi:role="line"
       id="tspan73-2-1-6-4-2"
       x="4962.5796"
       y="6649.4561"
       style="font-style:normal;font-variant:normal;font-weight:bold;font-stretch:normal;font-size:666.66674805px;line-height:1.25;font-family:sans-serif;-inkscape-font-specification:'sans-serif Bold';stroke-width:10">c</tspan></text>
  <text
     xml:space="preserve"
     style="font-style:normal;font-weight:normal;font-size:400px;line-height:1.25;font-family:sans-serif;letter-spacing:0px;word-spacing:0px;fill:#000000;fill-opacity:1;stroke:none;stroke-width:10"
     x="11650.81"
     y="3367.6279"
     id="text75-5-9-0-2-5-7"><tspan
       sodipodi:role="line"
       id="tspan73-2-1-6-4-2-1"
       x="11650.81"
       y="3367.6279"
       style="font-style:normal;font-variant:normal;font-weight:bold;font-stretch:normal;font-size:666.66674805px;line-height:1.25;font-family:sans-serif;-inkscape-font-specification:'sans-serif Bold';stroke-width:10">0</tspan></text>
  <path
     d="m 11489.749,10926 c -42,-18 -81,-67 -89,-111 -6,-28 -2,-48 16,-83 69,-140 270,-98 272,57 2,103 -108,179 -199,137 z"
     id="path171"
     inkscape:connector-curvature="0"
     style="fill:#f329cb;stroke:none" />
  <path
     d="m 12058.678,10926 c -96,-43 -121,-156 -51,-230 61,-65 151,-65 213,0 55,59 53,141 -5,197 -48,46 -102,57 -157,33 z"
     id="path173"
     inkscape:connector-curvature="0"
     style="fill:#f329cb;stroke:none" />
  <path
     d="m 6213.7288,10923 c -138,-72 -87,-278 68,-275 51,0 85,21 120,72 75,111 -67,266 -188,203 z"
     id="path175"
     inkscape:connector-curvature="0"
     style="fill:#f329cb;stroke:none" />
</svg>
